<?xml version="1.0" encoding="UTF-8" standalone="no"?>
<!DOCTYPE svg PUBLIC "-//W3C//DTD SVG 1.1//EN"
 "http://www.w3.org/Graphics/SVG/1.1/DTD/svg11.dtd">
<!-- Generated by graphviz version 2.36.0 (20140111.2315)
 -->
<!-- Title: %3 Pages: 1 -->
<svg width="711pt" height="404pt"
 viewBox="0.00 0.00 711.00 404.00" xmlns="http://www.w3.org/2000/svg" xmlns:xlink="http://www.w3.org/1999/xlink">
<g id="graph0" class="graph" transform="scale(1 1) rotate(0) translate(4 400)">
<title>%3</title>
<polygon fill="white" stroke="none" points="-4,4 -4,-400 707,-400 707,4 -4,4"/>
<!-- vol -->
<g id="node1" class="node"><title>vol</title>
<polygon fill="none" stroke="black" points="86,-396 0,-396 0,-360 86,-360 86,-396"/>
<text text-anchor="middle" x="43" y="-374.3" font-family="Times,serif" font-size="14.00">Volcanology</text>
</g>
<!-- gs -->
<g id="node2" class="node"><title>gs</title>
<polygon fill="none" stroke="black" points="208,-396 122,-396 122,-360 208,-360 208,-396"/>
<text text-anchor="middle" x="165" y="-374.3" font-family="Times,serif" font-size="14.00">Geostatistics</text>
</g>
<!-- study -->
<g id="node6" class="node"><title>study</title>
<polygon fill="none" stroke="black" points="439.5,-324 342.5,-324 342.5,-288 439.5,-288 439.5,-324"/>
<text text-anchor="middle" x="391" y="-302.3" font-family="Times,serif" font-size="14.00">Research Filed</text>
</g>
<!-- gs&#45;&gt;study -->
<g id="edge1" class="edge"><title>gs&#45;&gt;study</title>
<path fill="none" stroke="black" d="M208.041,-363.669C243.342,-352.735 293.661,-337.149 332.597,-325.09"/>
<polygon fill="black" stroke="black" points="333.717,-328.407 342.234,-322.104 331.646,-321.72 333.717,-328.407"/>
</g>
<!-- rs -->
<g id="node3" class="node"><title>rs</title>
<polygon fill="none" stroke="black" points="349.5,-396 244.5,-396 244.5,-360 349.5,-360 349.5,-396"/>
<text text-anchor="middle" x="297" y="-374.3" font-family="Times,serif" font-size="14.00">Remote Sensing</text>
</g>
<!-- rs&#45;&gt;study -->
<g id="edge2" class="edge"><title>rs&#45;&gt;study</title>
<path fill="none" stroke="black" d="M320.236,-359.697C332.188,-350.796 346.923,-339.823 359.847,-330.199"/>
<polygon fill="black" stroke="black" points="362.101,-332.884 368.031,-324.104 357.92,-327.27 362.101,-332.884"/>
</g>
<!-- gis -->
<g id="node4" class="node"><title>gis</title>
<polygon fill="none" stroke="black" points="584,-396 386,-396 386,-360 584,-360 584,-396"/>
<text text-anchor="middle" x="485" y="-374.3" font-family="Times,serif" font-size="14.00">Geographic Information Systems</text>
</g>
<!-- gis&#45;&gt;study -->
<g id="edge3" class="edge"><title>gis&#45;&gt;study</title>
<path fill="none" stroke="black" d="M461.764,-359.697C449.812,-350.796 435.077,-339.823 422.153,-330.199"/>
<polygon fill="black" stroke="black" points="424.08,-327.27 413.969,-324.104 419.899,-332.884 424.08,-327.27"/>
</g>
<!-- gt -->
<g id="node5" class="node"><title>gt</title>
<polygon fill="none" stroke="black" points="701.25,-396 620.75,-396 620.75,-360 701.25,-360 701.25,-396"/>
<text text-anchor="middle" x="661" y="-374.3" font-family="Times,serif" font-size="14.00">Geothermal</text>
</g>
<!-- gt&#45;&gt;study -->
<g id="edge4" class="edge"><title>gt&#45;&gt;study</title>
<path fill="none" stroke="black" d="M620.578,-366.52C575.247,-354.768 501.325,-335.603 449.645,-322.204"/>
<polygon fill="black" stroke="black" points="450.502,-318.811 439.944,-319.689 448.745,-325.587 450.502,-318.811"/>
</g>
<!-- gls -->
<g id="node7" class="node"><title>gls</title>
<polygon fill="none" stroke="black" points="281.25,-252 208.75,-252 208.75,-216 281.25,-216 281.25,-252"/>
<text text-anchor="middle" x="245" y="-230.3" font-family="Times,serif" font-size="14.00">Glossaries</text>
</g>
<!-- study&#45;&gt;gls -->
<g id="edge5" class="edge"><title>study&#45;&gt;gls</title>
<path fill="none" stroke="black" d="M355.284,-287.876C335.503,-278.392 310.728,-266.513 289.674,-256.419"/>
<polygon fill="black" stroke="black" points="291.13,-253.236 280.6,-252.068 288.104,-259.548 291.13,-253.236"/>
</g>
<!-- bib -->
<g id="node11" class="node"><title>bib</title>
<polygon fill="none" stroke="black" points="511,-252 457,-252 457,-216 511,-216 511,-252"/>
<text text-anchor="middle" x="484" y="-230.3" font-family="Times,serif" font-size="14.00">Bibtex</text>
</g>
<!-- study&#45;&gt;bib -->
<g id="edge6" class="edge"><title>study&#45;&gt;bib</title>
<path fill="none" stroke="black" d="M413.989,-287.697C425.814,-278.796 440.392,-267.823 453.179,-258.199"/>
<polygon fill="black" stroke="black" points="455.391,-260.915 461.276,-252.104 451.181,-255.322 455.391,-260.915"/>
</g>
<!-- nomencl -->
<g id="node8" class="node"><title>nomencl</title>
<polygon fill="none" stroke="black" points="118.25,-180 19.75,-180 19.75,-144 118.25,-144 118.25,-180"/>
<text text-anchor="middle" x="69" y="-158.3" font-family="Times,serif" font-size="14.00">Nomenclatrues</text>
</g>
<!-- gls&#45;&gt;nomencl -->
<g id="edge7" class="edge"><title>gls&#45;&gt;nomencl</title>
<path fill="none" stroke="black" d="M208.533,-218.496C183.404,-208.502 149.619,-195.064 121.588,-183.916"/>
<polygon fill="black" stroke="black" points="122.522,-180.521 111.937,-180.077 119.935,-187.025 122.522,-180.521"/>
</g>
<!-- acro -->
<g id="node9" class="node"><title>acro</title>
<polygon fill="none" stroke="black" points="229,-180 155,-180 155,-144 229,-144 229,-180"/>
<text text-anchor="middle" x="192" y="-158.3" font-family="Times,serif" font-size="14.00">Acronyms</text>
</g>
<!-- gls&#45;&gt;acro -->
<g id="edge8" class="edge"><title>gls&#45;&gt;acro</title>
<path fill="none" stroke="black" d="M231.899,-215.697C225.609,-207.389 217.953,-197.277 211.035,-188.141"/>
<polygon fill="black" stroke="black" points="213.777,-185.964 204.95,-180.104 208.196,-190.19 213.777,-185.964"/>
</g>
<!-- symbol -->
<g id="node10" class="node"><title>symbol</title>
<polygon fill="none" stroke="black" points="330.25,-180 265.75,-180 265.75,-144 330.25,-144 330.25,-180"/>
<text text-anchor="middle" x="298" y="-158.3" font-family="Times,serif" font-size="14.00">Symbols</text>
</g>
<!-- gls&#45;&gt;symbol -->
<g id="edge9" class="edge"><title>gls&#45;&gt;symbol</title>
<path fill="none" stroke="black" d="M258.101,-215.697C264.391,-207.389 272.047,-197.277 278.965,-188.141"/>
<polygon fill="black" stroke="black" points="281.804,-190.19 285.05,-180.104 276.223,-185.964 281.804,-190.19"/>
</g>
<!-- glsfile -->
<g id="node12" class="node"><title>glsfile</title>
<polygon fill="none" stroke="black" points="291.25,-108 198.75,-108 198.75,-72 291.25,-72 291.25,-108"/>
<text text-anchor="middle" x="245" y="-86.3" font-family="Times,serif" font-size="14.00">Glossaries.tex</text>
</g>
<!-- nomencl&#45;&gt;glsfile -->
<g id="edge10" class="edge"><title>nomencl&#45;&gt;glsfile</title>
<path fill="none" stroke="black" d="M112.054,-143.876C136.329,-134.222 166.84,-122.087 192.508,-111.878"/>
<polygon fill="black" stroke="black" points="194.087,-115.016 202.085,-108.068 191.5,-108.512 194.087,-115.016"/>
</g>
<!-- acro&#45;&gt;glsfile -->
<g id="edge11" class="edge"><title>acro&#45;&gt;glsfile</title>
<path fill="none" stroke="black" d="M205.101,-143.697C211.391,-135.389 219.047,-125.277 225.965,-116.141"/>
<polygon fill="black" stroke="black" points="228.804,-118.19 232.05,-108.104 223.223,-113.964 228.804,-118.19"/>
</g>
<!-- symbol&#45;&gt;glsfile -->
<g id="edge12" class="edge"><title>symbol&#45;&gt;glsfile</title>
<path fill="none" stroke="black" d="M284.899,-143.697C278.609,-135.389 270.953,-125.277 264.035,-116.141"/>
<polygon fill="black" stroke="black" points="266.777,-113.964 257.95,-108.104 261.196,-118.19 266.777,-113.964"/>
</g>
<!-- Papers -->
<g id="node15" class="node"><title>Papers</title>
<polygon fill="none" stroke="black" points="421,-180 367,-180 367,-144 421,-144 421,-180"/>
<text text-anchor="middle" x="394" y="-158.3" font-family="Times,serif" font-size="14.00">Papers</text>
</g>
<!-- bib&#45;&gt;Papers -->
<g id="edge14" class="edge"><title>bib&#45;&gt;Papers</title>
<path fill="none" stroke="black" d="M461.753,-215.697C450.418,-206.881 436.47,-196.032 424.181,-186.474"/>
<polygon fill="black" stroke="black" points="426.034,-183.481 415.991,-180.104 421.736,-189.007 426.034,-183.481"/>
</g>
<!-- Books -->
<g id="node16" class="node"><title>Books</title>
<polygon fill="none" stroke="black" points="511,-180 457,-180 457,-144 511,-144 511,-180"/>
<text text-anchor="middle" x="484" y="-158.3" font-family="Times,serif" font-size="14.00">Books</text>
</g>
<!-- bib&#45;&gt;Books -->
<g id="edge15" class="edge"><title>bib&#45;&gt;Books</title>
<path fill="none" stroke="black" d="M484,-215.697C484,-207.983 484,-198.712 484,-190.112"/>
<polygon fill="black" stroke="black" points="487.5,-190.104 484,-180.104 480.5,-190.104 487.5,-190.104"/>
</g>
<!-- Software -->
<g id="node17" class="node"><title>Software</title>
<polygon fill="none" stroke="black" points="612.25,-180 547.75,-180 547.75,-144 612.25,-144 612.25,-180"/>
<text text-anchor="middle" x="580" y="-158.3" font-family="Times,serif" font-size="14.00">Software</text>
</g>
<!-- bib&#45;&gt;Software -->
<g id="edge16" class="edge"><title>bib&#45;&gt;Software</title>
<path fill="none" stroke="black" d="M507.73,-215.697C519.937,-206.796 534.985,-195.823 548.184,-186.199"/>
<polygon fill="black" stroke="black" points="550.525,-188.824 556.543,-180.104 546.4,-183.168 550.525,-188.824"/>
</g>
<!-- Data -->
<g id="node18" class="node"><title>Data</title>
<polygon fill="none" stroke="black" points="703,-180 649,-180 649,-144 703,-144 703,-180"/>
<text text-anchor="middle" x="676" y="-158.3" font-family="Times,serif" font-size="14.00">Data</text>
</g>
<!-- bib&#45;&gt;Data -->
<g id="edge17" class="edge"><title>bib&#45;&gt;Data</title>
<path fill="none" stroke="black" d="M511.102,-223.119C544.598,-210.907 601.746,-190.072 639.191,-176.42"/>
<polygon fill="black" stroke="black" points="640.53,-179.657 648.726,-172.944 638.132,-173.081 640.53,-179.657"/>
</g>
<!-- main -->
<g id="node14" class="node"><title>main</title>
<polygon fill="none" stroke="black" points="423.25,-36 358.75,-36 358.75,-0 423.25,-0 423.25,-36"/>
<text text-anchor="middle" x="391" y="-14.3" font-family="Times,serif" font-size="14.00">main.tex</text>
</g>
<!-- glsfile&#45;&gt;main -->
<g id="edge13" class="edge"><title>glsfile&#45;&gt;main</title>
<path fill="none" stroke="black" d="M280.716,-71.8761C301.453,-61.9334 327.678,-49.3597 349.352,-38.9684"/>
<polygon fill="black" stroke="black" points="351.138,-41.9936 358.642,-34.5142 348.111,-35.6816 351.138,-41.9936"/>
</g>
<!-- bibfile -->
<g id="node13" class="node"><title>bibfile</title>
<polygon fill="none" stroke="black" points="532,-108 436,-108 436,-72 532,-72 532,-108"/>
<text text-anchor="middle" x="484" y="-86.3" font-family="Times,serif" font-size="14.00">Literatures.bib</text>
</g>
<!-- bibfile&#45;&gt;main -->
<g id="edge22" class="edge"><title>bibfile&#45;&gt;main</title>
<path fill="none" stroke="black" d="M461.011,-71.6966C449.186,-62.796 434.608,-51.8232 421.821,-42.1989"/>
<polygon fill="black" stroke="black" points="423.819,-39.3217 413.724,-36.1043 419.609,-44.9145 423.819,-39.3217"/>
</g>
<!-- Papers&#45;&gt;bibfile -->
<g id="edge18" class="edge"><title>Papers&#45;&gt;bibfile</title>
<path fill="none" stroke="black" d="M416.247,-143.697C427.582,-134.881 441.53,-124.032 453.819,-114.474"/>
<polygon fill="black" stroke="black" points="456.264,-117.007 462.009,-108.104 451.966,-111.481 456.264,-117.007"/>
</g>
<!-- Books&#45;&gt;bibfile -->
<g id="edge19" class="edge"><title>Books&#45;&gt;bibfile</title>
<path fill="none" stroke="black" d="M484,-143.697C484,-135.983 484,-126.712 484,-118.112"/>
<polygon fill="black" stroke="black" points="487.5,-118.104 484,-108.104 480.5,-118.104 487.5,-118.104"/>
</g>
<!-- Software&#45;&gt;bibfile -->
<g id="edge20" class="edge"><title>Software&#45;&gt;bibfile</title>
<path fill="none" stroke="black" d="M556.27,-143.697C544.063,-134.796 529.015,-123.823 515.816,-114.199"/>
<polygon fill="black" stroke="black" points="517.6,-111.168 507.457,-108.104 513.475,-116.824 517.6,-111.168"/>
</g>
<!-- Data&#45;&gt;bibfile -->
<g id="edge21" class="edge"><title>Data&#45;&gt;bibfile</title>
<path fill="none" stroke="black" d="M648.898,-151.119C620.931,-140.923 576.473,-124.714 540.764,-111.695"/>
<polygon fill="black" stroke="black" points="541.539,-108.253 530.945,-108.116 539.142,-114.829 541.539,-108.253"/>
</g>
</g>
</svg>
