<?xml version="1.0" encoding="UTF-8" standalone="no"?>
<!DOCTYPE svg PUBLIC "-//W3C//DTD SVG 1.1//EN"
 "http://www.w3.org/Graphics/SVG/1.1/DTD/svg11.dtd">
<!-- Generated by graphviz version 2.36.0 (20140111.2315)
 -->
<!-- Title: %3 Pages: 1 -->
<svg width="870pt" height="404pt"
 viewBox="0.00 0.00 870.00 404.00" xmlns="http://www.w3.org/2000/svg" xmlns:xlink="http://www.w3.org/1999/xlink">
<g id="graph0" class="graph" transform="scale(1 1) rotate(0) translate(4 400)">
<title>%3</title>
<polygon fill="white" stroke="none" points="-4,4 -4,-400 866,-400 866,4 -4,4"/>
<!-- vol -->
<g id="node1" class="node"><title>vol</title>
<polygon fill="none" stroke="black" points="247,-396 161,-396 161,-360 247,-360 247,-396"/>
<text text-anchor="middle" x="204" y="-374.3" font-family="Times,serif" font-size="14.00">Volcanology</text>
</g>
<!-- study -->
<g id="node6" class="node"><title>study</title>
<polygon fill="none" stroke="black" points="506.5,-324 409.5,-324 409.5,-288 506.5,-288 506.5,-324"/>
<text text-anchor="middle" x="458" y="-302.3" font-family="Times,serif" font-size="14.00">Research Filed</text>
</g>
<!-- vol&#45;&gt;study -->
<g id="edge1" class="edge"><title>vol&#45;&gt;study</title>
<path fill="none" stroke="black" d="M247.088,-365.125C289.108,-353.545 353.311,-335.851 399.844,-323.027"/>
<polygon fill="black" stroke="black" points="400.78,-326.4 409.491,-320.369 398.92,-319.651 400.78,-326.4"/>
</g>
<!-- gs -->
<g id="node2" class="node"><title>gs</title>
<polygon fill="none" stroke="black" points="369,-396 283,-396 283,-360 369,-360 369,-396"/>
<text text-anchor="middle" x="326" y="-374.3" font-family="Times,serif" font-size="14.00">Geostatistics</text>
</g>
<!-- gs&#45;&gt;study -->
<g id="edge2" class="edge"><title>gs&#45;&gt;study</title>
<path fill="none" stroke="black" d="M358.291,-359.876C375.869,-350.554 397.809,-338.919 416.629,-328.939"/>
<polygon fill="black" stroke="black" points="418.39,-331.967 425.585,-324.19 415.111,-325.783 418.39,-331.967"/>
</g>
<!-- rs -->
<g id="node3" class="node"><title>rs</title>
<polygon fill="none" stroke="black" points="510.5,-396 405.5,-396 405.5,-360 510.5,-360 510.5,-396"/>
<text text-anchor="middle" x="458" y="-374.3" font-family="Times,serif" font-size="14.00">Remote Sensing</text>
</g>
<!-- rs&#45;&gt;study -->
<g id="edge3" class="edge"><title>rs&#45;&gt;study</title>
<path fill="none" stroke="black" d="M458,-359.697C458,-351.983 458,-342.712 458,-334.112"/>
<polygon fill="black" stroke="black" points="461.5,-334.104 458,-324.104 454.5,-334.104 461.5,-334.104"/>
</g>
<!-- gis -->
<g id="node4" class="node"><title>gis</title>
<polygon fill="none" stroke="black" points="745,-396 547,-396 547,-360 745,-360 745,-396"/>
<text text-anchor="middle" x="646" y="-374.3" font-family="Times,serif" font-size="14.00">Geographic Information Systems</text>
</g>
<!-- gis&#45;&gt;study -->
<g id="edge4" class="edge"><title>gis&#45;&gt;study</title>
<path fill="none" stroke="black" d="M600.01,-359.876C573.852,-350.137 540.915,-337.872 513.348,-327.608"/>
<polygon fill="black" stroke="black" points="514.433,-324.278 503.841,-324.068 511.991,-330.838 514.433,-324.278"/>
</g>
<!-- gt -->
<g id="node5" class="node"><title>gt</title>
<polygon fill="none" stroke="black" points="862.25,-396 781.75,-396 781.75,-360 862.25,-360 862.25,-396"/>
<text text-anchor="middle" x="822" y="-374.3" font-family="Times,serif" font-size="14.00">Geothermal</text>
</g>
<!-- gt&#45;&gt;study -->
<g id="edge5" class="edge"><title>gt&#45;&gt;study</title>
<path fill="none" stroke="black" d="M781.655,-369.241C717.305,-356.866 591.124,-332.601 516.746,-318.297"/>
<polygon fill="black" stroke="black" points="517.088,-314.799 506.607,-316.347 515.766,-321.673 517.088,-314.799"/>
</g>
<!-- gls -->
<g id="node7" class="node"><title>gls</title>
<polygon fill="none" stroke="black" points="314.25,-252 241.75,-252 241.75,-216 314.25,-216 314.25,-252"/>
<text text-anchor="middle" x="278" y="-230.3" font-family="Times,serif" font-size="14.00">Glossaries</text>
</g>
<!-- study&#45;&gt;gls -->
<g id="edge6" class="edge"><title>study&#45;&gt;gls</title>
<path fill="none" stroke="black" d="M413.967,-287.876C386.595,-277.231 351.469,-263.571 323.776,-252.802"/>
<polygon fill="black" stroke="black" points="324.904,-249.485 314.316,-249.123 322.367,-256.009 324.904,-249.485"/>
</g>
<!-- bib -->
<g id="node11" class="node"><title>bib</title>
<polygon fill="none" stroke="black" points="666,-252 612,-252 612,-216 666,-216 666,-252"/>
<text text-anchor="middle" x="639" y="-230.3" font-family="Times,serif" font-size="14.00">Bibtex</text>
</g>
<!-- study&#45;&gt;bib -->
<g id="edge7" class="edge"><title>study&#45;&gt;bib</title>
<path fill="none" stroke="black" d="M502.278,-287.876C533.025,-275.985 573.503,-260.33 602.42,-249.147"/>
<polygon fill="black" stroke="black" points="603.689,-252.409 611.753,-245.537 601.164,-245.88 603.689,-252.409"/>
</g>
<!-- nomencl -->
<g id="node8" class="node"><title>nomencl</title>
<polygon fill="none" stroke="black" points="98.25,-180 -0.25,-180 -0.25,-144 98.25,-144 98.25,-180"/>
<text text-anchor="middle" x="49" y="-158.3" font-family="Times,serif" font-size="14.00">Nomenclatrues</text>
</g>
<!-- gls&#45;&gt;nomencl -->
<g id="edge10" class="edge"><title>gls&#45;&gt;nomencl</title>
<path fill="none" stroke="black" d="M241.714,-221.908C205.794,-210.928 150.203,-193.935 107.941,-181.017"/>
<polygon fill="black" stroke="black" points="108.909,-177.653 98.323,-178.077 106.863,-184.347 108.909,-177.653"/>
</g>
<!-- acro -->
<g id="node9" class="node"><title>acro</title>
<polygon fill="none" stroke="black" points="209,-180 135,-180 135,-144 209,-144 209,-180"/>
<text text-anchor="middle" x="172" y="-158.3" font-family="Times,serif" font-size="14.00">Acronyms</text>
</g>
<!-- gls&#45;&gt;acro -->
<g id="edge11" class="edge"><title>gls&#45;&gt;acro</title>
<path fill="none" stroke="black" d="M252.069,-215.876C238.338,-206.808 221.294,-195.552 206.464,-185.759"/>
<polygon fill="black" stroke="black" points="208.304,-182.78 198.03,-180.19 204.446,-188.621 208.304,-182.78"/>
</g>
<!-- symbol -->
<g id="node10" class="node"><title>symbol</title>
<polygon fill="none" stroke="black" points="310.25,-180 245.75,-180 245.75,-144 310.25,-144 310.25,-180"/>
<text text-anchor="middle" x="278" y="-158.3" font-family="Times,serif" font-size="14.00">Symbols</text>
</g>
<!-- gls&#45;&gt;symbol -->
<g id="edge12" class="edge"><title>gls&#45;&gt;symbol</title>
<path fill="none" stroke="black" d="M278,-215.697C278,-207.983 278,-198.712 278,-190.112"/>
<polygon fill="black" stroke="black" points="281.5,-190.104 278,-180.104 274.5,-190.104 281.5,-190.104"/>
</g>
<!-- Emacs /n abbreviation -->
<g id="node15" class="node"><title>Emacs /n abbreviation</title>
<polygon fill="none" stroke="black" points="485.25,-180 346.75,-180 346.75,-144 485.25,-144 485.25,-180"/>
<text text-anchor="middle" x="416" y="-158.3" font-family="Times,serif" font-size="14.00">Emacs /n abbreviation</text>
</g>
<!-- gls&#45;&gt;Emacs /n abbreviation -->
<g id="edge8" class="edge"><title>gls&#45;&gt;Emacs /n abbreviation</title>
<path fill="none" stroke="black" d="M311.759,-215.876C330.22,-206.512 353.282,-194.814 373.017,-184.803"/>
<polygon fill="black" stroke="black" points="374.777,-187.835 382.112,-180.19 371.61,-181.592 374.777,-187.835"/>
</g>
<!-- glsfile -->
<g id="node12" class="node"><title>glsfile</title>
<polygon fill="none" stroke="black" points="271.25,-108 178.75,-108 178.75,-72 271.25,-72 271.25,-108"/>
<text text-anchor="middle" x="225" y="-86.3" font-family="Times,serif" font-size="14.00">Glossaries.tex</text>
</g>
<!-- nomencl&#45;&gt;glsfile -->
<g id="edge13" class="edge"><title>nomencl&#45;&gt;glsfile</title>
<path fill="none" stroke="black" d="M92.0544,-143.876C116.329,-134.222 146.84,-122.087 172.508,-111.878"/>
<polygon fill="black" stroke="black" points="174.087,-115.016 182.085,-108.068 171.5,-108.512 174.087,-115.016"/>
</g>
<!-- acro&#45;&gt;glsfile -->
<g id="edge14" class="edge"><title>acro&#45;&gt;glsfile</title>
<path fill="none" stroke="black" d="M185.101,-143.697C191.391,-135.389 199.047,-125.277 205.965,-116.141"/>
<polygon fill="black" stroke="black" points="208.804,-118.19 212.05,-108.104 203.223,-113.964 208.804,-118.19"/>
</g>
<!-- symbol&#45;&gt;glsfile -->
<g id="edge15" class="edge"><title>symbol&#45;&gt;glsfile</title>
<path fill="none" stroke="black" d="M264.899,-143.697C258.609,-135.389 250.953,-125.277 244.035,-116.141"/>
<polygon fill="black" stroke="black" points="246.777,-113.964 237.95,-108.104 241.196,-118.19 246.777,-113.964"/>
</g>
<!-- Papers -->
<g id="node17" class="node"><title>Papers</title>
<polygon fill="none" stroke="black" points="576,-180 522,-180 522,-144 576,-144 576,-180"/>
<text text-anchor="middle" x="549" y="-158.3" font-family="Times,serif" font-size="14.00">Papers</text>
</g>
<!-- bib&#45;&gt;Papers -->
<g id="edge17" class="edge"><title>bib&#45;&gt;Papers</title>
<path fill="none" stroke="black" d="M616.753,-215.697C605.418,-206.881 591.47,-196.032 579.181,-186.474"/>
<polygon fill="black" stroke="black" points="581.034,-183.481 570.991,-180.104 576.736,-189.007 581.034,-183.481"/>
</g>
<!-- Books -->
<g id="node18" class="node"><title>Books</title>
<polygon fill="none" stroke="black" points="666,-180 612,-180 612,-144 666,-144 666,-180"/>
<text text-anchor="middle" x="639" y="-158.3" font-family="Times,serif" font-size="14.00">Books</text>
</g>
<!-- bib&#45;&gt;Books -->
<g id="edge18" class="edge"><title>bib&#45;&gt;Books</title>
<path fill="none" stroke="black" d="M639,-215.697C639,-207.983 639,-198.712 639,-190.112"/>
<polygon fill="black" stroke="black" points="642.5,-190.104 639,-180.104 635.5,-190.104 642.5,-190.104"/>
</g>
<!-- Software -->
<g id="node19" class="node"><title>Software</title>
<polygon fill="none" stroke="black" points="767.25,-180 702.75,-180 702.75,-144 767.25,-144 767.25,-180"/>
<text text-anchor="middle" x="735" y="-158.3" font-family="Times,serif" font-size="14.00">Software</text>
</g>
<!-- bib&#45;&gt;Software -->
<g id="edge19" class="edge"><title>bib&#45;&gt;Software</title>
<path fill="none" stroke="black" d="M662.73,-215.697C674.937,-206.796 689.985,-195.823 703.184,-186.199"/>
<polygon fill="black" stroke="black" points="705.525,-188.824 711.543,-180.104 701.4,-183.168 705.525,-188.824"/>
</g>
<!-- Data -->
<g id="node20" class="node"><title>Data</title>
<polygon fill="none" stroke="black" points="858,-180 804,-180 804,-144 858,-144 858,-180"/>
<text text-anchor="middle" x="831" y="-158.3" font-family="Times,serif" font-size="14.00">Data</text>
</g>
<!-- bib&#45;&gt;Data -->
<g id="edge20" class="edge"><title>bib&#45;&gt;Data</title>
<path fill="none" stroke="black" d="M666.102,-223.119C699.598,-210.907 756.746,-190.072 794.191,-176.42"/>
<polygon fill="black" stroke="black" points="795.53,-179.657 803.726,-172.944 793.132,-173.081 795.53,-179.657"/>
</g>
<!-- main -->
<g id="node14" class="node"><title>main</title>
<polygon fill="none" stroke="black" points="490.25,-36 425.75,-36 425.75,-0 490.25,-0 490.25,-36"/>
<text text-anchor="middle" x="458" y="-14.3" font-family="Times,serif" font-size="14.00">main.tex</text>
</g>
<!-- glsfile&#45;&gt;main -->
<g id="edge16" class="edge"><title>glsfile&#45;&gt;main</title>
<path fill="none" stroke="black" d="M271.312,-75.0866C313.488,-62.4156 375.231,-43.8661 416.002,-31.6173"/>
<polygon fill="black" stroke="black" points="417.067,-34.9522 425.637,-28.7229 415.053,-28.2482 417.067,-34.9522"/>
</g>
<!-- bibfile -->
<g id="node13" class="node"><title>bibfile</title>
<polygon fill="none" stroke="black" points="687,-108 591,-108 591,-72 687,-72 687,-108"/>
<text text-anchor="middle" x="639" y="-86.3" font-family="Times,serif" font-size="14.00">Literatures.bib</text>
</g>
<!-- bibfile&#45;&gt;main -->
<g id="edge25" class="edge"><title>bibfile&#45;&gt;main</title>
<path fill="none" stroke="black" d="M594.722,-71.8761C565.888,-60.7245 528.495,-46.2633 500.105,-35.2836"/>
<polygon fill="black" stroke="black" points="501.056,-31.899 490.467,-31.5563 498.531,-38.4278 501.056,-31.899"/>
</g>
<!-- Google /n input -->
<g id="node16" class="node"><title>Google /n input</title>
<polygon fill="none" stroke="black" points="466.5,-108 365.5,-108 365.5,-72 466.5,-72 466.5,-108"/>
<text text-anchor="middle" x="416" y="-86.3" font-family="Times,serif" font-size="14.00">Google /n input</text>
</g>
<!-- Emacs /n abbreviation&#45;&gt;Google /n input -->
<g id="edge9" class="edge"><title>Emacs /n abbreviation&#45;&gt;Google /n input</title>
<path fill="none" stroke="black" d="M416,-143.697C416,-135.983 416,-126.712 416,-118.112"/>
<polygon fill="black" stroke="black" points="419.5,-118.104 416,-108.104 412.5,-118.104 419.5,-118.104"/>
</g>
<!-- Papers&#45;&gt;bibfile -->
<g id="edge21" class="edge"><title>Papers&#45;&gt;bibfile</title>
<path fill="none" stroke="black" d="M571.247,-143.697C582.582,-134.881 596.53,-124.032 608.819,-114.474"/>
<polygon fill="black" stroke="black" points="611.264,-117.007 617.009,-108.104 606.966,-111.481 611.264,-117.007"/>
</g>
<!-- Books&#45;&gt;bibfile -->
<g id="edge22" class="edge"><title>Books&#45;&gt;bibfile</title>
<path fill="none" stroke="black" d="M639,-143.697C639,-135.983 639,-126.712 639,-118.112"/>
<polygon fill="black" stroke="black" points="642.5,-118.104 639,-108.104 635.5,-118.104 642.5,-118.104"/>
</g>
<!-- Software&#45;&gt;bibfile -->
<g id="edge23" class="edge"><title>Software&#45;&gt;bibfile</title>
<path fill="none" stroke="black" d="M711.27,-143.697C699.063,-134.796 684.015,-123.823 670.816,-114.199"/>
<polygon fill="black" stroke="black" points="672.6,-111.168 662.457,-108.104 668.475,-116.824 672.6,-111.168"/>
</g>
<!-- Data&#45;&gt;bibfile -->
<g id="edge24" class="edge"><title>Data&#45;&gt;bibfile</title>
<path fill="none" stroke="black" d="M803.898,-151.119C775.931,-140.923 731.473,-124.714 695.764,-111.695"/>
<polygon fill="black" stroke="black" points="696.539,-108.253 685.945,-108.116 694.142,-114.829 696.539,-108.253"/>
</g>
</g>
</svg>
