<?xml version="1.0" encoding="UTF-8" standalone="no"?>
<!DOCTYPE svg PUBLIC "-//W3C//DTD SVG 1.1//EN"
 "http://www.w3.org/Graphics/SVG/1.1/DTD/svg11.dtd">
<!-- Generated by graphviz version 2.36.0 (20140111.2315)
 -->
<!-- Title: %3 Pages: 1 -->
<svg width="691pt" height="404pt"
 viewBox="0.00 0.00 691.00 404.00" xmlns="http://www.w3.org/2000/svg" xmlns:xlink="http://www.w3.org/1999/xlink">
<g id="graph0" class="graph" transform="scale(1 1) rotate(0) translate(4 400)">
<title>%3</title>
<polygon fill="white" stroke="none" points="-4,4 -4,-400 687,-400 687,4 -4,4"/>
<!-- gs -->
<g id="node1" class="node"><title>gs</title>
<polygon fill="none" stroke="black" points="188,-396 102,-396 102,-360 188,-360 188,-396"/>
<text text-anchor="middle" x="145" y="-374.3" font-family="Times,serif" font-size="14.00">Geostatistics</text>
</g>
<!-- study -->
<g id="node5" class="node"><title>study</title>
<polygon fill="none" stroke="black" points="419.5,-324 322.5,-324 322.5,-288 419.5,-288 419.5,-324"/>
<text text-anchor="middle" x="371" y="-302.3" font-family="Times,serif" font-size="14.00">Research Filed</text>
</g>
<!-- gs&#45;&gt;study -->
<g id="edge1" class="edge"><title>gs&#45;&gt;study</title>
<path fill="none" stroke="black" d="M188.041,-363.669C223.342,-352.735 273.661,-337.149 312.597,-325.09"/>
<polygon fill="black" stroke="black" points="313.717,-328.407 322.234,-322.104 311.646,-321.72 313.717,-328.407"/>
</g>
<!-- rs -->
<g id="node2" class="node"><title>rs</title>
<polygon fill="none" stroke="black" points="329.5,-396 224.5,-396 224.5,-360 329.5,-360 329.5,-396"/>
<text text-anchor="middle" x="277" y="-374.3" font-family="Times,serif" font-size="14.00">Remote Sensing</text>
</g>
<!-- rs&#45;&gt;study -->
<g id="edge2" class="edge"><title>rs&#45;&gt;study</title>
<path fill="none" stroke="black" d="M300.236,-359.697C312.188,-350.796 326.923,-339.823 339.847,-330.199"/>
<polygon fill="black" stroke="black" points="342.101,-332.884 348.031,-324.104 337.92,-327.27 342.101,-332.884"/>
</g>
<!-- gis -->
<g id="node3" class="node"><title>gis</title>
<polygon fill="none" stroke="black" points="564,-396 366,-396 366,-360 564,-360 564,-396"/>
<text text-anchor="middle" x="465" y="-374.3" font-family="Times,serif" font-size="14.00">Geographic Information Systems</text>
</g>
<!-- gis&#45;&gt;study -->
<g id="edge3" class="edge"><title>gis&#45;&gt;study</title>
<path fill="none" stroke="black" d="M441.764,-359.697C429.812,-350.796 415.077,-339.823 402.153,-330.199"/>
<polygon fill="black" stroke="black" points="404.08,-327.27 393.969,-324.104 399.899,-332.884 404.08,-327.27"/>
</g>
<!-- gt -->
<g id="node4" class="node"><title>gt</title>
<polygon fill="none" stroke="black" points="681.25,-396 600.75,-396 600.75,-360 681.25,-360 681.25,-396"/>
<text text-anchor="middle" x="641" y="-374.3" font-family="Times,serif" font-size="14.00">Geothermal</text>
</g>
<!-- gt&#45;&gt;study -->
<g id="edge4" class="edge"><title>gt&#45;&gt;study</title>
<path fill="none" stroke="black" d="M600.578,-366.52C555.247,-354.768 481.325,-335.603 429.645,-322.204"/>
<polygon fill="black" stroke="black" points="430.502,-318.811 419.944,-319.689 428.745,-325.587 430.502,-318.811"/>
</g>
<!-- gls -->
<g id="node6" class="node"><title>gls</title>
<polygon fill="none" stroke="black" points="261.25,-252 188.75,-252 188.75,-216 261.25,-216 261.25,-252"/>
<text text-anchor="middle" x="225" y="-230.3" font-family="Times,serif" font-size="14.00">Glossaries</text>
</g>
<!-- study&#45;&gt;gls -->
<g id="edge5" class="edge"><title>study&#45;&gt;gls</title>
<path fill="none" stroke="black" d="M335.284,-287.876C315.503,-278.392 290.728,-266.513 269.674,-256.419"/>
<polygon fill="black" stroke="black" points="271.13,-253.236 260.6,-252.068 268.104,-259.548 271.13,-253.236"/>
</g>
<!-- bib -->
<g id="node10" class="node"><title>bib</title>
<polygon fill="none" stroke="black" points="491,-252 437,-252 437,-216 491,-216 491,-252"/>
<text text-anchor="middle" x="464" y="-230.3" font-family="Times,serif" font-size="14.00">Bibtex</text>
</g>
<!-- study&#45;&gt;bib -->
<g id="edge6" class="edge"><title>study&#45;&gt;bib</title>
<path fill="none" stroke="black" d="M393.989,-287.697C405.814,-278.796 420.392,-267.823 433.179,-258.199"/>
<polygon fill="black" stroke="black" points="435.391,-260.915 441.276,-252.104 431.181,-255.322 435.391,-260.915"/>
</g>
<!-- nomencl -->
<g id="node7" class="node"><title>nomencl</title>
<polygon fill="none" stroke="black" points="98.25,-180 -0.25,-180 -0.25,-144 98.25,-144 98.25,-180"/>
<text text-anchor="middle" x="49" y="-158.3" font-family="Times,serif" font-size="14.00">Nomenclatrues</text>
</g>
<!-- gls&#45;&gt;nomencl -->
<g id="edge7" class="edge"><title>gls&#45;&gt;nomencl</title>
<path fill="none" stroke="black" d="M188.533,-218.496C163.404,-208.502 129.619,-195.064 101.588,-183.916"/>
<polygon fill="black" stroke="black" points="102.522,-180.521 91.9366,-180.077 99.9351,-187.025 102.522,-180.521"/>
</g>
<!-- acro -->
<g id="node8" class="node"><title>acro</title>
<polygon fill="none" stroke="black" points="209,-180 135,-180 135,-144 209,-144 209,-180"/>
<text text-anchor="middle" x="172" y="-158.3" font-family="Times,serif" font-size="14.00">Acronyms</text>
</g>
<!-- gls&#45;&gt;acro -->
<g id="edge8" class="edge"><title>gls&#45;&gt;acro</title>
<path fill="none" stroke="black" d="M211.899,-215.697C205.609,-207.389 197.953,-197.277 191.035,-188.141"/>
<polygon fill="black" stroke="black" points="193.777,-185.964 184.95,-180.104 188.196,-190.19 193.777,-185.964"/>
</g>
<!-- symbol -->
<g id="node9" class="node"><title>symbol</title>
<polygon fill="none" stroke="black" points="310.25,-180 245.75,-180 245.75,-144 310.25,-144 310.25,-180"/>
<text text-anchor="middle" x="278" y="-158.3" font-family="Times,serif" font-size="14.00">Symbols</text>
</g>
<!-- gls&#45;&gt;symbol -->
<g id="edge9" class="edge"><title>gls&#45;&gt;symbol</title>
<path fill="none" stroke="black" d="M238.101,-215.697C244.391,-207.389 252.047,-197.277 258.965,-188.141"/>
<polygon fill="black" stroke="black" points="261.804,-190.19 265.05,-180.104 256.223,-185.964 261.804,-190.19"/>
</g>
<!-- glsfile -->
<g id="node11" class="node"><title>glsfile</title>
<polygon fill="none" stroke="black" points="271.25,-108 178.75,-108 178.75,-72 271.25,-72 271.25,-108"/>
<text text-anchor="middle" x="225" y="-86.3" font-family="Times,serif" font-size="14.00">Glossaries.tex</text>
</g>
<!-- nomencl&#45;&gt;glsfile -->
<g id="edge10" class="edge"><title>nomencl&#45;&gt;glsfile</title>
<path fill="none" stroke="black" d="M92.0544,-143.876C116.329,-134.222 146.84,-122.087 172.508,-111.878"/>
<polygon fill="black" stroke="black" points="174.087,-115.016 182.085,-108.068 171.5,-108.512 174.087,-115.016"/>
</g>
<!-- acro&#45;&gt;glsfile -->
<g id="edge11" class="edge"><title>acro&#45;&gt;glsfile</title>
<path fill="none" stroke="black" d="M185.101,-143.697C191.391,-135.389 199.047,-125.277 205.965,-116.141"/>
<polygon fill="black" stroke="black" points="208.804,-118.19 212.05,-108.104 203.223,-113.964 208.804,-118.19"/>
</g>
<!-- symbol&#45;&gt;glsfile -->
<g id="edge12" class="edge"><title>symbol&#45;&gt;glsfile</title>
<path fill="none" stroke="black" d="M264.899,-143.697C258.609,-135.389 250.953,-125.277 244.035,-116.141"/>
<polygon fill="black" stroke="black" points="246.777,-113.964 237.95,-108.104 241.196,-118.19 246.777,-113.964"/>
</g>
<!-- Papers -->
<g id="node14" class="node"><title>Papers</title>
<polygon fill="none" stroke="black" points="401,-180 347,-180 347,-144 401,-144 401,-180"/>
<text text-anchor="middle" x="374" y="-158.3" font-family="Times,serif" font-size="14.00">Papers</text>
</g>
<!-- bib&#45;&gt;Papers -->
<g id="edge14" class="edge"><title>bib&#45;&gt;Papers</title>
<path fill="none" stroke="black" d="M441.753,-215.697C430.418,-206.881 416.47,-196.032 404.181,-186.474"/>
<polygon fill="black" stroke="black" points="406.034,-183.481 395.991,-180.104 401.736,-189.007 406.034,-183.481"/>
</g>
<!-- Books -->
<g id="node15" class="node"><title>Books</title>
<polygon fill="none" stroke="black" points="491,-180 437,-180 437,-144 491,-144 491,-180"/>
<text text-anchor="middle" x="464" y="-158.3" font-family="Times,serif" font-size="14.00">Books</text>
</g>
<!-- bib&#45;&gt;Books -->
<g id="edge15" class="edge"><title>bib&#45;&gt;Books</title>
<path fill="none" stroke="black" d="M464,-215.697C464,-207.983 464,-198.712 464,-190.112"/>
<polygon fill="black" stroke="black" points="467.5,-190.104 464,-180.104 460.5,-190.104 467.5,-190.104"/>
</g>
<!-- Software -->
<g id="node16" class="node"><title>Software</title>
<polygon fill="none" stroke="black" points="592.25,-180 527.75,-180 527.75,-144 592.25,-144 592.25,-180"/>
<text text-anchor="middle" x="560" y="-158.3" font-family="Times,serif" font-size="14.00">Software</text>
</g>
<!-- bib&#45;&gt;Software -->
<g id="edge16" class="edge"><title>bib&#45;&gt;Software</title>
<path fill="none" stroke="black" d="M487.73,-215.697C499.937,-206.796 514.985,-195.823 528.184,-186.199"/>
<polygon fill="black" stroke="black" points="530.525,-188.824 536.543,-180.104 526.4,-183.168 530.525,-188.824"/>
</g>
<!-- Data -->
<g id="node17" class="node"><title>Data</title>
<polygon fill="none" stroke="black" points="683,-180 629,-180 629,-144 683,-144 683,-180"/>
<text text-anchor="middle" x="656" y="-158.3" font-family="Times,serif" font-size="14.00">Data</text>
</g>
<!-- bib&#45;&gt;Data -->
<g id="edge17" class="edge"><title>bib&#45;&gt;Data</title>
<path fill="none" stroke="black" d="M491.102,-223.119C524.598,-210.907 581.746,-190.072 619.191,-176.42"/>
<polygon fill="black" stroke="black" points="620.53,-179.657 628.726,-172.944 618.132,-173.081 620.53,-179.657"/>
</g>
<!-- main -->
<g id="node13" class="node"><title>main</title>
<polygon fill="none" stroke="black" points="403.25,-36 338.75,-36 338.75,-0 403.25,-0 403.25,-36"/>
<text text-anchor="middle" x="371" y="-14.3" font-family="Times,serif" font-size="14.00">main.tex</text>
</g>
<!-- glsfile&#45;&gt;main -->
<g id="edge13" class="edge"><title>glsfile&#45;&gt;main</title>
<path fill="none" stroke="black" d="M260.716,-71.8761C281.453,-61.9334 307.678,-49.3597 329.352,-38.9684"/>
<polygon fill="black" stroke="black" points="331.138,-41.9936 338.642,-34.5142 328.111,-35.6816 331.138,-41.9936"/>
</g>
<!-- bibfile -->
<g id="node12" class="node"><title>bibfile</title>
<polygon fill="none" stroke="black" points="512,-108 416,-108 416,-72 512,-72 512,-108"/>
<text text-anchor="middle" x="464" y="-86.3" font-family="Times,serif" font-size="14.00">Literatures.bib</text>
</g>
<!-- bibfile&#45;&gt;main -->
<g id="edge22" class="edge"><title>bibfile&#45;&gt;main</title>
<path fill="none" stroke="black" d="M441.011,-71.6966C429.186,-62.796 414.608,-51.8232 401.821,-42.1989"/>
<polygon fill="black" stroke="black" points="403.819,-39.3217 393.724,-36.1043 399.609,-44.9145 403.819,-39.3217"/>
</g>
<!-- Papers&#45;&gt;bibfile -->
<g id="edge18" class="edge"><title>Papers&#45;&gt;bibfile</title>
<path fill="none" stroke="black" d="M396.247,-143.697C407.582,-134.881 421.53,-124.032 433.819,-114.474"/>
<polygon fill="black" stroke="black" points="436.264,-117.007 442.009,-108.104 431.966,-111.481 436.264,-117.007"/>
</g>
<!-- Books&#45;&gt;bibfile -->
<g id="edge19" class="edge"><title>Books&#45;&gt;bibfile</title>
<path fill="none" stroke="black" d="M464,-143.697C464,-135.983 464,-126.712 464,-118.112"/>
<polygon fill="black" stroke="black" points="467.5,-118.104 464,-108.104 460.5,-118.104 467.5,-118.104"/>
</g>
<!-- Software&#45;&gt;bibfile -->
<g id="edge20" class="edge"><title>Software&#45;&gt;bibfile</title>
<path fill="none" stroke="black" d="M536.27,-143.697C524.063,-134.796 509.015,-123.823 495.816,-114.199"/>
<polygon fill="black" stroke="black" points="497.6,-111.168 487.457,-108.104 493.475,-116.824 497.6,-111.168"/>
</g>
<!-- Data&#45;&gt;bibfile -->
<g id="edge21" class="edge"><title>Data&#45;&gt;bibfile</title>
<path fill="none" stroke="black" d="M628.898,-151.119C600.931,-140.923 556.473,-124.714 520.764,-111.695"/>
<polygon fill="black" stroke="black" points="521.539,-108.253 510.945,-108.116 519.142,-114.829 521.539,-108.253"/>
</g>
</g>
</svg>
