<?xml version="1.0" encoding="UTF-8" standalone="no"?>
<!DOCTYPE svg PUBLIC "-//W3C//DTD SVG 1.1//EN"
 "http://www.w3.org/Graphics/SVG/1.1/DTD/svg11.dtd">
<!-- Generated by graphviz version 2.36.0 (20140111.2315)
 -->
<!-- Title: %3 Pages: 1 -->
<svg width="845pt" height="408pt"
 viewBox="0.00 0.00 845.00 408.00" xmlns="http://www.w3.org/2000/svg" xmlns:xlink="http://www.w3.org/1999/xlink">
<g id="graph0" class="graph" transform="scale(1 1) rotate(0) translate(4 404)">
<title>%3</title>
<polygon fill="white" stroke="none" points="-4,4 -4,-404 841,-404 841,4 -4,4"/>
<!-- vol -->
<g id="node1" class="node"><title>vol</title>
<polygon fill="none" stroke="black" points="222,-400 136,-400 136,-364 222,-364 222,-400"/>
<text text-anchor="middle" x="179" y="-378.3" font-family="Times,serif" font-size="14.00">Volcanology</text>
</g>
<!-- study -->
<g id="node6" class="node"><title>study</title>
<polygon fill="none" stroke="black" points="481.5,-328 384.5,-328 384.5,-292 481.5,-292 481.5,-328"/>
<text text-anchor="middle" x="433" y="-306.3" font-family="Times,serif" font-size="14.00">Research Filed</text>
</g>
<!-- vol&#45;&gt;study -->
<g id="edge1" class="edge"><title>vol&#45;&gt;study</title>
<path fill="none" stroke="black" d="M222.088,-369.125C264.108,-357.545 328.311,-339.851 374.844,-327.027"/>
<polygon fill="black" stroke="black" points="375.78,-330.4 384.491,-324.369 373.92,-323.651 375.78,-330.4"/>
</g>
<!-- gs -->
<g id="node2" class="node"><title>gs</title>
<polygon fill="none" stroke="black" points="344,-400 258,-400 258,-364 344,-364 344,-400"/>
<text text-anchor="middle" x="301" y="-378.3" font-family="Times,serif" font-size="14.00">Geostatistics</text>
</g>
<!-- gs&#45;&gt;study -->
<g id="edge2" class="edge"><title>gs&#45;&gt;study</title>
<path fill="none" stroke="black" d="M333.291,-363.876C350.869,-354.554 372.809,-342.919 391.629,-332.939"/>
<polygon fill="black" stroke="black" points="393.39,-335.967 400.585,-328.19 390.111,-329.783 393.39,-335.967"/>
</g>
<!-- rs -->
<g id="node3" class="node"><title>rs</title>
<polygon fill="none" stroke="black" points="485.5,-400 380.5,-400 380.5,-364 485.5,-364 485.5,-400"/>
<text text-anchor="middle" x="433" y="-378.3" font-family="Times,serif" font-size="14.00">Remote Sensing</text>
</g>
<!-- rs&#45;&gt;study -->
<g id="edge3" class="edge"><title>rs&#45;&gt;study</title>
<path fill="none" stroke="black" d="M433,-363.697C433,-355.983 433,-346.712 433,-338.112"/>
<polygon fill="black" stroke="black" points="436.5,-338.104 433,-328.104 429.5,-338.104 436.5,-338.104"/>
</g>
<!-- gis -->
<g id="node4" class="node"><title>gis</title>
<polygon fill="none" stroke="black" points="720,-400 522,-400 522,-364 720,-364 720,-400"/>
<text text-anchor="middle" x="621" y="-378.3" font-family="Times,serif" font-size="14.00">Geographic Information Systems</text>
</g>
<!-- gis&#45;&gt;study -->
<g id="edge4" class="edge"><title>gis&#45;&gt;study</title>
<path fill="none" stroke="black" d="M575.01,-363.876C548.852,-354.137 515.915,-341.872 488.348,-331.608"/>
<polygon fill="black" stroke="black" points="489.433,-328.278 478.841,-328.068 486.991,-334.838 489.433,-328.278"/>
</g>
<!-- gt -->
<g id="node5" class="node"><title>gt</title>
<polygon fill="none" stroke="black" points="837.25,-400 756.75,-400 756.75,-364 837.25,-364 837.25,-400"/>
<text text-anchor="middle" x="797" y="-378.3" font-family="Times,serif" font-size="14.00">Geothermal</text>
</g>
<!-- gt&#45;&gt;study -->
<g id="edge5" class="edge"><title>gt&#45;&gt;study</title>
<path fill="none" stroke="black" d="M756.655,-373.241C692.305,-360.866 566.124,-336.601 491.746,-322.297"/>
<polygon fill="black" stroke="black" points="492.088,-318.799 481.607,-320.347 490.766,-325.673 492.088,-318.799"/>
</g>
<!-- gls -->
<g id="node7" class="node"><title>gls</title>
<polygon fill="none" stroke="black" points="314.25,-256 241.75,-256 241.75,-220 314.25,-220 314.25,-256"/>
<text text-anchor="middle" x="278" y="-234.3" font-family="Times,serif" font-size="14.00">Glossaries</text>
</g>
<!-- study&#45;&gt;gls -->
<g id="edge6" class="edge"><title>study&#45;&gt;gls</title>
<path fill="none" stroke="black" d="M395.083,-291.876C373.499,-282.129 346.317,-269.853 323.578,-259.584"/>
<polygon fill="black" stroke="black" points="325.013,-256.391 314.458,-255.465 322.132,-262.771 325.013,-256.391"/>
</g>
<!-- bib -->
<g id="node11" class="node"><title>bib</title>
<polygon fill="none" stroke="black" points="615,-256 561,-256 561,-220 615,-220 615,-256"/>
<text text-anchor="middle" x="588" y="-234.3" font-family="Times,serif" font-size="14.00">Bibtex</text>
</g>
<!-- study&#45;&gt;bib -->
<g id="edge7" class="edge"><title>study&#45;&gt;bib</title>
<path fill="none" stroke="black" d="M470.917,-291.876C495.445,-280.799 527.203,-266.457 551.454,-255.504"/>
<polygon fill="black" stroke="black" points="553.008,-258.643 560.681,-251.338 550.126,-252.264 553.008,-258.643"/>
</g>
<!-- nomencl -->
<g id="node8" class="node"><title>nomencl</title>
<polygon fill="none" stroke="black" points="98.25,-183 -0.25,-183 -0.25,-147 98.25,-147 98.25,-183"/>
<text text-anchor="middle" x="49" y="-161.3" font-family="Times,serif" font-size="14.00">Nomenclatrues</text>
</g>
<!-- gls&#45;&gt;nomencl -->
<g id="edge10" class="edge"><title>gls&#45;&gt;nomencl</title>
<path fill="none" stroke="black" d="M241.714,-225.75C205.794,-214.613 150.203,-197.377 107.941,-184.274"/>
<polygon fill="black" stroke="black" points="108.911,-180.911 98.323,-181.292 106.838,-187.597 108.911,-180.911"/>
</g>
<!-- acro -->
<g id="node9" class="node"><title>acro</title>
<polygon fill="none" stroke="black" points="209,-183 135,-183 135,-147 209,-147 209,-183"/>
<text text-anchor="middle" x="172" y="-161.3" font-family="Times,serif" font-size="14.00">Acronyms</text>
</g>
<!-- gls&#45;&gt;acro -->
<g id="edge11" class="edge"><title>gls&#45;&gt;acro</title>
<path fill="none" stroke="black" d="M252.61,-219.994C238.684,-210.666 221.229,-198.974 206.126,-188.858"/>
<polygon fill="black" stroke="black" points="207.806,-185.771 197.55,-183.114 203.91,-191.587 207.806,-185.771"/>
</g>
<!-- symbol -->
<g id="node10" class="node"><title>symbol</title>
<polygon fill="none" stroke="black" points="310.25,-183 245.75,-183 245.75,-147 310.25,-147 310.25,-183"/>
<text text-anchor="middle" x="278" y="-161.3" font-family="Times,serif" font-size="14.00">Symbols</text>
</g>
<!-- gls&#45;&gt;symbol -->
<g id="edge12" class="edge"><title>gls&#45;&gt;symbol</title>
<path fill="none" stroke="black" d="M278,-219.813C278,-211.789 278,-202.047 278,-193.069"/>
<polygon fill="black" stroke="black" points="281.5,-193.029 278,-183.029 274.5,-193.029 281.5,-193.029"/>
</g>
<!-- Emacs \n abbreviation -->
<g id="node15" class="node"><title>Emacs \n abbreviation</title>
<polygon fill="none" stroke="black" points="434.5,-184 347.5,-184 347.5,-146 434.5,-146 434.5,-184"/>
<text text-anchor="middle" x="391" y="-168.8" font-family="Times,serif" font-size="14.00">Emacs </text>
<text text-anchor="middle" x="391" y="-153.8" font-family="Times,serif" font-size="14.00"> abbreviation</text>
</g>
<!-- gls&#45;&gt;Emacs \n abbreviation -->
<g id="edge8" class="edge"><title>gls&#45;&gt;Emacs \n abbreviation</title>
<path fill="none" stroke="black" d="M305.066,-219.994C319.61,-210.855 337.765,-199.449 353.635,-189.477"/>
<polygon fill="black" stroke="black" points="355.574,-192.392 362.179,-184.109 351.85,-186.465 355.574,-192.392"/>
</g>
<!-- glsfile -->
<g id="node12" class="node"><title>glsfile</title>
<polygon fill="none" stroke="black" points="271.25,-109 178.75,-109 178.75,-73 271.25,-73 271.25,-109"/>
<text text-anchor="middle" x="225" y="-87.3" font-family="Times,serif" font-size="14.00">Glossaries.tex</text>
</g>
<!-- nomencl&#45;&gt;glsfile -->
<g id="edge13" class="edge"><title>nomencl&#45;&gt;glsfile</title>
<path fill="none" stroke="black" d="M90.7095,-146.937C115.606,-136.752 147.413,-123.74 173.823,-112.936"/>
<polygon fill="black" stroke="black" points="175.355,-116.091 183.285,-109.065 172.705,-109.612 175.355,-116.091"/>
</g>
<!-- acro&#45;&gt;glsfile -->
<g id="edge14" class="edge"><title>acro&#45;&gt;glsfile</title>
<path fill="none" stroke="black" d="M184.56,-146.937C191,-138.189 198.975,-127.354 206.137,-117.626"/>
<polygon fill="black" stroke="black" points="209.052,-119.569 212.162,-109.441 203.415,-115.419 209.052,-119.569"/>
</g>
<!-- symbol&#45;&gt;glsfile -->
<g id="edge15" class="edge"><title>symbol&#45;&gt;glsfile</title>
<path fill="none" stroke="black" d="M265.44,-146.937C259,-138.189 251.025,-127.354 243.863,-117.626"/>
<polygon fill="black" stroke="black" points="246.585,-115.419 237.838,-109.441 240.948,-119.569 246.585,-115.419"/>
</g>
<!-- Papers -->
<g id="node17" class="node"><title>Papers</title>
<polygon fill="none" stroke="black" points="525,-183 471,-183 471,-147 525,-147 525,-183"/>
<text text-anchor="middle" x="498" y="-161.3" font-family="Times,serif" font-size="14.00">Papers</text>
</g>
<!-- bib&#45;&gt;Papers -->
<g id="edge17" class="edge"><title>bib&#45;&gt;Papers</title>
<path fill="none" stroke="black" d="M566.214,-219.813C554.606,-210.656 540.161,-199.26 527.555,-189.316"/>
<polygon fill="black" stroke="black" points="529.605,-186.475 519.586,-183.029 525.269,-191.97 529.605,-186.475"/>
</g>
<!-- Books -->
<g id="node18" class="node"><title>Books</title>
<polygon fill="none" stroke="black" points="615,-183 561,-183 561,-147 615,-147 615,-183"/>
<text text-anchor="middle" x="588" y="-161.3" font-family="Times,serif" font-size="14.00">Books</text>
</g>
<!-- bib&#45;&gt;Books -->
<g id="edge18" class="edge"><title>bib&#45;&gt;Books</title>
<path fill="none" stroke="black" d="M588,-219.813C588,-211.789 588,-202.047 588,-193.069"/>
<polygon fill="black" stroke="black" points="591.5,-193.029 588,-183.029 584.5,-193.029 591.5,-193.029"/>
</g>
<!-- Software -->
<g id="node19" class="node"><title>Software</title>
<polygon fill="none" stroke="black" points="716.25,-183 651.75,-183 651.75,-147 716.25,-147 716.25,-183"/>
<text text-anchor="middle" x="684" y="-161.3" font-family="Times,serif" font-size="14.00">Software</text>
</g>
<!-- bib&#45;&gt;Software -->
<g id="edge19" class="edge"><title>bib&#45;&gt;Software</title>
<path fill="none" stroke="black" d="M611.239,-219.813C623.738,-210.569 639.322,-199.043 652.858,-189.032"/>
<polygon fill="black" stroke="black" points="655.016,-191.789 660.975,-183.029 650.854,-186.161 655.016,-191.789"/>
</g>
<!-- Data -->
<g id="node20" class="node"><title>Data</title>
<polygon fill="none" stroke="black" points="807,-183 753,-183 753,-147 807,-147 807,-183"/>
<text text-anchor="middle" x="780" y="-161.3" font-family="Times,serif" font-size="14.00">Data</text>
</g>
<!-- bib&#45;&gt;Data -->
<g id="edge20" class="edge"><title>bib&#45;&gt;Data</title>
<path fill="none" stroke="black" d="M615.102,-226.978C648.598,-214.591 705.746,-193.459 743.191,-179.612"/>
<polygon fill="black" stroke="black" points="744.561,-182.837 752.726,-176.086 742.133,-176.271 744.561,-182.837"/>
</g>
<!-- main -->
<g id="node14" class="node"><title>main</title>
<polygon fill="none" stroke="black" points="465.25,-36 400.75,-36 400.75,-0 465.25,-0 465.25,-36"/>
<text text-anchor="middle" x="433" y="-14.3" font-family="Times,serif" font-size="14.00">main.tex</text>
</g>
<!-- glsfile&#45;&gt;main -->
<g id="edge16" class="edge"><title>glsfile&#45;&gt;main</title>
<path fill="none" stroke="black" d="M271.42,-74.1546C307.164,-61.9537 356.158,-45.2299 390.798,-33.4054"/>
<polygon fill="black" stroke="black" points="392.277,-36.5988 400.611,-30.056 390.016,-29.9742 392.277,-36.5988"/>
</g>
<!-- bibfile -->
<g id="node13" class="node"><title>bibfile</title>
<polygon fill="none" stroke="black" points="636,-109 540,-109 540,-73 636,-73 636,-109"/>
<text text-anchor="middle" x="588" y="-87.3" font-family="Times,serif" font-size="14.00">Literatures.bib</text>
</g>
<!-- bibfile&#45;&gt;main -->
<g id="edge25" class="edge"><title>bibfile&#45;&gt;main</title>
<path fill="none" stroke="black" d="M550.874,-72.9937C527.865,-62.4545 498.271,-48.8982 474.491,-38.0057"/>
<polygon fill="black" stroke="black" points="475.907,-34.8047 465.358,-33.8221 472.992,-41.1688 475.907,-34.8047"/>
</g>
<!-- Google \n input -->
<g id="node16" class="node"><title>Google \n input</title>
<polygon fill="none" stroke="black" points="420.5,-110 361.5,-110 361.5,-72 420.5,-72 420.5,-110"/>
<text text-anchor="middle" x="391" y="-94.8" font-family="Times,serif" font-size="14.00">Google </text>
<text text-anchor="middle" x="391" y="-79.8" font-family="Times,serif" font-size="14.00"> input</text>
</g>
<!-- Emacs \n abbreviation&#45;&gt;Google \n input -->
<g id="edge9" class="edge"><title>Emacs \n abbreviation&#45;&gt;Google \n input</title>
<path fill="none" stroke="black" d="M391,-145.831C391,-138.131 391,-128.974 391,-120.417"/>
<polygon fill="black" stroke="black" points="394.5,-120.413 391,-110.413 387.5,-120.413 394.5,-120.413"/>
</g>
<!-- Papers&#45;&gt;bibfile -->
<g id="edge21" class="edge"><title>Papers&#45;&gt;bibfile</title>
<path fill="none" stroke="black" d="M519.329,-146.937C531.012,-137.59 545.672,-125.863 558.443,-115.646"/>
<polygon fill="black" stroke="black" points="560.89,-118.17 566.512,-109.19 556.517,-112.704 560.89,-118.17"/>
</g>
<!-- Books&#45;&gt;bibfile -->
<g id="edge22" class="edge"><title>Books&#45;&gt;bibfile</title>
<path fill="none" stroke="black" d="M588,-146.937C588,-138.807 588,-128.876 588,-119.705"/>
<polygon fill="black" stroke="black" points="591.5,-119.441 588,-109.441 584.5,-119.441 591.5,-119.441"/>
</g>
<!-- Software&#45;&gt;bibfile -->
<g id="edge23" class="edge"><title>Software&#45;&gt;bibfile</title>
<path fill="none" stroke="black" d="M661.249,-146.937C648.668,-137.501 632.852,-125.639 619.139,-115.354"/>
<polygon fill="black" stroke="black" points="621.02,-112.39 610.92,-109.19 616.82,-117.99 621.02,-112.39"/>
</g>
<!-- Data&#45;&gt;bibfile -->
<g id="edge24" class="edge"><title>Data&#45;&gt;bibfile</title>
<path fill="none" stroke="black" d="M752.898,-153.837C724.431,-143.162 678.881,-126.081 642.861,-112.573"/>
<polygon fill="black" stroke="black" points="644.044,-109.279 633.452,-109.044 641.586,-115.833 644.044,-109.279"/>
</g>
</g>
</svg>
