<?xml version="1.0" encoding="UTF-8" standalone="no"?>
<!DOCTYPE svg PUBLIC "-//W3C//DTD SVG 1.1//EN"
 "http://www.w3.org/Graphics/SVG/1.1/DTD/svg11.dtd">
<!-- Generated by graphviz version 2.36.0 (20140111.2315)
 -->
<!-- Title: %3 Pages: 1 -->
<svg width="843pt" height="404pt"
 viewBox="0.00 0.00 843.00 404.00" xmlns="http://www.w3.org/2000/svg" xmlns:xlink="http://www.w3.org/1999/xlink">
<g id="graph0" class="graph" transform="scale(1 1) rotate(0) translate(4 400)">
<title>%3</title>
<polygon fill="white" stroke="none" points="-4,4 -4,-400 839,-400 839,4 -4,4"/>
<!-- vol -->
<g id="node1" class="node"><title>vol</title>
<polygon fill="none" stroke="black" points="220,-396 134,-396 134,-360 220,-360 220,-396"/>
<text text-anchor="middle" x="177" y="-374.3" font-family="Times,serif" font-size="14.00">Volcanology</text>
</g>
<!-- study -->
<g id="node6" class="node"><title>study</title>
<polygon fill="none" stroke="black" points="479.5,-324 382.5,-324 382.5,-288 479.5,-288 479.5,-324"/>
<text text-anchor="middle" x="431" y="-302.3" font-family="Times,serif" font-size="14.00">Research Filed</text>
</g>
<!-- vol&#45;&gt;study -->
<g id="edge1" class="edge"><title>vol&#45;&gt;study</title>
<path fill="none" stroke="black" d="M220.088,-365.125C262.108,-353.545 326.311,-335.851 372.844,-323.027"/>
<polygon fill="black" stroke="black" points="373.78,-326.4 382.491,-320.369 371.92,-319.651 373.78,-326.4"/>
</g>
<!-- gs -->
<g id="node2" class="node"><title>gs</title>
<polygon fill="none" stroke="black" points="342,-396 256,-396 256,-360 342,-360 342,-396"/>
<text text-anchor="middle" x="299" y="-374.3" font-family="Times,serif" font-size="14.00">Geostatistics</text>
</g>
<!-- gs&#45;&gt;study -->
<g id="edge2" class="edge"><title>gs&#45;&gt;study</title>
<path fill="none" stroke="black" d="M331.291,-359.876C348.869,-350.554 370.809,-338.919 389.629,-328.939"/>
<polygon fill="black" stroke="black" points="391.39,-331.967 398.585,-324.19 388.111,-325.783 391.39,-331.967"/>
</g>
<!-- rs -->
<g id="node3" class="node"><title>rs</title>
<polygon fill="none" stroke="black" points="483.5,-396 378.5,-396 378.5,-360 483.5,-360 483.5,-396"/>
<text text-anchor="middle" x="431" y="-374.3" font-family="Times,serif" font-size="14.00">Remote Sensing</text>
</g>
<!-- rs&#45;&gt;study -->
<g id="edge3" class="edge"><title>rs&#45;&gt;study</title>
<path fill="none" stroke="black" d="M431,-359.697C431,-351.983 431,-342.712 431,-334.112"/>
<polygon fill="black" stroke="black" points="434.5,-334.104 431,-324.104 427.5,-334.104 434.5,-334.104"/>
</g>
<!-- gis -->
<g id="node4" class="node"><title>gis</title>
<polygon fill="none" stroke="black" points="718,-396 520,-396 520,-360 718,-360 718,-396"/>
<text text-anchor="middle" x="619" y="-374.3" font-family="Times,serif" font-size="14.00">Geographic Information Systems</text>
</g>
<!-- gis&#45;&gt;study -->
<g id="edge4" class="edge"><title>gis&#45;&gt;study</title>
<path fill="none" stroke="black" d="M573.01,-359.876C546.852,-350.137 513.915,-337.872 486.348,-327.608"/>
<polygon fill="black" stroke="black" points="487.433,-324.278 476.841,-324.068 484.991,-330.838 487.433,-324.278"/>
</g>
<!-- gt -->
<g id="node5" class="node"><title>gt</title>
<polygon fill="none" stroke="black" points="835.25,-396 754.75,-396 754.75,-360 835.25,-360 835.25,-396"/>
<text text-anchor="middle" x="795" y="-374.3" font-family="Times,serif" font-size="14.00">Geothermal</text>
</g>
<!-- gt&#45;&gt;study -->
<g id="edge5" class="edge"><title>gt&#45;&gt;study</title>
<path fill="none" stroke="black" d="M754.655,-369.241C690.305,-356.866 564.124,-332.601 489.746,-318.297"/>
<polygon fill="black" stroke="black" points="490.088,-314.799 479.607,-316.347 488.766,-321.673 490.088,-314.799"/>
</g>
<!-- gls -->
<g id="node7" class="node"><title>gls</title>
<polygon fill="none" stroke="black" points="314.25,-252 241.75,-252 241.75,-216 314.25,-216 314.25,-252"/>
<text text-anchor="middle" x="278" y="-230.3" font-family="Times,serif" font-size="14.00">Glossaries</text>
</g>
<!-- study&#45;&gt;gls -->
<g id="edge6" class="edge"><title>study&#45;&gt;gls</title>
<path fill="none" stroke="black" d="M393.572,-287.876C372.439,-278.208 345.869,-266.051 323.535,-255.833"/>
<polygon fill="black" stroke="black" points="324.8,-252.563 314.251,-251.585 321.888,-258.928 324.8,-252.563"/>
</g>
<!-- bib -->
<g id="node11" class="node"><title>bib</title>
<polygon fill="none" stroke="black" points="611,-252 557,-252 557,-216 611,-216 611,-252"/>
<text text-anchor="middle" x="584" y="-230.3" font-family="Times,serif" font-size="14.00">Bibtex</text>
</g>
<!-- study&#45;&gt;bib -->
<g id="edge7" class="edge"><title>study&#45;&gt;bib</title>
<path fill="none" stroke="black" d="M468.428,-287.876C492.483,-276.871 523.583,-262.642 547.462,-251.717"/>
<polygon fill="black" stroke="black" points="548.918,-254.899 556.556,-247.556 546.006,-248.534 548.918,-254.899"/>
</g>
<!-- nomencl -->
<g id="node8" class="node"><title>nomencl</title>
<polygon fill="none" stroke="black" points="98.25,-180 -0.25,-180 -0.25,-144 98.25,-144 98.25,-180"/>
<text text-anchor="middle" x="49" y="-158.3" font-family="Times,serif" font-size="14.00">Nomenclatrues</text>
</g>
<!-- gls&#45;&gt;nomencl -->
<g id="edge8" class="edge"><title>gls&#45;&gt;nomencl</title>
<path fill="none" stroke="black" d="M241.714,-221.908C205.794,-210.928 150.203,-193.935 107.941,-181.017"/>
<polygon fill="black" stroke="black" points="108.909,-177.653 98.323,-178.077 106.863,-184.347 108.909,-177.653"/>
</g>
<!-- acro -->
<g id="node9" class="node"><title>acro</title>
<polygon fill="none" stroke="black" points="209,-180 135,-180 135,-144 209,-144 209,-180"/>
<text text-anchor="middle" x="172" y="-158.3" font-family="Times,serif" font-size="14.00">Acronyms</text>
</g>
<!-- gls&#45;&gt;acro -->
<g id="edge9" class="edge"><title>gls&#45;&gt;acro</title>
<path fill="none" stroke="black" d="M252.069,-215.876C238.338,-206.808 221.294,-195.552 206.464,-185.759"/>
<polygon fill="black" stroke="black" points="208.304,-182.78 198.03,-180.19 204.446,-188.621 208.304,-182.78"/>
</g>
<!-- symbol -->
<g id="node10" class="node"><title>symbol</title>
<polygon fill="none" stroke="black" points="310.25,-180 245.75,-180 245.75,-144 310.25,-144 310.25,-180"/>
<text text-anchor="middle" x="278" y="-158.3" font-family="Times,serif" font-size="14.00">Symbols</text>
</g>
<!-- gls&#45;&gt;symbol -->
<g id="edge10" class="edge"><title>gls&#45;&gt;symbol</title>
<path fill="none" stroke="black" d="M278,-215.697C278,-207.983 278,-198.712 278,-190.112"/>
<polygon fill="black" stroke="black" points="281.5,-190.104 278,-180.104 274.5,-190.104 281.5,-190.104"/>
</g>
<!-- abbreviation -->
<g id="node15" class="node"><title>abbreviation</title>
<polygon fill="none" stroke="black" points="430.5,-180 347.5,-180 347.5,-144 430.5,-144 430.5,-180"/>
<text text-anchor="middle" x="389" y="-158.3" font-family="Times,serif" font-size="14.00">abbreviation</text>
</g>
<!-- gls&#45;&gt;abbreviation -->
<g id="edge15" class="edge"><title>gls&#45;&gt;abbreviation</title>
<path fill="none" stroke="black" d="M305.154,-215.876C319.533,-206.808 337.381,-195.552 352.91,-185.759"/>
<polygon fill="black" stroke="black" points="355.15,-188.484 361.742,-180.19 351.416,-182.564 355.15,-188.484"/>
</g>
<!-- glsfile -->
<g id="node12" class="node"><title>glsfile</title>
<polygon fill="none" stroke="black" points="271.25,-108 178.75,-108 178.75,-72 271.25,-72 271.25,-108"/>
<text text-anchor="middle" x="225" y="-86.3" font-family="Times,serif" font-size="14.00">Glossaries.tex</text>
</g>
<!-- nomencl&#45;&gt;glsfile -->
<g id="edge11" class="edge"><title>nomencl&#45;&gt;glsfile</title>
<path fill="none" stroke="black" d="M92.0544,-143.876C116.329,-134.222 146.84,-122.087 172.508,-111.878"/>
<polygon fill="black" stroke="black" points="174.087,-115.016 182.085,-108.068 171.5,-108.512 174.087,-115.016"/>
</g>
<!-- acro&#45;&gt;glsfile -->
<g id="edge12" class="edge"><title>acro&#45;&gt;glsfile</title>
<path fill="none" stroke="black" d="M185.101,-143.697C191.391,-135.389 199.047,-125.277 205.965,-116.141"/>
<polygon fill="black" stroke="black" points="208.804,-118.19 212.05,-108.104 203.223,-113.964 208.804,-118.19"/>
</g>
<!-- symbol&#45;&gt;glsfile -->
<g id="edge13" class="edge"><title>symbol&#45;&gt;glsfile</title>
<path fill="none" stroke="black" d="M264.899,-143.697C258.609,-135.389 250.953,-125.277 244.035,-116.141"/>
<polygon fill="black" stroke="black" points="246.777,-113.964 237.95,-108.104 241.196,-118.19 246.777,-113.964"/>
</g>
<!-- Papers -->
<g id="node17" class="node"><title>Papers</title>
<polygon fill="none" stroke="black" points="521,-180 467,-180 467,-144 521,-144 521,-180"/>
<text text-anchor="middle" x="494" y="-158.3" font-family="Times,serif" font-size="14.00">Papers</text>
</g>
<!-- bib&#45;&gt;Papers -->
<g id="edge17" class="edge"><title>bib&#45;&gt;Papers</title>
<path fill="none" stroke="black" d="M561.753,-215.697C550.418,-206.881 536.47,-196.032 524.181,-186.474"/>
<polygon fill="black" stroke="black" points="526.034,-183.481 515.991,-180.104 521.736,-189.007 526.034,-183.481"/>
</g>
<!-- Books -->
<g id="node18" class="node"><title>Books</title>
<polygon fill="none" stroke="black" points="611,-180 557,-180 557,-144 611,-144 611,-180"/>
<text text-anchor="middle" x="584" y="-158.3" font-family="Times,serif" font-size="14.00">Books</text>
</g>
<!-- bib&#45;&gt;Books -->
<g id="edge18" class="edge"><title>bib&#45;&gt;Books</title>
<path fill="none" stroke="black" d="M584,-215.697C584,-207.983 584,-198.712 584,-190.112"/>
<polygon fill="black" stroke="black" points="587.5,-190.104 584,-180.104 580.5,-190.104 587.5,-190.104"/>
</g>
<!-- Software -->
<g id="node19" class="node"><title>Software</title>
<polygon fill="none" stroke="black" points="712.25,-180 647.75,-180 647.75,-144 712.25,-144 712.25,-180"/>
<text text-anchor="middle" x="680" y="-158.3" font-family="Times,serif" font-size="14.00">Software</text>
</g>
<!-- bib&#45;&gt;Software -->
<g id="edge19" class="edge"><title>bib&#45;&gt;Software</title>
<path fill="none" stroke="black" d="M607.73,-215.697C619.937,-206.796 634.985,-195.823 648.184,-186.199"/>
<polygon fill="black" stroke="black" points="650.525,-188.824 656.543,-180.104 646.4,-183.168 650.525,-188.824"/>
</g>
<!-- Data -->
<g id="node20" class="node"><title>Data</title>
<polygon fill="none" stroke="black" points="803,-180 749,-180 749,-144 803,-144 803,-180"/>
<text text-anchor="middle" x="776" y="-158.3" font-family="Times,serif" font-size="14.00">Data</text>
</g>
<!-- bib&#45;&gt;Data -->
<g id="edge20" class="edge"><title>bib&#45;&gt;Data</title>
<path fill="none" stroke="black" d="M611.102,-223.119C644.598,-210.907 701.746,-190.072 739.191,-176.42"/>
<polygon fill="black" stroke="black" points="740.53,-179.657 748.726,-172.944 738.132,-173.081 740.53,-179.657"/>
</g>
<!-- main -->
<g id="node14" class="node"><title>main</title>
<polygon fill="none" stroke="black" points="463.25,-36 398.75,-36 398.75,-0 463.25,-0 463.25,-36"/>
<text text-anchor="middle" x="431" y="-14.3" font-family="Times,serif" font-size="14.00">main.tex</text>
</g>
<!-- glsfile&#45;&gt;main -->
<g id="edge14" class="edge"><title>glsfile&#45;&gt;main</title>
<path fill="none" stroke="black" d="M271.487,-73.2034C306.697,-61.2388 354.668,-44.9381 388.785,-33.345"/>
<polygon fill="black" stroke="black" points="390.115,-36.5896 398.457,-30.0582 387.863,-29.9618 390.115,-36.5896"/>
</g>
<!-- bibfile -->
<g id="node13" class="node"><title>bibfile</title>
<polygon fill="none" stroke="black" points="632,-108 536,-108 536,-72 632,-72 632,-108"/>
<text text-anchor="middle" x="584" y="-86.3" font-family="Times,serif" font-size="14.00">Literatures.bib</text>
</g>
<!-- bibfile&#45;&gt;main -->
<g id="edge25" class="edge"><title>bibfile&#45;&gt;main</title>
<path fill="none" stroke="black" d="M546.572,-71.8761C524.179,-61.6307 495.679,-48.5919 472.585,-38.0258"/>
<polygon fill="black" stroke="black" points="473.927,-34.7909 463.377,-33.8131 471.015,-41.1563 473.927,-34.7909"/>
</g>
<!-- input -->
<g id="node16" class="node"><title>input</title>
<polygon fill="none" stroke="black" points="416,-108 362,-108 362,-72 416,-72 416,-108"/>
<text text-anchor="middle" x="389" y="-86.3" font-family="Times,serif" font-size="14.00">input</text>
</g>
<!-- abbreviation&#45;&gt;input -->
<g id="edge16" class="edge"><title>abbreviation&#45;&gt;input</title>
<path fill="none" stroke="black" d="M389,-143.697C389,-135.983 389,-126.712 389,-118.112"/>
<polygon fill="black" stroke="black" points="392.5,-118.104 389,-108.104 385.5,-118.104 392.5,-118.104"/>
</g>
<!-- Papers&#45;&gt;bibfile -->
<g id="edge21" class="edge"><title>Papers&#45;&gt;bibfile</title>
<path fill="none" stroke="black" d="M516.247,-143.697C527.582,-134.881 541.53,-124.032 553.819,-114.474"/>
<polygon fill="black" stroke="black" points="556.264,-117.007 562.009,-108.104 551.966,-111.481 556.264,-117.007"/>
</g>
<!-- Books&#45;&gt;bibfile -->
<g id="edge22" class="edge"><title>Books&#45;&gt;bibfile</title>
<path fill="none" stroke="black" d="M584,-143.697C584,-135.983 584,-126.712 584,-118.112"/>
<polygon fill="black" stroke="black" points="587.5,-118.104 584,-108.104 580.5,-118.104 587.5,-118.104"/>
</g>
<!-- Software&#45;&gt;bibfile -->
<g id="edge23" class="edge"><title>Software&#45;&gt;bibfile</title>
<path fill="none" stroke="black" d="M656.27,-143.697C644.063,-134.796 629.015,-123.823 615.816,-114.199"/>
<polygon fill="black" stroke="black" points="617.6,-111.168 607.457,-108.104 613.475,-116.824 617.6,-111.168"/>
</g>
<!-- Data&#45;&gt;bibfile -->
<g id="edge24" class="edge"><title>Data&#45;&gt;bibfile</title>
<path fill="none" stroke="black" d="M748.898,-151.119C720.931,-140.923 676.473,-124.714 640.764,-111.695"/>
<polygon fill="black" stroke="black" points="641.539,-108.253 630.945,-108.116 639.142,-114.829 641.539,-108.253"/>
</g>
</g>
</svg>
