<?xml version="1.0" encoding="UTF-8" standalone="no"?>
<!DOCTYPE svg PUBLIC "-//W3C//DTD SVG 1.1//EN"
 "http://www.w3.org/Graphics/SVG/1.1/DTD/svg11.dtd">
<!-- Generated by graphviz version 2.36.0 (20140111.2315)
 -->
<!-- Title: %3 Pages: 1 -->
<svg width="317pt" height="404pt"
 viewBox="0.00 0.00 317.00 404.00" xmlns="http://www.w3.org/2000/svg" xmlns:xlink="http://www.w3.org/1999/xlink">
<g id="graph0" class="graph" transform="scale(1 1) rotate(0) translate(4 400)">
<title>%3</title>
<polygon fill="white" stroke="none" points="-4,4 -4,-400 313,-400 313,4 -4,4"/>
<!-- gls -->
<g id="node1" class="node"><title>gls</title>
<polygon fill="none" stroke="black" points="173.25,-396 100.75,-396 100.75,-360 173.25,-360 173.25,-396"/>
<text text-anchor="middle" x="137" y="-374.3" font-family="Times,serif" font-size="14.00">Glossaries</text>
</g>
<!-- xml -->
<g id="node2" class="node"><title>xml</title>
<polygon fill="none" stroke="black" points="164,-328 110,-328 110,-292 164,-292 164,-328"/>
<text text-anchor="middle" x="137" y="-306.3" font-family="Times,serif" font-size="14.00">XML</text>
</g>
<!-- gls&#45;&gt;xml -->
<g id="edge1" class="edge"><title>gls&#45;&gt;xml</title>
<path fill="none" stroke="black" d="M137,-359.659C137,-353.193 137,-345.682 137,-338.525"/>
<polygon fill="black" stroke="black" points="140.5,-338.454 137,-328.454 133.5,-338.454 140.5,-338.454"/>
<text text-anchor="middle" x="169.5" y="-340.3" font-family="Times,serif" font-size="14.00"> web scrape</text>
</g>
<!-- df0 -->
<g id="node3" class="node"><title>df0</title>
<polygon fill="none" stroke="blue" points="101.25,-246 22.75,-246 22.75,-208 101.25,-208 101.25,-246"/>
<text text-anchor="middle" x="62" y="-230.8" font-family="Times,serif" font-size="14.00">data.frame </text>
<text text-anchor="middle" x="62" y="-215.8" font-family="Times,serif" font-size="14.00"> raw</text>
</g>
<!-- xml&#45;&gt;df0 -->
<g id="edge2" class="edge"><title>xml&#45;&gt;df0</title>
<path fill="none" stroke="black" d="M121.094,-291.822C110.839,-280.746 97.3153,-266.14 85.7933,-253.697"/>
<polygon fill="black" stroke="black" points="88.2873,-251.239 78.925,-246.279 83.1509,-255.995 88.2873,-251.239"/>
<text text-anchor="middle" x="124.5" y="-265.3" font-family="Times,serif" font-size="14.00"> web scrape</text>
</g>
<!-- orgTable0 -->
<g id="node6" class="node"><title>orgTable0</title>
<polygon fill="none" stroke="black" points="248,-246 180,-246 180,-208 248,-208 248,-246"/>
<text text-anchor="middle" x="214" y="-230.8" font-family="Times,serif" font-size="14.00">org table </text>
<text text-anchor="middle" x="214" y="-215.8" font-family="Times,serif" font-size="14.00"> raw </text>
</g>
<!-- xml&#45;&gt;orgTable0 -->
<g id="edge3" class="edge"><title>xml&#45;&gt;orgTable0</title>
<path fill="none" stroke="black" d="M153.33,-291.822C163.858,-280.746 177.743,-266.14 189.572,-253.697"/>
<polygon fill="black" stroke="black" points="192.271,-255.938 196.624,-246.279 187.197,-251.115 192.271,-255.938"/>
<text text-anchor="middle" x="218" y="-272.8" font-family="Times,serif" font-size="14.00"> paste </text>
<text text-anchor="middle" x="218" y="-257.8" font-family="Times,serif" font-size="14.00">&amp; convert</text>
</g>
<!-- df0&#45;&gt;orgTable0 -->
<g id="edge4" class="edge"><title>df0&#45;&gt;orgTable0</title>
<path fill="none" stroke="black" d="M101.539,-227C122.403,-227 148.071,-227 169.615,-227"/>
<polygon fill="black" stroke="black" points="169.82,-230.5 179.82,-227 169.82,-223.5 169.82,-230.5"/>
<text text-anchor="middle" x="140.5" y="-233.8" font-family="Times,serif" font-size="14.00"> R:print</text>
</g>
<!-- df1 -->
<g id="node4" class="node"><title>df1</title>
<polygon fill="none" stroke="blue" points="259,-162 169,-162 169,-124 259,-124 259,-162"/>
<text text-anchor="middle" x="214" y="-146.8" font-family="Times,serif" font-size="14.00">data.frame </text>
<text text-anchor="middle" x="214" y="-131.8" font-family="Times,serif" font-size="14.00"> unduplicated</text>
</g>
<!-- df2 -->
<g id="node5" class="node"><title>df2</title>
<polygon fill="none" stroke="blue" points="229.25,-92 150.75,-92 150.75,-54 229.25,-54 229.25,-92"/>
<text text-anchor="middle" x="190" y="-76.8" font-family="Times,serif" font-size="14.00">data.frame </text>
<text text-anchor="middle" x="190" y="-61.8" font-family="Times,serif" font-size="14.00"> latex</text>
</g>
<!-- glsfile -->
<g id="node9" class="node"><title>glsfile</title>
<polygon fill="none" stroke="black" points="236.25,-36 143.75,-36 143.75,-0 236.25,-0 236.25,-36"/>
<text text-anchor="middle" x="190" y="-14.3" font-family="Times,serif" font-size="14.00">Glossaries.tex</text>
</g>
<!-- df2&#45;&gt;glsfile -->
<g id="edge9" class="edge"><title>df2&#45;&gt;glsfile</title>
<path fill="none" stroke="black" d="M190,-53.7604C190,-51.335 190,-48.807 190,-46.2696"/>
<polygon fill="black" stroke="black" points="193.5,-46.0247 190,-36.0247 186.5,-46.0248 193.5,-46.0247"/>
</g>
<!-- orgTable0&#45;&gt;df1 -->
<g id="edge5" class="edge"><title>orgTable0&#45;&gt;df1</title>
<path fill="none" stroke="black" d="M214,-207.802C214,-197.398 214,-184.122 214,-172.377"/>
<polygon fill="black" stroke="black" points="217.5,-172.148 214,-162.148 210.5,-172.148 217.5,-172.148"/>
<text text-anchor="start" x="214" y="-188.8" font-family="Times,serif" font-size="14.00"> R:!duplicate(df) </text>
<text text-anchor="middle" x="261.5" y="-173.8" font-family="Times,serif" font-size="14.00"> babel:var</text>
</g>
<!-- orgTable1 -->
<g id="node7" class="node"><title>orgTable1</title>
<polygon fill="none" stroke="black" points="90,-162 0,-162 0,-124 90,-124 90,-162"/>
<text text-anchor="middle" x="45" y="-146.8" font-family="Times,serif" font-size="14.00">org table </text>
<text text-anchor="middle" x="45" y="-131.8" font-family="Times,serif" font-size="14.00"> unduplicated</text>
</g>
<!-- orgTable1&#45;&gt;df1 -->
<g id="edge6" class="edge"><title>orgTable1&#45;&gt;df1</title>
<path fill="none" stroke="black" d="M100.559,-143C122.712,-143 147.885,-143 168.879,-143"/>
<polygon fill="black" stroke="black" points="100.289,-139.5 90.2889,-143 100.289,-146.5 100.289,-139.5"/>
<text text-anchor="middle" x="129.5" y="-149.8" font-family="Times,serif" font-size="14.00"> R:print</text>
</g>
<!-- orgTable2 -->
<g id="node8" class="node"><title>orgTable2</title>
<polygon fill="none" stroke="black" points="79,-92 11,-92 11,-54 79,-54 79,-92"/>
<text text-anchor="middle" x="45" y="-76.8" font-family="Times,serif" font-size="14.00">org table </text>
<text text-anchor="middle" x="45" y="-61.8" font-family="Times,serif" font-size="14.00"> latex</text>
</g>
<!-- orgTable1&#45;&gt;orgTable2 -->
<g id="edge7" class="edge"><title>orgTable1&#45;&gt;orgTable2</title>
<path fill="none" stroke="black" d="M45,-123.777C45,-117.222 45,-109.662 45,-102.444"/>
<polygon fill="black" stroke="black" points="48.5001,-102.273 45,-92.2731 41.5001,-102.273 48.5001,-102.273"/>
<text text-anchor="middle" x="80" y="-104.3" font-family="Times,serif" font-size="14.00"> Self Editing</text>
</g>
<!-- orgTable2&#45;&gt;df2 -->
<g id="edge8" class="edge"><title>orgTable2&#45;&gt;df2</title>
<path fill="none" stroke="black" d="M79.363,-73C97.5485,-73 120.209,-73 140.278,-73"/>
<polygon fill="black" stroke="black" points="140.499,-76.5001 150.499,-73 140.499,-69.5001 140.499,-76.5001"/>
<text text-anchor="middle" x="114.75" y="-79.8" font-family="Times,serif" font-size="14.00">:var</text>
</g>
</g>
</svg>
