<?xml version="1.0" encoding="UTF-8" standalone="no"?>
<!DOCTYPE svg PUBLIC "-//W3C//DTD SVG 1.1//EN"
 "http://www.w3.org/Graphics/SVG/1.1/DTD/svg11.dtd">
<!-- Generated by graphviz version 2.36.0 (20140111.2315)
 -->
<!-- Title: %3 Pages: 1 -->
<svg width="373pt" height="320pt"
 viewBox="0.00 0.00 373.00 320.00" xmlns="http://www.w3.org/2000/svg" xmlns:xlink="http://www.w3.org/1999/xlink">
<g id="graph0" class="graph" transform="scale(1 1) rotate(0) translate(4 316)">
<title>%3</title>
<polygon fill="white" stroke="none" points="-4,4 -4,-316 369,-316 369,4 -4,4"/>
<!-- gls -->
<g id="node1" class="node"><title>gls</title>
<polygon fill="none" stroke="black" points="162.25,-312 89.75,-312 89.75,-276 162.25,-276 162.25,-312"/>
<text text-anchor="middle" x="126" y="-290.3" font-family="Times,serif" font-size="14.00">Glossaries</text>
</g>
<!-- xml -->
<g id="node2" class="node"><title>xml</title>
<polygon fill="none" stroke="black" points="153,-244 99,-244 99,-208 153,-208 153,-244"/>
<text text-anchor="middle" x="126" y="-222.3" font-family="Times,serif" font-size="14.00">XML</text>
</g>
<!-- gls&#45;&gt;xml -->
<g id="edge1" class="edge"><title>gls&#45;&gt;xml</title>
<path fill="none" stroke="black" d="M126,-275.659C126,-269.193 126,-261.682 126,-254.525"/>
<polygon fill="black" stroke="black" points="129.5,-254.454 126,-244.454 122.5,-254.454 129.5,-254.454"/>
<text text-anchor="middle" x="158.5" y="-256.3" font-family="Times,serif" font-size="14.00"> web scrape</text>
</g>
<!-- df0 -->
<g id="node3" class="node"><title>df0</title>
<polygon fill="none" stroke="black" points="74.25,-161 -0.25,-161 -0.25,-125 74.25,-125 74.25,-161"/>
<text text-anchor="middle" x="37" y="-139.3" font-family="Times,serif" font-size="14.00">data.frame</text>
</g>
<!-- xml&#45;&gt;df0 -->
<g id="edge2" class="edge"><title>xml&#45;&gt;df0</title>
<path fill="none" stroke="black" d="M107.125,-207.822C94.3817,-196.224 77.3848,-180.755 63.3163,-167.951"/>
<polygon fill="black" stroke="black" points="65.5989,-165.296 55.8474,-161.153 60.8873,-170.473 65.5989,-165.296"/>
<text text-anchor="middle" x="120.5" y="-181.3" font-family="Times,serif" font-size="14.00"> web scrape</text>
</g>
<!-- orgTable -->
<g id="node6" class="node"><title>orgTable</title>
<polygon fill="none" stroke="black" points="269,-162 165,-162 165,-124 269,-124 269,-162"/>
<text text-anchor="middle" x="217" y="-146.8" font-family="Times,serif" font-size="14.00">org&#45;mode table </text>
<text text-anchor="middle" x="217" y="-131.8" font-family="Times,serif" font-size="14.00"> sort: C&#45;c ^ </text>
</g>
<!-- xml&#45;&gt;orgTable -->
<g id="edge3" class="edge"><title>xml&#45;&gt;orgTable</title>
<path fill="none" stroke="black" d="M145.299,-207.822C157.977,-196.537 174.771,-181.588 188.92,-168.995"/>
<polygon fill="black" stroke="black" points="191.322,-171.542 196.464,-162.279 186.668,-166.313 191.322,-171.542"/>
<text text-anchor="middle" x="218" y="-188.8" font-family="Times,serif" font-size="14.00"> paste </text>
<text text-anchor="middle" x="218" y="-173.8" font-family="Times,serif" font-size="14.00">&amp; convert</text>
</g>
<!-- df0&#45;&gt;orgTable -->
<g id="edge4" class="edge"><title>df0&#45;&gt;orgTable</title>
<path fill="none" stroke="black" d="M74.3703,-130.142C82.0936,-128.005 90.2409,-126.121 98,-125 116.496,-122.328 136.593,-123.72 154.914,-126.663"/>
<polygon fill="black" stroke="black" points="154.43,-130.131 164.889,-128.441 155.659,-123.24 154.43,-130.131"/>
<text text-anchor="middle" x="119.5" y="-128.8" font-family="Times,serif" font-size="14.00"> R:print</text>
</g>
<!-- df1 -->
<g id="node4" class="node"><title>df1</title>
<polygon fill="none" stroke="black" points="254.25,-92 179.75,-92 179.75,-56 254.25,-56 254.25,-92"/>
<text text-anchor="middle" x="217" y="-70.3" font-family="Times,serif" font-size="14.00">data.frame</text>
</g>
<!-- org2 -->
<g id="node7" class="node"><title>org2</title>
<polygon fill="none" stroke="black" points="269,-38 165,-38 165,-0 269,-0 269,-38"/>
<text text-anchor="middle" x="217" y="-22.8" font-family="Times,serif" font-size="14.00">org&#45;mode table </text>
<text text-anchor="middle" x="217" y="-7.8" font-family="Times,serif" font-size="14.00"> sort: C&#45;c ^ </text>
</g>
<!-- df1&#45;&gt;org2 -->
<g id="edge7" class="edge"><title>df1&#45;&gt;org2</title>
<path fill="none" stroke="black" d="M217,-55.9387C217,-53.4498 217,-50.833 217,-48.1938"/>
<polygon fill="black" stroke="black" points="220.5,-48.126 217,-38.1261 213.5,-48.1261 220.5,-48.126"/>
</g>
<!-- df2 -->
<g id="node5" class="node"><title>df2</title>
<polygon fill="none" stroke="black" points="273.25,-312 198.75,-312 198.75,-276 273.25,-276 273.25,-312"/>
<text text-anchor="middle" x="236" y="-290.3" font-family="Times,serif" font-size="14.00">data.frame</text>
</g>
<!-- orgTable&#45;&gt;df0 -->
<g id="edge5" class="edge"><title>orgTable&#45;&gt;df0</title>
<path fill="none" stroke="black" d="M164.736,-143C139.397,-143 109.184,-143 84.5039,-143"/>
<polygon fill="black" stroke="black" points="84.2962,-139.5 74.2961,-143 84.2961,-146.5 84.2962,-139.5"/>
<text text-anchor="middle" x="119.5" y="-149.8" font-family="Times,serif" font-size="14.00"> babel:var</text>
</g>
<!-- orgTable&#45;&gt;df1 -->
<g id="edge6" class="edge"><title>orgTable&#45;&gt;df1</title>
<path fill="none" stroke="black" d="M217,-123.692C217,-117.132 217,-109.586 217,-102.423"/>
<polygon fill="black" stroke="black" points="220.5,-102.363 217,-92.3631 213.5,-102.363 220.5,-102.363"/>
<text text-anchor="middle" x="262.5" y="-104.3" font-family="Times,serif" font-size="14.00"> R:!duplicate(df)</text>
</g>
<!-- edit -->
<g id="node8" class="node"><title>edit</title>
<polygon fill="none" stroke="black" points="364.5,-312 309.5,-312 309.5,-276 364.5,-276 364.5,-312"/>
<text text-anchor="middle" x="337" y="-290.3" font-family="Times,serif" font-size="14.00">Editing</text>
</g>
</g>
</svg>
