<?xml version="1.0" encoding="UTF-8" standalone="no"?>
<!DOCTYPE svg PUBLIC "-//W3C//DTD SVG 1.1//EN"
 "http://www.w3.org/Graphics/SVG/1.1/DTD/svg11.dtd">
<!-- Generated by graphviz version 2.36.0 (20140111.2315)
 -->
<!-- Title: %3 Pages: 1 -->
<svg width="258pt" height="112pt"
 viewBox="0.00 0.00 258.00 112.00" xmlns="http://www.w3.org/2000/svg" xmlns:xlink="http://www.w3.org/1999/xlink">
<g id="graph0" class="graph" transform="scale(1 1) rotate(0) translate(4 108)">
<title>%3</title>
<polygon fill="white" stroke="none" points="-4,4 -4,-108 254,-108 254,4 -4,4"/>
<!-- xml -->
<g id="node1" class="node"><title>xml</title>
<polygon fill="none" stroke="black" points="144,-104 90,-104 90,-68 144,-68 144,-104"/>
<text text-anchor="middle" x="117" y="-82.3" font-family="Times,serif" font-size="14.00">XML</text>
</g>
<!-- df0 -->
<g id="node2" class="node"><title>df0</title>
<polygon fill="none" stroke="black" points="74.25,-36 -0.25,-36 -0.25,-0 74.25,-0 74.25,-36"/>
<text text-anchor="middle" x="37" y="-14.3" font-family="Times,serif" font-size="14.00">data.frame</text>
</g>
<!-- xml&#45;&gt;df0 -->
<g id="edge1" class="edge"><title>xml&#45;&gt;df0</title>
<path fill="none" stroke="black" d="M95.9809,-67.6593C86.7026,-60.0046 75.6504,-50.8866 65.635,-42.6238"/>
<polygon fill="black" stroke="black" points="67.8198,-39.889 57.8787,-36.2249 63.3651,-45.2886 67.8198,-39.889"/>
<text text-anchor="middle" x="107.5" y="-48.3" font-family="Times,serif" font-size="14.00">web scrape</text>
</g>
<!-- orgTable -->
<g id="node3" class="node"><title>orgTable</title>
<polygon fill="none" stroke="black" points="250,-36 146,-36 146,-0 250,-0 250,-36"/>
<text text-anchor="middle" x="198" y="-14.3" font-family="Times,serif" font-size="14.00">org&#45;mode Table</text>
</g>
<!-- xml&#45;&gt;orgTable -->
<g id="edge2" class="edge"><title>xml&#45;&gt;orgTable</title>
<path fill="none" stroke="black" d="M138.282,-67.6593C147.676,-60.0046 158.866,-50.8866 169.007,-42.6238"/>
<polygon fill="black" stroke="black" points="171.319,-45.255 176.86,-36.2249 166.897,-39.8283 171.319,-45.255"/>
<text text-anchor="middle" x="182" y="-48.3" font-family="Times,serif" font-size="14.00">paste</text>
</g>
<!-- df0&#45;&gt;orgTable -->
<g id="edge3" class="edge"><title>df0&#45;&gt;orgTable</title>
<path fill="none" stroke="black" d="M74.3413,-18C92.6223,-18 115.119,-18 135.89,-18"/>
<polygon fill="black" stroke="black" points="135.923,-21.5001 145.922,-18 135.922,-14.5001 135.923,-21.5001"/>
<text text-anchor="middle" x="110" y="-24.8" font-family="Times,serif" font-size="14.00">R</text>
</g>
</g>
</svg>
