<?xml version="1.0" encoding="UTF-8" standalone="no"?>
<!DOCTYPE svg PUBLIC "-//W3C//DTD SVG 1.1//EN"
 "http://www.w3.org/Graphics/SVG/1.1/DTD/svg11.dtd">
<!-- Generated by graphviz version 2.36.0 (20140111.2315)
 -->
<!-- Title: %3 Pages: 1 -->
<svg width="363pt" height="472pt"
 viewBox="0.00 0.00 363.00 472.00" xmlns="http://www.w3.org/2000/svg" xmlns:xlink="http://www.w3.org/1999/xlink">
<g id="graph0" class="graph" transform="scale(1 1) rotate(0) translate(4 468)">
<title>%3</title>
<polygon fill="white" stroke="none" points="-4,4 -4,-468 359,-468 359,4 -4,4"/>
<!-- gls -->
<g id="node1" class="node"><title>gls</title>
<polygon fill="none" stroke="black" points="208.25,-464 135.75,-464 135.75,-428 208.25,-428 208.25,-464"/>
<text text-anchor="middle" x="172" y="-442.3" font-family="Times,serif" font-size="14.00">Glossaries</text>
</g>
<!-- nomencl -->
<g id="node2" class="node"><title>nomencl</title>
<polygon fill="none" stroke="black" points="98.25,-396 -0.25,-396 -0.25,-360 98.25,-360 98.25,-396"/>
<text text-anchor="middle" x="49" y="-374.3" font-family="Times,serif" font-size="14.00">Nomenclatrues</text>
</g>
<!-- gls&#45;&gt;nomencl -->
<g id="edge1" class="edge"><title>gls&#45;&gt;nomencl</title>
<path fill="none" stroke="black" d="M140.004,-427.832C124.629,-419.582 106.03,-409.602 89.6637,-400.82"/>
<polygon fill="black" stroke="black" points="91.302,-397.727 80.8355,-396.082 87.9923,-403.895 91.302,-397.727"/>
<text text-anchor="middle" x="126.5" y="-408.3" font-family="Times,serif" font-size="14.00"> web scrape</text>
</g>
<!-- acro -->
<g id="node3" class="node"><title>acro</title>
<polygon fill="none" stroke="black" points="209,-396 135,-396 135,-360 209,-360 209,-396"/>
<text text-anchor="middle" x="172" y="-374.3" font-family="Times,serif" font-size="14.00">Acronyms</text>
</g>
<!-- gls&#45;&gt;acro -->
<g id="edge2" class="edge"><title>gls&#45;&gt;acro</title>
<path fill="none" stroke="black" d="M172,-427.659C172,-421.193 172,-413.682 172,-406.525"/>
<polygon fill="black" stroke="black" points="175.5,-406.454 172,-396.454 168.5,-406.454 175.5,-406.454"/>
<text text-anchor="middle" x="200.5" y="-408.3" font-family="Times,serif" font-size="14.00"> web scrape</text>
</g>
<!-- symbol -->
<g id="node4" class="node"><title>symbol</title>
<polygon fill="none" stroke="black" points="310.25,-396 245.75,-396 245.75,-360 310.25,-360 310.25,-396"/>
<text text-anchor="middle" x="278" y="-374.3" font-family="Times,serif" font-size="14.00">Symbols</text>
</g>
<!-- gls&#45;&gt;symbol -->
<g id="edge3" class="edge"><title>gls&#45;&gt;symbol</title>
<path fill="none" stroke="black" d="M199.574,-427.832C212.455,-419.811 227.964,-410.155 241.777,-401.554"/>
<polygon fill="black" stroke="black" points="243.926,-404.339 250.565,-396.082 240.226,-398.397 243.926,-404.339"/>
<text text-anchor="middle" x="285.5" y="-408.3" font-family="Times,serif" font-size="14.00"> web scrape</text>
</g>
<!-- xml -->
<g id="node5" class="node"><title>xml</title>
<polygon fill="none" stroke="black" points="199,-328 145,-328 145,-292 199,-292 199,-328"/>
<text text-anchor="middle" x="172" y="-306.3" font-family="Times,serif" font-size="14.00">XML</text>
</g>
<!-- nomencl&#45;&gt;xml -->
<g id="edge4" class="edge"><title>nomencl&#45;&gt;xml</title>
<path fill="none" stroke="black" d="M80.9957,-359.832C97.692,-350.873 118.19,-339.873 135.503,-330.584"/>
<polygon fill="black" stroke="black" points="137.592,-333.435 144.749,-325.623 134.282,-327.267 137.592,-333.435"/>
<text text-anchor="middle" x="126.5" y="-340.3" font-family="Times,serif" font-size="14.00"> web scrape</text>
</g>
<!-- acro&#45;&gt;xml -->
<g id="edge5" class="edge"><title>acro&#45;&gt;xml</title>
<path fill="none" stroke="black" d="M172,-359.659C172,-353.193 172,-345.682 172,-338.525"/>
<polygon fill="black" stroke="black" points="175.5,-338.454 172,-328.454 168.5,-338.454 175.5,-338.454"/>
<text text-anchor="middle" x="200.5" y="-340.3" font-family="Times,serif" font-size="14.00"> web scrape</text>
</g>
<!-- symbol&#45;&gt;xml -->
<g id="edge6" class="edge"><title>symbol&#45;&gt;xml</title>
<path fill="none" stroke="black" d="M250.426,-359.832C237.444,-351.748 221.794,-342.004 207.9,-333.353"/>
<polygon fill="black" stroke="black" points="209.408,-330.169 199.069,-327.854 205.708,-336.111 209.408,-330.169"/>
<text text-anchor="middle" x="285.5" y="-340.3" font-family="Times,serif" font-size="14.00"> web scrape</text>
</g>
<!-- df0 -->
<g id="node6" class="node"><title>df0</title>
<polygon fill="none" stroke="blue" points="147.25,-246 68.75,-246 68.75,-208 147.25,-208 147.25,-246"/>
<text text-anchor="middle" x="108" y="-230.8" font-family="Times,serif" font-size="14.00">data.frame </text>
<text text-anchor="middle" x="108" y="-215.8" font-family="Times,serif" font-size="14.00"> raw</text>
</g>
<!-- xml&#45;&gt;df0 -->
<g id="edge7" class="edge"><title>xml&#45;&gt;df0</title>
<path fill="none" stroke="black" d="M158.427,-291.822C149.841,-280.955 138.57,-266.69 128.862,-254.403"/>
<polygon fill="black" stroke="black" points="131.388,-251.955 122.443,-246.279 125.896,-256.295 131.388,-251.955"/>
<text text-anchor="middle" x="170.5" y="-265.3" font-family="Times,serif" font-size="14.00"> web scrape</text>
</g>
<!-- orgTable0 -->
<g id="node9" class="node"><title>orgTable0</title>
<polygon fill="none" stroke="black" points="294,-246 226,-246 226,-208 294,-208 294,-246"/>
<text text-anchor="middle" x="260" y="-230.8" font-family="Times,serif" font-size="14.00">org table </text>
<text text-anchor="middle" x="260" y="-215.8" font-family="Times,serif" font-size="14.00"> raw </text>
</g>
<!-- xml&#45;&gt;orgTable0 -->
<g id="edge8" class="edge"><title>xml&#45;&gt;orgTable0</title>
<path fill="none" stroke="black" d="M190.663,-291.822C202.809,-280.642 218.863,-265.865 232.465,-253.345"/>
<polygon fill="black" stroke="black" points="235.154,-255.627 240.141,-246.279 230.413,-250.476 235.154,-255.627"/>
<text text-anchor="middle" x="263" y="-272.8" font-family="Times,serif" font-size="14.00"> paste </text>
<text text-anchor="middle" x="263" y="-257.8" font-family="Times,serif" font-size="14.00">&amp; convert</text>
</g>
<!-- df0&#45;&gt;orgTable0 -->
<g id="edge9" class="edge"><title>df0&#45;&gt;orgTable0</title>
<path fill="none" stroke="black" d="M147.539,-227C168.403,-227 194.071,-227 215.615,-227"/>
<polygon fill="black" stroke="black" points="215.82,-230.5 225.82,-227 215.82,-223.5 215.82,-230.5"/>
<text text-anchor="middle" x="186.5" y="-233.8" font-family="Times,serif" font-size="14.00"> R:print</text>
</g>
<!-- df1 -->
<g id="node7" class="node"><title>df1</title>
<polygon fill="none" stroke="blue" points="305,-162 215,-162 215,-124 305,-124 305,-162"/>
<text text-anchor="middle" x="260" y="-146.8" font-family="Times,serif" font-size="14.00">data.frame </text>
<text text-anchor="middle" x="260" y="-131.8" font-family="Times,serif" font-size="14.00"> unduplicated</text>
</g>
<!-- df2 -->
<g id="node8" class="node"><title>df2</title>
<polygon fill="none" stroke="blue" points="275.25,-92 196.75,-92 196.75,-54 275.25,-54 275.25,-92"/>
<text text-anchor="middle" x="236" y="-76.8" font-family="Times,serif" font-size="14.00">data.frame </text>
<text text-anchor="middle" x="236" y="-61.8" font-family="Times,serif" font-size="14.00"> latex</text>
</g>
<!-- glsfile -->
<g id="node12" class="node"><title>glsfile</title>
<polygon fill="none" stroke="black" points="282.25,-36 189.75,-36 189.75,-0 282.25,-0 282.25,-36"/>
<text text-anchor="middle" x="236" y="-14.3" font-family="Times,serif" font-size="14.00">Glossaries.tex</text>
</g>
<!-- df2&#45;&gt;glsfile -->
<g id="edge14" class="edge"><title>df2&#45;&gt;glsfile</title>
<path fill="none" stroke="black" d="M236,-53.7604C236,-51.335 236,-48.807 236,-46.2696"/>
<polygon fill="black" stroke="black" points="239.5,-46.0247 236,-36.0247 232.5,-46.0248 239.5,-46.0247"/>
</g>
<!-- orgTable0&#45;&gt;df1 -->
<g id="edge10" class="edge"><title>orgTable0&#45;&gt;df1</title>
<path fill="none" stroke="black" d="M260,-207.802C260,-197.398 260,-184.122 260,-172.377"/>
<polygon fill="black" stroke="black" points="263.5,-172.148 260,-162.148 256.5,-172.148 263.5,-172.148"/>
<text text-anchor="start" x="260" y="-188.8" font-family="Times,serif" font-size="14.00"> R:!duplicate(df) </text>
<text text-anchor="middle" x="307.5" y="-173.8" font-family="Times,serif" font-size="14.00"> babel:var</text>
</g>
<!-- orgTable1 -->
<g id="node10" class="node"><title>orgTable1</title>
<polygon fill="none" stroke="black" points="136,-162 46,-162 46,-124 136,-124 136,-162"/>
<text text-anchor="middle" x="91" y="-146.8" font-family="Times,serif" font-size="14.00">org table </text>
<text text-anchor="middle" x="91" y="-131.8" font-family="Times,serif" font-size="14.00"> unduplicated</text>
</g>
<!-- orgTable1&#45;&gt;df1 -->
<g id="edge11" class="edge"><title>orgTable1&#45;&gt;df1</title>
<path fill="none" stroke="black" d="M146.559,-143C168.712,-143 193.885,-143 214.879,-143"/>
<polygon fill="black" stroke="black" points="146.289,-139.5 136.289,-143 146.289,-146.5 146.289,-139.5"/>
<text text-anchor="middle" x="175.5" y="-149.8" font-family="Times,serif" font-size="14.00"> R:print</text>
</g>
<!-- orgTable2 -->
<g id="node11" class="node"><title>orgTable2</title>
<polygon fill="none" stroke="black" points="125,-92 57,-92 57,-54 125,-54 125,-92"/>
<text text-anchor="middle" x="91" y="-76.8" font-family="Times,serif" font-size="14.00">org table </text>
<text text-anchor="middle" x="91" y="-61.8" font-family="Times,serif" font-size="14.00"> latex</text>
</g>
<!-- orgTable1&#45;&gt;orgTable2 -->
<g id="edge12" class="edge"><title>orgTable1&#45;&gt;orgTable2</title>
<path fill="none" stroke="black" d="M91,-123.777C91,-117.222 91,-109.662 91,-102.444"/>
<polygon fill="black" stroke="black" points="94.5001,-102.273 91,-92.2731 87.5001,-102.273 94.5001,-102.273"/>
<text text-anchor="middle" x="126" y="-104.3" font-family="Times,serif" font-size="14.00"> Self Editing</text>
</g>
<!-- orgTable2&#45;&gt;df2 -->
<g id="edge13" class="edge"><title>orgTable2&#45;&gt;df2</title>
<path fill="none" stroke="black" d="M125.363,-73C143.549,-73 166.209,-73 186.278,-73"/>
<polygon fill="black" stroke="black" points="186.499,-76.5001 196.499,-73 186.499,-69.5001 186.499,-76.5001"/>
<text text-anchor="middle" x="160.75" y="-79.8" font-family="Times,serif" font-size="14.00">:var</text>
</g>
</g>
</svg>
