<?xml version="1.0" encoding="UTF-8" standalone="no"?>
<!DOCTYPE svg PUBLIC "-//W3C//DTD SVG 1.1//EN"
 "http://www.w3.org/Graphics/SVG/1.1/DTD/svg11.dtd">
<!-- Generated by graphviz version 2.36.0 (20140111.2315)
 -->
<!-- Title: %3 Pages: 1 -->
<svg width="267pt" height="144pt"
 viewBox="0.00 0.00 267.00 144.00" xmlns="http://www.w3.org/2000/svg" xmlns:xlink="http://www.w3.org/1999/xlink">
<g id="graph0" class="graph" transform="scale(1 1) rotate(0) translate(4 140)">
<title>%3</title>
<polygon fill="white" stroke="none" points="-4,4 -4,-140 263,-140 263,4 -4,4"/>
<!-- xml -->
<g id="node1" class="node"><title>xml</title>
<polygon fill="none" stroke="black" points="79,-136 25,-136 25,-100 79,-100 79,-136"/>
<text text-anchor="middle" x="52" y="-114.3" font-family="Times,serif" font-size="14.00">XML</text>
</g>
<!-- df -->
<g id="node2" class="node"><title>df</title>
<polygon fill="none" stroke="black" points="89.25,-86 14.75,-86 14.75,-50 89.25,-50 89.25,-86"/>
<text text-anchor="middle" x="52" y="-64.3" font-family="Times,serif" font-size="14.00">data.frame</text>
</g>
<!-- xml&#45;&gt;df -->
<g id="edge1" class="edge"><title>xml&#45;&gt;df</title>
<path fill="none" stroke="black" d="M52,-99.9418C52,-98.6686 52,-97.3669 52,-96.0527"/>
<polygon fill="black" stroke="black" points="55.5001,-96.0032 52,-86.0032 48.5001,-96.0033 55.5001,-96.0032"/>
</g>
<!-- orgTable -->
<g id="node3" class="node"><title>orgTable</title>
<polygon fill="none" stroke="black" points="104,-36 0,-36 0,-0 104,-0 104,-36"/>
<text text-anchor="middle" x="52" y="-14.3" font-family="Times,serif" font-size="14.00">org&#45;mode Table</text>
</g>
<!-- df&#45;&gt;orgTable -->
<g id="edge2" class="edge"><title>df&#45;&gt;orgTable</title>
<path fill="none" stroke="black" d="M39.015,-49.9418C38.8211,-48.6686 38.6819,-47.3669 38.5975,-46.0527"/>
<polygon fill="black" stroke="black" points="42.0968,-46.1425 39.0234,-36.0032 35.1031,-45.846 42.0968,-46.1425"/>
</g>
<!-- tex -->
<g id="node4" class="node"><title>tex</title>
<polygon fill="none" stroke="black" points="194,-36 140,-36 140,-0 194,-0 194,-36"/>
<text text-anchor="middle" x="167" y="-14.3" font-family="Times,serif" font-size="14.00">tex</text>
</g>
<!-- df&#45;&gt;tex -->
<g id="edge4" class="edge"><title>df&#45;&gt;tex</title>
<path fill="none" stroke="black" d="M89.3372,-51.4158C102.403,-45.9623 117.059,-39.845 130.089,-34.4061"/>
<polygon fill="black" stroke="black" points="131.804,-37.4833 139.684,-30.4015 129.107,-31.0234 131.804,-37.4833"/>
</g>
<!-- orgTable&#45;&gt;df -->
<g id="edge3" class="edge"><title>orgTable&#45;&gt;df</title>
<path fill="none" stroke="black" d="M64.9766,-36.0032C65.1721,-37.2756 65.3128,-38.5768 65.3988,-39.8906"/>
<polygon fill="black" stroke="black" points="61.8994,-39.8063 64.985,-49.9418 68.8935,-40.0943 61.8994,-39.8063"/>
</g>
<!-- A -->
<g id="node5" class="node"><title>A</title>
<polygon fill="none" stroke="black" points="169,-136 115,-136 115,-100 169,-100 169,-136"/>
<text text-anchor="middle" x="142" y="-114.3" font-family="Times,serif" font-size="14.00">A</text>
</g>
<!-- B -->
<g id="node6" class="node"><title>B</title>
<polygon fill="none" stroke="black" points="259,-136 205,-136 205,-100 259,-100 259,-136"/>
<text text-anchor="middle" x="232" y="-114.3" font-family="Times,serif" font-size="14.00">B</text>
</g>
</g>
</svg>
