<?xml version="1.0" encoding="UTF-8" standalone="no"?>
<!DOCTYPE svg PUBLIC "-//W3C//DTD SVG 1.1//EN"
 "http://www.w3.org/Graphics/SVG/1.1/DTD/svg11.dtd">
<!-- Generated by graphviz version 2.36.0 (20140111.2315)
 -->
<!-- Title: %3 Pages: 1 -->
<svg width="434pt" height="352pt"
 viewBox="0.00 0.00 434.00 352.00" xmlns="http://www.w3.org/2000/svg" xmlns:xlink="http://www.w3.org/1999/xlink">
<g id="graph0" class="graph" transform="scale(1 1) rotate(0) translate(4 348)">
<title>%3</title>
<polygon fill="white" stroke="none" points="-4,4 -4,-348 430,-348 430,4 -4,4"/>
<!-- gls -->
<g id="node1" class="node"><title>gls</title>
<polygon fill="none" stroke="black" points="150.25,-343 77.75,-343 77.75,-307 150.25,-307 150.25,-343"/>
<text text-anchor="middle" x="114" y="-321.3" font-family="Times,serif" font-size="14.00">Glossaries</text>
</g>
<!-- xml -->
<g id="node2" class="node"><title>xml</title>
<polygon fill="none" stroke="black" points="141,-274 87,-274 87,-238 141,-238 141,-274"/>
<text text-anchor="middle" x="114" y="-252.3" font-family="Times,serif" font-size="14.00">XML</text>
</g>
<!-- gls&#45;&gt;xml -->
<g id="edge1" class="edge"><title>gls&#45;&gt;xml</title>
<path fill="none" stroke="black" d="M114,-306.746C114,-299.999 114,-292.093 114,-284.594"/>
<polygon fill="black" stroke="black" points="117.5,-284.429 114,-274.429 110.5,-284.429 117.5,-284.429"/>
<text text-anchor="middle" x="146.5" y="-286.3" font-family="Times,serif" font-size="14.00"> web scrape</text>
</g>
<!-- df0 -->
<g id="node3" class="node"><title>df0</title>
<polygon fill="none" stroke="black" points="78.25,-192 -0.25,-192 -0.25,-154 78.25,-154 78.25,-192"/>
<text text-anchor="middle" x="39" y="-176.8" font-family="Times,serif" font-size="14.00">data.frame </text>
<text text-anchor="middle" x="39" y="-161.8" font-family="Times,serif" font-size="14.00"> raw</text>
</g>
<!-- xml&#45;&gt;df0 -->
<g id="edge2" class="edge"><title>xml&#45;&gt;df0</title>
<path fill="none" stroke="black" d="M98.0944,-237.822C87.8391,-226.746 74.3153,-212.14 62.7933,-199.697"/>
<polygon fill="black" stroke="black" points="65.2873,-197.239 55.925,-192.279 60.1509,-201.995 65.2873,-197.239"/>
<text text-anchor="middle" x="101.5" y="-211.3" font-family="Times,serif" font-size="14.00"> web scrape</text>
</g>
<!-- orgTable0 -->
<g id="node6" class="node"><title>orgTable0</title>
<polygon fill="none" stroke="black" points="225,-192 157,-192 157,-154 225,-154 225,-192"/>
<text text-anchor="middle" x="191" y="-176.8" font-family="Times,serif" font-size="14.00">org table </text>
<text text-anchor="middle" x="191" y="-161.8" font-family="Times,serif" font-size="14.00"> raw </text>
</g>
<!-- xml&#45;&gt;orgTable0 -->
<g id="edge3" class="edge"><title>xml&#45;&gt;orgTable0</title>
<path fill="none" stroke="black" d="M130.33,-237.822C140.858,-226.746 154.743,-212.14 166.572,-199.697"/>
<polygon fill="black" stroke="black" points="169.271,-201.938 173.624,-192.279 164.197,-197.115 169.271,-201.938"/>
<text text-anchor="middle" x="195" y="-218.8" font-family="Times,serif" font-size="14.00"> paste </text>
<text text-anchor="middle" x="195" y="-203.8" font-family="Times,serif" font-size="14.00">&amp; convert</text>
</g>
<!-- df0&#45;&gt;orgTable0 -->
<g id="edge4" class="edge"><title>df0&#45;&gt;orgTable0</title>
<path fill="none" stroke="black" d="M78.5394,-173C99.4031,-173 125.071,-173 146.615,-173"/>
<polygon fill="black" stroke="black" points="146.82,-176.5 156.82,-173 146.82,-169.5 146.82,-176.5"/>
<text text-anchor="middle" x="117.5" y="-179.8" font-family="Times,serif" font-size="14.00"> R:print</text>
</g>
<!-- df1 -->
<g id="node4" class="node"><title>df1</title>
<polygon fill="none" stroke="black" points="236,-108 146,-108 146,-70 236,-70 236,-108"/>
<text text-anchor="middle" x="191" y="-92.8" font-family="Times,serif" font-size="14.00">data.frame </text>
<text text-anchor="middle" x="191" y="-77.8" font-family="Times,serif" font-size="14.00"> unduplicated</text>
</g>
<!-- orgTable1 -->
<g id="node7" class="node"><title>orgTable1</title>
<polygon fill="none" stroke="black" points="405,-108 315,-108 315,-70 405,-70 405,-108"/>
<text text-anchor="middle" x="360" y="-92.8" font-family="Times,serif" font-size="14.00">org table </text>
<text text-anchor="middle" x="360" y="-77.8" font-family="Times,serif" font-size="14.00"> unduplicated</text>
</g>
<!-- df1&#45;&gt;orgTable1 -->
<g id="edge6" class="edge"><title>df1&#45;&gt;orgTable1</title>
<path fill="none" stroke="black" d="M236.289,-89C257.306,-89 282.481,-89 304.619,-89"/>
<polygon fill="black" stroke="black" points="304.879,-92.5001 314.879,-89 304.879,-85.5001 304.879,-92.5001"/>
<text text-anchor="middle" x="275.5" y="-95.8" font-family="Times,serif" font-size="14.00"> R:print</text>
</g>
<!-- df2 -->
<g id="node5" class="node"><title>df2</title>
<polygon fill="none" stroke="black" points="265.25,-344 186.75,-344 186.75,-306 265.25,-306 265.25,-344"/>
<text text-anchor="middle" x="226" y="-328.8" font-family="Times,serif" font-size="14.00">data.frame </text>
<text text-anchor="middle" x="226" y="-313.8" font-family="Times,serif" font-size="14.00"> latex</text>
</g>
<!-- orgTable0&#45;&gt;df1 -->
<g id="edge5" class="edge"><title>orgTable0&#45;&gt;df1</title>
<path fill="none" stroke="black" d="M191,-153.802C191,-143.398 191,-130.122 191,-118.377"/>
<polygon fill="black" stroke="black" points="194.5,-118.148 191,-108.148 187.5,-118.148 194.5,-118.148"/>
<text text-anchor="start" x="191" y="-134.8" font-family="Times,serif" font-size="14.00"> R:!duplicate(df) </text>
<text text-anchor="middle" x="238.5" y="-119.8" font-family="Times,serif" font-size="14.00"> babel:var</text>
</g>
<!-- orgTable2 -->
<g id="node8" class="node"><title>orgTable2</title>
<polygon fill="none" stroke="black" points="394,-38 326,-38 326,-0 394,-0 394,-38"/>
<text text-anchor="middle" x="360" y="-22.8" font-family="Times,serif" font-size="14.00">org table </text>
<text text-anchor="middle" x="360" y="-7.8" font-family="Times,serif" font-size="14.00"> latex</text>
</g>
<!-- orgTable1&#45;&gt;orgTable2 -->
<g id="edge7" class="edge"><title>orgTable1&#45;&gt;orgTable2</title>
<path fill="none" stroke="black" d="M360,-69.7772C360,-63.2221 360,-55.6616 360,-48.4444"/>
<polygon fill="black" stroke="black" points="363.5,-48.273 360,-38.2731 356.5,-48.2731 363.5,-48.273"/>
<text text-anchor="middle" x="393" y="-50.3" font-family="Times,serif" font-size="14.00">Self Editing</text>
</g>
<!-- edit -->
<g id="node9" class="node"><title>edit</title>
<polygon fill="none" stroke="black" points="356.5,-343 301.5,-343 301.5,-307 356.5,-307 356.5,-343"/>
<text text-anchor="middle" x="329" y="-321.3" font-family="Times,serif" font-size="14.00">Editing</text>
</g>
</g>
</svg>
