<?xml version="1.0" encoding="UTF-8" standalone="no"?>
<!DOCTYPE svg PUBLIC "-//W3C//DTD SVG 1.1//EN"
 "http://www.w3.org/Graphics/SVG/1.1/DTD/svg11.dtd">
<!-- Generated by graphviz version 2.36.0 (20140111.2315)
 -->
<!-- Title: %3 Pages: 1 -->
<svg width="470pt" height="268pt"
 viewBox="0.00 0.00 470.00 268.00" xmlns="http://www.w3.org/2000/svg" xmlns:xlink="http://www.w3.org/1999/xlink">
<g id="graph0" class="graph" transform="scale(1 1) rotate(0) translate(4 264)">
<title>%3</title>
<polygon fill="white" stroke="none" points="-4,4 -4,-264 466,-264 466,4 -4,4"/>
<!-- gls -->
<g id="node1" class="node"><title>gls</title>
<polygon fill="none" stroke="black" points="154.25,-259 81.75,-259 81.75,-223 154.25,-223 154.25,-259"/>
<text text-anchor="middle" x="118" y="-237.3" font-family="Times,serif" font-size="14.00">Glossaries</text>
</g>
<!-- xml -->
<g id="node2" class="node"><title>xml</title>
<polygon fill="none" stroke="black" points="145,-190 91,-190 91,-154 145,-154 145,-190"/>
<text text-anchor="middle" x="118" y="-168.3" font-family="Times,serif" font-size="14.00">XML</text>
</g>
<!-- gls&#45;&gt;xml -->
<g id="edge1" class="edge"><title>gls&#45;&gt;xml</title>
<path fill="none" stroke="black" d="M118,-222.746C118,-215.999 118,-208.093 118,-200.594"/>
<polygon fill="black" stroke="black" points="121.5,-200.429 118,-190.429 114.5,-200.429 121.5,-200.429"/>
<text text-anchor="middle" x="150.5" y="-202.3" font-family="Times,serif" font-size="14.00"> web scrape</text>
</g>
<!-- df0 -->
<g id="node3" class="node"><title>df0</title>
<polygon fill="none" stroke="black" points="74.25,-107 -0.25,-107 -0.25,-71 74.25,-71 74.25,-107"/>
<text text-anchor="middle" x="37" y="-85.3" font-family="Times,serif" font-size="14.00">data.frame</text>
</g>
<!-- xml&#45;&gt;df0 -->
<g id="edge2" class="edge"><title>xml&#45;&gt;df0</title>
<path fill="none" stroke="black" d="M100.822,-153.822C89.3312,-142.331 74.0409,-127.041 61.3072,-114.307"/>
<polygon fill="black" stroke="black" points="63.6992,-111.749 54.1533,-107.153 58.7495,-116.699 63.6992,-111.749"/>
<text text-anchor="middle" x="107.5" y="-127.3" font-family="Times,serif" font-size="14.00"> web scrape</text>
</g>
<!-- orgTable0 -->
<g id="node6" class="node"><title>orgTable0</title>
<polygon fill="none" stroke="black" points="233,-108 165,-108 165,-70 233,-70 233,-108"/>
<text text-anchor="middle" x="199" y="-92.8" font-family="Times,serif" font-size="14.00">org table </text>
<text text-anchor="middle" x="199" y="-77.8" font-family="Times,serif" font-size="14.00"> raw </text>
</g>
<!-- xml&#45;&gt;orgTable0 -->
<g id="edge3" class="edge"><title>xml&#45;&gt;orgTable0</title>
<path fill="none" stroke="black" d="M135.178,-153.822C146.254,-142.746 160.86,-128.14 173.303,-115.697"/>
<polygon fill="black" stroke="black" points="176.125,-117.825 180.721,-108.279 171.175,-112.875 176.125,-117.825"/>
<text text-anchor="middle" x="202" y="-134.8" font-family="Times,serif" font-size="14.00"> paste </text>
<text text-anchor="middle" x="202" y="-119.8" font-family="Times,serif" font-size="14.00">&amp; convert</text>
</g>
<!-- df0&#45;&gt;orgTable0 -->
<g id="edge4" class="edge"><title>df0&#45;&gt;orgTable0</title>
<path fill="none" stroke="black" d="M74.3703,-76.1418C82.0936,-74.0046 90.2409,-72.1209 98,-71 116.915,-68.2675 122.105,-68.1354 141,-71 145.52,-71.6852 150.172,-72.6547 154.783,-73.7925"/>
<polygon fill="black" stroke="black" points="154.174,-77.254 164.742,-76.5071 156.015,-70.5004 154.174,-77.254"/>
<text text-anchor="middle" x="119.5" y="-74.8" font-family="Times,serif" font-size="14.00"> R:print</text>
</g>
<!-- df1 -->
<g id="node4" class="node"><title>df1</title>
<polygon fill="none" stroke="black" points="236.25,-37 161.75,-37 161.75,-1 236.25,-1 236.25,-37"/>
<text text-anchor="middle" x="199" y="-15.3" font-family="Times,serif" font-size="14.00">data.frame</text>
</g>
<!-- orgTable1 -->
<g id="node7" class="node"><title>orgTable1</title>
<polygon fill="none" stroke="black" points="406,-38 316,-38 316,-0 406,-0 406,-38"/>
<text text-anchor="middle" x="361" y="-22.8" font-family="Times,serif" font-size="14.00">org table </text>
<text text-anchor="middle" x="361" y="-7.8" font-family="Times,serif" font-size="14.00"> unduplicated</text>
</g>
<!-- df1&#45;&gt;orgTable1 -->
<g id="edge7" class="edge"><title>df1&#45;&gt;orgTable1</title>
<path fill="none" stroke="black" d="M236.573,-19C257.08,-19 282.86,-19 305.628,-19"/>
<polygon fill="black" stroke="black" points="305.847,-22.5001 315.847,-19 305.847,-15.5001 305.847,-22.5001"/>
<text text-anchor="middle" x="276" y="-25.8" font-family="Times,serif" font-size="14.00"> Editing</text>
</g>
<!-- df2 -->
<g id="node5" class="node"><title>df2</title>
<polygon fill="none" stroke="black" points="265.25,-259 190.75,-259 190.75,-223 265.25,-223 265.25,-259"/>
<text text-anchor="middle" x="228" y="-237.3" font-family="Times,serif" font-size="14.00">data.frame</text>
</g>
<!-- orgTable0&#45;&gt;df0 -->
<g id="edge5" class="edge"><title>orgTable0&#45;&gt;df0</title>
<path fill="none" stroke="black" d="M164.941,-89C141.701,-89 110.589,-89 84.8645,-89"/>
<polygon fill="black" stroke="black" points="84.5733,-85.5001 74.5732,-89 84.5732,-92.5001 84.5733,-85.5001"/>
<text text-anchor="middle" x="119.5" y="-95.8" font-family="Times,serif" font-size="14.00"> babel:var</text>
</g>
<!-- orgTable0&#45;&gt;df1 -->
<g id="edge6" class="edge"><title>orgTable0&#45;&gt;df1</title>
<path fill="none" stroke="black" d="M199,-69.7772C199,-62.932 199,-54.9904 199,-47.4882"/>
<polygon fill="black" stroke="black" points="202.5,-47.3352 199,-37.3352 195.5,-47.3353 202.5,-47.3352"/>
<text text-anchor="middle" x="244.5" y="-50.3" font-family="Times,serif" font-size="14.00"> R:!duplicate(df)</text>
</g>
<!-- orgTable2 -->
<g id="node8" class="node"><title>orgTable2</title>
<polygon fill="none" stroke="black" points="370,-260 302,-260 302,-222 370,-222 370,-260"/>
<text text-anchor="middle" x="336" y="-244.8" font-family="Times,serif" font-size="14.00">org table </text>
<text text-anchor="middle" x="336" y="-229.8" font-family="Times,serif" font-size="14.00"> latex</text>
</g>
<!-- edit -->
<g id="node9" class="node"><title>edit</title>
<polygon fill="none" stroke="black" points="461.5,-259 406.5,-259 406.5,-223 461.5,-223 461.5,-259"/>
<text text-anchor="middle" x="434" y="-237.3" font-family="Times,serif" font-size="14.00">Editing</text>
</g>
</g>
</svg>
