<?xml version="1.0" encoding="UTF-8" standalone="no"?>
<!DOCTYPE svg PUBLIC "-//W3C//DTD SVG 1.1//EN"
 "http://www.w3.org/Graphics/SVG/1.1/DTD/svg11.dtd">
<!-- Generated by graphviz version 2.36.0 (20140111.2315)
 -->
<!-- Title: %3 Pages: 1 -->
<svg width="258pt" height="180pt"
 viewBox="0.00 0.00 258.00 180.00" xmlns="http://www.w3.org/2000/svg" xmlns:xlink="http://www.w3.org/1999/xlink">
<g id="graph0" class="graph" transform="scale(1 1) rotate(0) translate(4 176)">
<title>%3</title>
<polygon fill="white" stroke="none" points="-4,4 -4,-176 254,-176 254,4 -4,4"/>
<!-- xml -->
<g id="node1" class="node"><title>xml</title>
<polygon fill="none" stroke="black" points="145,-172 91,-172 91,-136 145,-136 145,-172"/>
<text text-anchor="middle" x="118" y="-150.3" font-family="Times,serif" font-size="14.00">XML</text>
</g>
<!-- df0 -->
<g id="node2" class="node"><title>df0</title>
<polygon fill="none" stroke="black" points="74.25,-104 -0.25,-104 -0.25,-68 74.25,-68 74.25,-104"/>
<text text-anchor="middle" x="37" y="-82.3" font-family="Times,serif" font-size="14.00">data.frame</text>
</g>
<!-- xml&#45;&gt;df0 -->
<g id="edge1" class="edge"><title>xml&#45;&gt;df0</title>
<path fill="none" stroke="black" d="M96.7182,-135.659C87.3239,-128.005 76.1336,-118.887 65.9929,-110.624"/>
<polygon fill="black" stroke="black" points="68.1029,-107.828 58.1397,-104.225 63.6812,-113.255 68.1029,-107.828"/>
<text text-anchor="middle" x="108.5" y="-116.3" font-family="Times,serif" font-size="14.00">web scrape</text>
</g>
<!-- orgTable -->
<g id="node4" class="node"><title>orgTable</title>
<polygon fill="none" stroke="black" points="249,-104 149,-104 149,-68 249,-68 249,-104"/>
<text text-anchor="middle" x="199" y="-82.3" font-family="Times,serif" font-size="14.00">org&#45;mode table</text>
</g>
<!-- xml&#45;&gt;orgTable -->
<g id="edge2" class="edge"><title>xml&#45;&gt;orgTable</title>
<path fill="none" stroke="black" d="M139.282,-135.659C148.676,-128.005 159.866,-118.887 170.007,-110.624"/>
<polygon fill="black" stroke="black" points="172.319,-113.255 177.86,-104.225 167.897,-107.828 172.319,-113.255"/>
<text text-anchor="middle" x="183" y="-116.3" font-family="Times,serif" font-size="14.00">paste</text>
</g>
<!-- df0&#45;&gt;orgTable -->
<g id="edge3" class="edge"><title>df0&#45;&gt;orgTable</title>
<path fill="none" stroke="black" d="M74.5732,-86C93.6162,-86 117.206,-86 138.708,-86"/>
<polygon fill="black" stroke="black" points="138.741,-89.5001 148.741,-86 138.741,-82.5001 138.741,-89.5001"/>
<text text-anchor="middle" x="111.5" y="-92.8" font-family="Times,serif" font-size="14.00">R:print</text>
</g>
<!-- df1 -->
<g id="node3" class="node"><title>df1</title>
<polygon fill="none" stroke="black" points="236.25,-36 161.75,-36 161.75,-0 236.25,-0 236.25,-36"/>
<text text-anchor="middle" x="199" y="-14.3" font-family="Times,serif" font-size="14.00">data.frame</text>
</g>
<!-- orgTable&#45;&gt;df1 -->
<g id="edge4" class="edge"><title>orgTable&#45;&gt;df1</title>
<path fill="none" stroke="black" d="M199,-67.6593C199,-61.1928 199,-53.6819 199,-46.5246"/>
<polygon fill="black" stroke="black" points="202.5,-46.454 199,-36.4541 195.5,-46.4541 202.5,-46.454"/>
<text text-anchor="middle" x="224.5" y="-48.3" font-family="Times,serif" font-size="14.00">babel:var</text>
</g>
<!-- edit -->
<g id="node5" class="node"><title>edit</title>
<polygon fill="none" stroke="black" points="236.5,-172 181.5,-172 181.5,-136 236.5,-136 236.5,-172"/>
<text text-anchor="middle" x="209" y="-150.3" font-family="Times,serif" font-size="14.00">Editing</text>
</g>
</g>
</svg>
