<?xml version="1.0" encoding="UTF-8" standalone="no"?>
<!DOCTYPE svg PUBLIC "-//W3C//DTD SVG 1.1//EN"
 "http://www.w3.org/Graphics/SVG/1.1/DTD/svg11.dtd">
<!-- Generated by graphviz version 2.36.0 (20140111.2315)
 -->
<!-- Title: %3 Pages: 1 -->
<svg width="277pt" height="250pt"
 viewBox="0.00 0.00 277.00 250.00" xmlns="http://www.w3.org/2000/svg" xmlns:xlink="http://www.w3.org/1999/xlink">
<g id="graph0" class="graph" transform="scale(1 1) rotate(0) translate(4 246)">
<title>%3</title>
<polygon fill="white" stroke="none" points="-4,4 -4,-246 273,-246 273,4 -4,4"/>
<!-- gls -->
<g id="node1" class="node"><title>gls</title>
<polygon fill="none" stroke="black" points="162.25,-242 89.75,-242 89.75,-206 162.25,-206 162.25,-242"/>
<text text-anchor="middle" x="126" y="-220.3" font-family="Times,serif" font-size="14.00">Glossaries</text>
</g>
<!-- xml -->
<g id="node2" class="node"><title>xml</title>
<polygon fill="none" stroke="black" points="153,-174 99,-174 99,-138 153,-138 153,-174"/>
<text text-anchor="middle" x="126" y="-152.3" font-family="Times,serif" font-size="14.00">XML</text>
</g>
<!-- gls&#45;&gt;xml -->
<g id="edge1" class="edge"><title>gls&#45;&gt;xml</title>
<path fill="none" stroke="black" d="M126,-205.659C126,-199.193 126,-191.682 126,-184.525"/>
<polygon fill="black" stroke="black" points="129.5,-184.454 126,-174.454 122.5,-184.454 129.5,-184.454"/>
<text text-anchor="middle" x="158.5" y="-186.3" font-family="Times,serif" font-size="14.00"> web scrape</text>
</g>
<!-- df0 -->
<g id="node3" class="node"><title>df0</title>
<polygon fill="none" stroke="black" points="74.25,-91 -0.25,-91 -0.25,-55 74.25,-55 74.25,-91"/>
<text text-anchor="middle" x="37" y="-69.3" font-family="Times,serif" font-size="14.00">data.frame</text>
</g>
<!-- xml&#45;&gt;df0 -->
<g id="edge2" class="edge"><title>xml&#45;&gt;df0</title>
<path fill="none" stroke="black" d="M107.125,-137.822C94.3817,-126.224 77.3848,-110.755 63.3163,-97.9508"/>
<polygon fill="black" stroke="black" points="65.5989,-95.2957 55.8474,-91.1533 60.8873,-100.473 65.5989,-95.2957"/>
<text text-anchor="middle" x="120.5" y="-111.3" font-family="Times,serif" font-size="14.00"> web scrape</text>
</g>
<!-- orgTable -->
<g id="node5" class="node"><title>orgTable</title>
<polygon fill="none" stroke="black" points="269,-92 165,-92 165,-54 269,-54 269,-92"/>
<text text-anchor="middle" x="217" y="-76.8" font-family="Times,serif" font-size="14.00">org&#45;mode table </text>
<text text-anchor="middle" x="217" y="-61.8" font-family="Times,serif" font-size="14.00"> sort: C&#45;c ^ </text>
</g>
<!-- xml&#45;&gt;orgTable -->
<g id="edge3" class="edge"><title>xml&#45;&gt;orgTable</title>
<path fill="none" stroke="black" d="M145.299,-137.822C157.977,-126.537 174.771,-111.588 188.92,-98.9947"/>
<polygon fill="black" stroke="black" points="191.322,-101.542 196.464,-92.279 186.668,-96.3134 191.322,-101.542"/>
<text text-anchor="middle" x="218" y="-118.8" font-family="Times,serif" font-size="14.00"> paste </text>
<text text-anchor="middle" x="218" y="-103.8" font-family="Times,serif" font-size="14.00">&amp; convert</text>
</g>
<!-- df0&#45;&gt;orgTable -->
<g id="edge4" class="edge"><title>df0&#45;&gt;orgTable</title>
<path fill="none" stroke="black" d="M74.3703,-60.1418C82.0936,-58.0046 90.2409,-56.1209 98,-55 116.496,-52.3281 136.593,-53.7201 154.914,-56.6626"/>
<polygon fill="black" stroke="black" points="154.43,-60.1314 164.889,-58.4409 155.659,-53.24 154.43,-60.1314"/>
<text text-anchor="middle" x="119.5" y="-58.8" font-family="Times,serif" font-size="14.00"> R:print</text>
</g>
<!-- df1 -->
<g id="node4" class="node"><title>df1</title>
<polygon fill="none" stroke="black" points="254.25,-36 179.75,-36 179.75,-0 254.25,-0 254.25,-36"/>
<text text-anchor="middle" x="217" y="-14.3" font-family="Times,serif" font-size="14.00">data.frame</text>
</g>
<!-- orgTable&#45;&gt;df0 -->
<g id="edge5" class="edge"><title>orgTable&#45;&gt;df0</title>
<path fill="none" stroke="black" d="M164.736,-73C139.397,-73 109.184,-73 84.5039,-73"/>
<polygon fill="black" stroke="black" points="84.2962,-69.5001 74.2961,-73 84.2961,-76.5001 84.2962,-69.5001"/>
<text text-anchor="middle" x="119.5" y="-79.8" font-family="Times,serif" font-size="14.00"> babel:var</text>
</g>
<!-- orgTable&#45;&gt;df1 -->
<g id="edge6" class="edge"><title>orgTable&#45;&gt;df1</title>
<path fill="none" stroke="black" d="M217,-53.7604C217,-51.335 217,-48.807 217,-46.2696"/>
<polygon fill="black" stroke="black" points="220.5,-46.0247 217,-36.0247 213.5,-46.0248 220.5,-46.0247"/>
</g>
<!-- edit -->
<g id="node6" class="node"><title>edit</title>
<polygon fill="none" stroke="black" points="254.5,-242 199.5,-242 199.5,-206 254.5,-206 254.5,-242"/>
<text text-anchor="middle" x="227" y="-220.3" font-family="Times,serif" font-size="14.00">Editing</text>
</g>
</g>
</svg>
