<?xml version="1.0" encoding="UTF-8" standalone="no"?>
<!DOCTYPE svg PUBLIC "-//W3C//DTD SVG 1.1//EN"
 "http://www.w3.org/Graphics/SVG/1.1/DTD/svg11.dtd">
<!-- Generated by graphviz version 2.36.0 (20140111.2315)
 -->
<!-- Title: %3 Pages: 1 -->
<svg width="358pt" height="112pt"
 viewBox="0.00 0.00 358.00 112.00" xmlns="http://www.w3.org/2000/svg" xmlns:xlink="http://www.w3.org/1999/xlink">
<g id="graph0" class="graph" transform="scale(1 1) rotate(0) translate(4 108)">
<title>%3</title>
<polygon fill="white" stroke="none" points="-4,4 -4,-108 354,-108 354,4 -4,4"/>
<!-- xml -->
<g id="node1" class="node"><title>xml</title>
<polygon fill="none" stroke="black" points="275,-104 221,-104 221,-68 275,-68 275,-104"/>
<text text-anchor="middle" x="248" y="-82.3" font-family="Times,serif" font-size="14.00">XML</text>
</g>
<!-- orgTable -->
<g id="node3" class="node"><title>orgTable</title>
<polygon fill="none" stroke="black" points="104,-36 0,-36 0,-0 104,-0 104,-36"/>
<text text-anchor="middle" x="52" y="-14.3" font-family="Times,serif" font-size="14.00">org&#45;mode Table</text>
</g>
<!-- xml&#45;&gt;orgTable -->
<g id="edge2" class="edge"><title>xml&#45;&gt;orgTable</title>
<path fill="none" stroke="black" d="M220.747,-75.823C192.842,-66.4263 148.55,-51.5116 112.344,-39.32"/>
<polygon fill="black" stroke="black" points="113.443,-35.9971 102.849,-36.1227 111.21,-42.6311 113.443,-35.9971"/>
<text text-anchor="middle" x="188" y="-48.3" font-family="Times,serif" font-size="14.00">paste</text>
</g>
<!-- df -->
<g id="node4" class="node"><title>df</title>
<polygon fill="none" stroke="black" points="341,-36 287,-36 287,-0 341,-0 341,-36"/>
<text text-anchor="middle" x="314" y="-14.3" font-family="Times,serif" font-size="14.00">df</text>
</g>
<!-- xml&#45;&gt;df -->
<g id="edge1" class="edge"><title>xml&#45;&gt;df</title>
<path fill="none" stroke="black" d="M265.341,-67.6593C272.71,-60.2905 281.434,-51.5656 289.447,-43.553"/>
<polygon fill="black" stroke="black" points="291.95,-46 296.546,-36.4541 287,-41.0503 291.95,-46"/>
<text text-anchor="middle" x="319.5" y="-48.3" font-family="Times,serif" font-size="14.00">web scrape</text>
</g>
<!-- df0 -->
<g id="node2" class="node"><title>df0</title>
<polygon fill="none" stroke="black" points="250.25,-36 175.75,-36 175.75,-0 250.25,-0 250.25,-36"/>
<text text-anchor="middle" x="213" y="-14.3" font-family="Times,serif" font-size="14.00">data.frame</text>
</g>
<!-- df0&#45;&gt;orgTable -->
<g id="edge3" class="edge"><title>df0&#45;&gt;orgTable</title>
<path fill="none" stroke="black" d="M175.514,-18C157.386,-18 135.137,-18 114.542,-18"/>
<polygon fill="black" stroke="black" points="114.272,-14.5001 104.272,-18 114.272,-21.5001 114.272,-14.5001"/>
<text text-anchor="middle" x="139.75" y="-24.8" font-family="Times,serif" font-size="14.00">R</text>
</g>
</g>
</svg>
