<?xml version="1.0" encoding="UTF-8" standalone="no"?>
<!DOCTYPE svg PUBLIC "-//W3C//DTD SVG 1.1//EN"
 "http://www.w3.org/Graphics/SVG/1.1/DTD/svg11.dtd">
<!-- Generated by graphviz version 2.36.0 (20140111.2315)
 -->
<!-- Title: %3 Pages: 1 -->
<svg width="514pt" height="266pt"
 viewBox="0.00 0.00 514.00 266.00" xmlns="http://www.w3.org/2000/svg" xmlns:xlink="http://www.w3.org/1999/xlink">
<g id="graph0" class="graph" transform="scale(1 1) rotate(0) translate(4 262)">
<title>%3</title>
<polygon fill="white" stroke="none" points="-4,4 -4,-262 510,-262 510,4 -4,4"/>
<!-- gls -->
<g id="node1" class="node"><title>gls</title>
<polygon fill="none" stroke="black" points="162.25,-257 89.75,-257 89.75,-221 162.25,-221 162.25,-257"/>
<text text-anchor="middle" x="126" y="-235.3" font-family="Times,serif" font-size="14.00">Glossaries</text>
</g>
<!-- xml -->
<g id="node2" class="node"><title>xml</title>
<polygon fill="none" stroke="black" points="153,-188 99,-188 99,-152 153,-152 153,-188"/>
<text text-anchor="middle" x="126" y="-166.3" font-family="Times,serif" font-size="14.00">XML</text>
</g>
<!-- gls&#45;&gt;xml -->
<g id="edge1" class="edge"><title>gls&#45;&gt;xml</title>
<path fill="none" stroke="black" d="M126,-220.746C126,-213.999 126,-206.093 126,-198.594"/>
<polygon fill="black" stroke="black" points="129.5,-198.429 126,-188.429 122.5,-198.429 129.5,-198.429"/>
<text text-anchor="middle" x="158.5" y="-200.3" font-family="Times,serif" font-size="14.00"> web scrape</text>
</g>
<!-- df0 -->
<g id="node3" class="node"><title>df0</title>
<polygon fill="none" stroke="black" points="74.25,-105 -0.25,-105 -0.25,-69 74.25,-69 74.25,-105"/>
<text text-anchor="middle" x="37" y="-83.3" font-family="Times,serif" font-size="14.00">data.frame</text>
</g>
<!-- xml&#45;&gt;df0 -->
<g id="edge2" class="edge"><title>xml&#45;&gt;df0</title>
<path fill="none" stroke="black" d="M107.125,-151.822C94.3817,-140.224 77.3848,-124.755 63.3163,-111.951"/>
<polygon fill="black" stroke="black" points="65.5989,-109.296 55.8474,-105.153 60.8873,-114.473 65.5989,-109.296"/>
<text text-anchor="middle" x="120.5" y="-125.3" font-family="Times,serif" font-size="14.00"> web scrape</text>
</g>
<!-- orgTable -->
<g id="node6" class="node"><title>orgTable</title>
<polygon fill="none" stroke="black" points="269,-106 165,-106 165,-68 269,-68 269,-106"/>
<text text-anchor="middle" x="217" y="-90.8" font-family="Times,serif" font-size="14.00">org&#45;mode table </text>
<text text-anchor="middle" x="217" y="-75.8" font-family="Times,serif" font-size="14.00"> sort: C&#45;c ^ </text>
</g>
<!-- xml&#45;&gt;orgTable -->
<g id="edge3" class="edge"><title>xml&#45;&gt;orgTable</title>
<path fill="none" stroke="black" d="M145.299,-151.822C157.977,-140.537 174.771,-125.588 188.92,-112.995"/>
<polygon fill="black" stroke="black" points="191.322,-115.542 196.464,-106.279 186.668,-110.313 191.322,-115.542"/>
<text text-anchor="middle" x="218" y="-132.8" font-family="Times,serif" font-size="14.00"> paste </text>
<text text-anchor="middle" x="218" y="-117.8" font-family="Times,serif" font-size="14.00">&amp; convert</text>
</g>
<!-- df0&#45;&gt;orgTable -->
<g id="edge4" class="edge"><title>df0&#45;&gt;orgTable</title>
<path fill="none" stroke="black" d="M74.3703,-74.1418C82.0936,-72.0046 90.2409,-70.1209 98,-69 116.496,-66.3281 136.593,-67.7201 154.914,-70.6626"/>
<polygon fill="black" stroke="black" points="154.43,-74.1314 164.889,-72.4409 155.659,-67.24 154.43,-74.1314"/>
<text text-anchor="middle" x="119.5" y="-72.8" font-family="Times,serif" font-size="14.00"> R:print</text>
</g>
<!-- df1 -->
<g id="node4" class="node"><title>df1</title>
<polygon fill="none" stroke="black" points="254.25,-36 179.75,-36 179.75,-0 254.25,-0 254.25,-36"/>
<text text-anchor="middle" x="217" y="-14.3" font-family="Times,serif" font-size="14.00">data.frame</text>
</g>
<!-- df2 -->
<g id="node5" class="node"><title>df2</title>
<polygon fill="none" stroke="black" points="273.25,-257 198.75,-257 198.75,-221 273.25,-221 273.25,-257"/>
<text text-anchor="middle" x="236" y="-235.3" font-family="Times,serif" font-size="14.00">data.frame</text>
</g>
<!-- orgTable&#45;&gt;df0 -->
<g id="edge5" class="edge"><title>orgTable&#45;&gt;df0</title>
<path fill="none" stroke="black" d="M164.736,-87C139.397,-87 109.184,-87 84.5039,-87"/>
<polygon fill="black" stroke="black" points="84.2962,-83.5001 74.2961,-87 84.2961,-90.5001 84.2962,-83.5001"/>
<text text-anchor="middle" x="119.5" y="-93.8" font-family="Times,serif" font-size="14.00"> babel:var</text>
</g>
<!-- orgTable&#45;&gt;df1 -->
<g id="edge6" class="edge"><title>orgTable&#45;&gt;df1</title>
<path fill="none" stroke="black" d="M217,-67.692C217,-61.1319 217,-53.5859 217,-46.4233"/>
<polygon fill="black" stroke="black" points="220.5,-46.3631 217,-36.3631 213.5,-46.3631 220.5,-46.3631"/>
<text text-anchor="middle" x="262.5" y="-48.3" font-family="Times,serif" font-size="14.00"> R:!duplicate(df)</text>
</g>
<!-- org2 -->
<g id="node7" class="node"><title>org2</title>
<polygon fill="none" stroke="black" points="414,-258 310,-258 310,-220 414,-220 414,-258"/>
<text text-anchor="middle" x="362" y="-242.8" font-family="Times,serif" font-size="14.00">org&#45;mode table </text>
<text text-anchor="middle" x="362" y="-227.8" font-family="Times,serif" font-size="14.00"> sort: C&#45;c ^ </text>
</g>
<!-- edit -->
<g id="node8" class="node"><title>edit</title>
<polygon fill="none" stroke="black" points="505.5,-257 450.5,-257 450.5,-221 505.5,-221 505.5,-257"/>
<text text-anchor="middle" x="478" y="-235.3" font-family="Times,serif" font-size="14.00">Editing</text>
</g>
</g>
</svg>
