<?xml version="1.0" encoding="UTF-8" standalone="no"?>
<!DOCTYPE svg PUBLIC "-//W3C//DTD SVG 1.1//EN"
 "http://www.w3.org/Graphics/SVG/1.1/DTD/svg11.dtd">
<!-- Generated by graphviz version 2.36.0 (20140111.2315)
 -->
<!-- Title: %3 Pages: 1 -->
<svg width="476pt" height="268pt"
 viewBox="0.00 0.00 476.00 268.00" xmlns="http://www.w3.org/2000/svg" xmlns:xlink="http://www.w3.org/1999/xlink">
<g id="graph0" class="graph" transform="scale(1 1) rotate(0) translate(4 264)">
<title>%3</title>
<polygon fill="white" stroke="none" points="-4,4 -4,-264 472,-264 472,4 -4,4"/>
<!-- gls -->
<g id="node1" class="node"><title>gls</title>
<polygon fill="none" stroke="black" points="156.25,-259 83.75,-259 83.75,-223 156.25,-223 156.25,-259"/>
<text text-anchor="middle" x="120" y="-237.3" font-family="Times,serif" font-size="14.00">Glossaries</text>
</g>
<!-- xml -->
<g id="node2" class="node"><title>xml</title>
<polygon fill="none" stroke="black" points="147,-190 93,-190 93,-154 147,-154 147,-190"/>
<text text-anchor="middle" x="120" y="-168.3" font-family="Times,serif" font-size="14.00">XML</text>
</g>
<!-- gls&#45;&gt;xml -->
<g id="edge1" class="edge"><title>gls&#45;&gt;xml</title>
<path fill="none" stroke="black" d="M120,-222.746C120,-215.999 120,-208.093 120,-200.594"/>
<polygon fill="black" stroke="black" points="123.5,-200.429 120,-190.429 116.5,-200.429 123.5,-200.429"/>
<text text-anchor="middle" x="152.5" y="-202.3" font-family="Times,serif" font-size="14.00"> web scrape</text>
</g>
<!-- df0 -->
<g id="node3" class="node"><title>df0</title>
<polygon fill="none" stroke="black" points="78.25,-108 -0.25,-108 -0.25,-70 78.25,-70 78.25,-108"/>
<text text-anchor="middle" x="39" y="-92.8" font-family="Times,serif" font-size="14.00">data.frame </text>
<text text-anchor="middle" x="39" y="-77.8" font-family="Times,serif" font-size="14.00"> raw</text>
</g>
<!-- xml&#45;&gt;df0 -->
<g id="edge2" class="edge"><title>xml&#45;&gt;df0</title>
<path fill="none" stroke="black" d="M102.822,-153.822C91.7463,-142.746 77.1405,-128.14 64.6967,-115.697"/>
<polygon fill="black" stroke="black" points="66.825,-112.875 57.279,-108.279 61.8752,-117.825 66.825,-112.875"/>
<text text-anchor="middle" x="110.5" y="-127.3" font-family="Times,serif" font-size="14.00"> web scrape</text>
</g>
<!-- orgTable0 -->
<g id="node6" class="node"><title>orgTable0</title>
<polygon fill="none" stroke="black" points="237,-108 169,-108 169,-70 237,-70 237,-108"/>
<text text-anchor="middle" x="203" y="-92.8" font-family="Times,serif" font-size="14.00">org table </text>
<text text-anchor="middle" x="203" y="-77.8" font-family="Times,serif" font-size="14.00"> raw </text>
</g>
<!-- xml&#45;&gt;orgTable0 -->
<g id="edge3" class="edge"><title>xml&#45;&gt;orgTable0</title>
<path fill="none" stroke="black" d="M137.602,-153.822C149.058,-142.642 164.2,-127.865 177.029,-115.345"/>
<polygon fill="black" stroke="black" points="179.557,-117.768 184.27,-108.279 174.668,-112.758 179.557,-117.768"/>
<text text-anchor="middle" x="206" y="-134.8" font-family="Times,serif" font-size="14.00"> paste </text>
<text text-anchor="middle" x="206" y="-119.8" font-family="Times,serif" font-size="14.00">&amp; convert</text>
</g>
<!-- df0&#45;&gt;orgTable0 -->
<g id="edge4" class="edge"><title>df0&#45;&gt;orgTable0</title>
<path fill="none" stroke="black" d="M78.2942,-75.9607C86.0674,-73.8981 94.227,-72.0886 102,-71 120.926,-68.3493 126.105,-68.1354 145,-71 149.52,-71.6852 154.172,-72.6547 158.783,-73.7925"/>
<polygon fill="black" stroke="black" points="158.174,-77.254 168.742,-76.5071 160.015,-70.5004 158.174,-77.254"/>
<text text-anchor="middle" x="123.5" y="-74.8" font-family="Times,serif" font-size="14.00"> R:print</text>
</g>
<!-- df1 -->
<g id="node4" class="node"><title>df1</title>
<polygon fill="none" stroke="black" points="248,-38 158,-38 158,-0 248,-0 248,-38"/>
<text text-anchor="middle" x="203" y="-22.8" font-family="Times,serif" font-size="14.00">data.frame </text>
<text text-anchor="middle" x="203" y="-7.8" font-family="Times,serif" font-size="14.00"> unduplicated</text>
</g>
<!-- orgTable1 -->
<g id="node7" class="node"><title>orgTable1</title>
<polygon fill="none" stroke="black" points="410,-38 320,-38 320,-0 410,-0 410,-38"/>
<text text-anchor="middle" x="365" y="-22.8" font-family="Times,serif" font-size="14.00">org table </text>
<text text-anchor="middle" x="365" y="-7.8" font-family="Times,serif" font-size="14.00"> unduplicated</text>
</g>
<!-- df1&#45;&gt;orgTable1 -->
<g id="edge7" class="edge"><title>df1&#45;&gt;orgTable1</title>
<path fill="none" stroke="black" d="M248.126,-19C267.18,-19 289.554,-19 309.596,-19"/>
<polygon fill="black" stroke="black" points="309.835,-22.5001 319.835,-19 309.835,-15.5001 309.835,-22.5001"/>
<text text-anchor="middle" x="284" y="-25.8" font-family="Times,serif" font-size="14.00"> print</text>
</g>
<!-- df2 -->
<g id="node5" class="node"><title>df2</title>
<polygon fill="none" stroke="black" points="271.25,-260 192.75,-260 192.75,-222 271.25,-222 271.25,-260"/>
<text text-anchor="middle" x="232" y="-244.8" font-family="Times,serif" font-size="14.00">data.frame </text>
<text text-anchor="middle" x="232" y="-229.8" font-family="Times,serif" font-size="14.00"> latex</text>
</g>
<!-- orgTable0&#45;&gt;df0 -->
<g id="edge5" class="edge"><title>orgTable0&#45;&gt;df0</title>
<path fill="none" stroke="black" d="M168.763,-89C145.468,-89 114.277,-89 88.3144,-89"/>
<polygon fill="black" stroke="black" points="88.2821,-85.5001 78.2821,-89 88.2821,-92.5001 88.2821,-85.5001"/>
<text text-anchor="middle" x="123.5" y="-95.8" font-family="Times,serif" font-size="14.00"> babel:var</text>
</g>
<!-- orgTable0&#45;&gt;df1 -->
<g id="edge6" class="edge"><title>orgTable0&#45;&gt;df1</title>
<path fill="none" stroke="black" d="M203,-69.7772C203,-63.2221 203,-55.6616 203,-48.4444"/>
<polygon fill="black" stroke="black" points="206.5,-48.273 203,-38.2731 199.5,-48.2731 206.5,-48.273"/>
<text text-anchor="middle" x="248.5" y="-50.3" font-family="Times,serif" font-size="14.00"> R:!duplicate(df)</text>
</g>
<!-- orgTable2 -->
<g id="node8" class="node"><title>orgTable2</title>
<polygon fill="none" stroke="black" points="376,-260 308,-260 308,-222 376,-222 376,-260"/>
<text text-anchor="middle" x="342" y="-244.8" font-family="Times,serif" font-size="14.00">org table </text>
<text text-anchor="middle" x="342" y="-229.8" font-family="Times,serif" font-size="14.00"> latex</text>
</g>
<!-- edit -->
<g id="node9" class="node"><title>edit</title>
<polygon fill="none" stroke="black" points="467.5,-259 412.5,-259 412.5,-223 467.5,-223 467.5,-259"/>
<text text-anchor="middle" x="440" y="-237.3" font-family="Times,serif" font-size="14.00">Editing</text>
</g>
</g>
</svg>
