<?xml version="1.0" encoding="UTF-8" standalone="no"?>
<!DOCTYPE svg PUBLIC "-//W3C//DTD SVG 1.1//EN"
 "http://www.w3.org/Graphics/SVG/1.1/DTD/svg11.dtd">
<!-- Generated by graphviz version 2.36.0 (20140111.2315)
 -->
<!-- Title: %3 Pages: 1 -->
<svg width="247pt" height="144pt"
 viewBox="0.00 0.00 247.00 144.00" xmlns="http://www.w3.org/2000/svg" xmlns:xlink="http://www.w3.org/1999/xlink">
<g id="graph0" class="graph" transform="scale(1 1) rotate(0) translate(4 140)">
<title>%3</title>
<polygon fill="white" stroke="none" points="-4,4 -4,-140 243,-140 243,4 -4,4"/>
<!-- xml -->
<g id="node1" class="node"><title>xml</title>
<polygon fill="none" stroke="black" points="59,-136 5,-136 5,-100 59,-100 59,-136"/>
<text text-anchor="middle" x="32" y="-114.3" font-family="Times,serif" font-size="14.00">xml</text>
</g>
<!-- df -->
<g id="node2" class="node"><title>df</title>
<polygon fill="none" stroke="black" points="59,-86 5,-86 5,-50 59,-50 59,-86"/>
<text text-anchor="middle" x="32" y="-64.3" font-family="Times,serif" font-size="14.00">df</text>
</g>
<!-- xml&#45;&gt;df -->
<g id="edge1" class="edge"><title>xml&#45;&gt;df</title>
<path fill="none" stroke="black" d="M32,-99.9418C32,-98.6686 32,-97.3669 32,-96.0527"/>
<polygon fill="black" stroke="black" points="35.5001,-96.0032 32,-86.0032 28.5001,-96.0033 35.5001,-96.0032"/>
</g>
<!-- orgTable -->
<g id="node3" class="node"><title>orgTable</title>
<polygon fill="none" stroke="black" points="64.25,-36 -0.25,-36 -0.25,-0 64.25,-0 64.25,-36"/>
<text text-anchor="middle" x="32" y="-14.3" font-family="Times,serif" font-size="14.00">orgTable</text>
</g>
<!-- df&#45;&gt;orgTable -->
<g id="edge2" class="edge"><title>df&#45;&gt;orgTable</title>
<path fill="none" stroke="black" d="M19.015,-49.9418C18.8211,-48.6686 18.6819,-47.3669 18.5975,-46.0527"/>
<polygon fill="black" stroke="black" points="22.0968,-46.1425 19.0234,-36.0032 15.1031,-45.846 22.0968,-46.1425"/>
</g>
<!-- tex -->
<g id="node4" class="node"><title>tex</title>
<polygon fill="none" stroke="black" points="155,-36 101,-36 101,-0 155,-0 155,-36"/>
<text text-anchor="middle" x="128" y="-14.3" font-family="Times,serif" font-size="14.00">tex</text>
</g>
<!-- df&#45;&gt;tex -->
<g id="edge4" class="edge"><title>df&#45;&gt;tex</title>
<path fill="none" stroke="black" d="M59.253,-53.3735C69.2855,-48.3572 80.8154,-42.5923 91.5305,-37.2348"/>
<polygon fill="black" stroke="black" points="93.2999,-40.2632 100.679,-32.6606 90.1693,-34.0022 93.2999,-40.2632"/>
</g>
<!-- orgTable&#45;&gt;df -->
<g id="edge3" class="edge"><title>orgTable&#45;&gt;df</title>
<path fill="none" stroke="black" d="M44.9766,-36.0032C45.1721,-37.2756 45.3128,-38.5768 45.3988,-39.8906"/>
<polygon fill="black" stroke="black" points="41.8994,-39.8063 44.985,-49.9418 48.8935,-40.0943 41.8994,-39.8063"/>
</g>
<!-- A -->
<g id="node5" class="node"><title>A</title>
<polygon fill="none" stroke="black" points="149,-136 95,-136 95,-100 149,-100 149,-136"/>
<text text-anchor="middle" x="122" y="-114.3" font-family="Times,serif" font-size="14.00">A</text>
</g>
<!-- B -->
<g id="node6" class="node"><title>B</title>
<polygon fill="none" stroke="black" points="239,-136 185,-136 185,-100 239,-100 239,-136"/>
<text text-anchor="middle" x="212" y="-114.3" font-family="Times,serif" font-size="14.00">B</text>
</g>
</g>
</svg>
