<?xml version="1.0" encoding="UTF-8" standalone="no"?>
<!DOCTYPE svg PUBLIC "-//W3C//DTD SVG 1.1//EN"
 "http://www.w3.org/Graphics/SVG/1.1/DTD/svg11.dtd">
<!-- Generated by graphviz version 2.36.0 (20140111.2315)
 -->
<!-- Title: %3 Pages: 1 -->
<svg width="363pt" height="470pt"
 viewBox="0.00 0.00 363.00 470.00" xmlns="http://www.w3.org/2000/svg" xmlns:xlink="http://www.w3.org/1999/xlink">
<g id="graph0" class="graph" transform="scale(1 1) rotate(0) translate(4 466)">
<title>%3</title>
<polygon fill="white" stroke="none" points="-4,4 -4,-466 359,-466 359,4 -4,4"/>
<!-- gls -->
<g id="node1" class="node"><title>gls</title>
<polygon fill="none" stroke="black" points="208.25,-462 135.75,-462 135.75,-426 208.25,-426 208.25,-462"/>
<text text-anchor="middle" x="172" y="-440.3" font-family="Times,serif" font-size="14.00">Glossaries</text>
</g>
<!-- nomencl -->
<g id="node2" class="node"><title>nomencl</title>
<polygon fill="none" stroke="black" points="98.25,-408 -0.25,-408 -0.25,-372 98.25,-372 98.25,-408"/>
<text text-anchor="middle" x="49" y="-386.3" font-family="Times,serif" font-size="14.00">Nomenclatrues</text>
</g>
<!-- gls&#45;&gt;nomencl -->
<g id="edge1" class="edge"><title>gls&#45;&gt;nomencl</title>
<path fill="none" stroke="black" d="M135.429,-427.539C123.917,-422.672 111.003,-417.212 98.7366,-412.027"/>
<polygon fill="black" stroke="black" points="100.091,-408.799 89.5171,-408.129 97.3649,-415.247 100.091,-408.799"/>
</g>
<!-- acro -->
<g id="node3" class="node"><title>acro</title>
<polygon fill="none" stroke="black" points="209,-408 135,-408 135,-372 209,-372 209,-408"/>
<text text-anchor="middle" x="172" y="-386.3" font-family="Times,serif" font-size="14.00">Acronyms</text>
</g>
<!-- gls&#45;&gt;acro -->
<g id="edge2" class="edge"><title>gls&#45;&gt;acro</title>
<path fill="none" stroke="black" d="M172,-425.973C172,-423.574 172,-421.059 172,-418.524"/>
<polygon fill="black" stroke="black" points="175.5,-418.243 172,-408.243 168.5,-418.243 175.5,-418.243"/>
</g>
<!-- symbol -->
<g id="node4" class="node"><title>symbol</title>
<polygon fill="none" stroke="black" points="310.25,-408 245.75,-408 245.75,-372 310.25,-372 310.25,-408"/>
<text text-anchor="middle" x="278" y="-386.3" font-family="Times,serif" font-size="14.00">Symbols</text>
</g>
<!-- gls&#45;&gt;symbol -->
<g id="edge3" class="edge"><title>gls&#45;&gt;symbol</title>
<path fill="none" stroke="black" d="M206.708,-425.973C216.226,-421.304 226.64,-416.196 236.497,-411.36"/>
<polygon fill="black" stroke="black" points="238.292,-414.378 245.729,-406.831 235.209,-408.093 238.292,-414.378"/>
</g>
<!-- xml -->
<g id="node5" class="node"><title>xml</title>
<ellipse fill="none" stroke="black" cx="172" cy="-323" rx="30.3206" ry="30.5947"/>
<text text-anchor="middle" x="172" y="-319.3" font-family="Times,serif" font-size="14.00">XML</text>
</g>
<!-- nomencl&#45;&gt;xml -->
<g id="edge4" class="edge"><title>nomencl&#45;&gt;xml</title>
<path fill="none" stroke="black" d="M81.3168,-371.922C98.1324,-363.036 118.737,-352.147 136.055,-342.996"/>
<polygon fill="black" stroke="black" points="138.086,-345.881 145.292,-338.114 134.815,-339.692 138.086,-345.881"/>
</g>
<!-- acro&#45;&gt;xml -->
<g id="edge5" class="edge"><title>acro&#45;&gt;xml</title>
<path fill="none" stroke="black" d="M172,-371.922C172,-369.4 172,-366.716 172,-363.956"/>
<polygon fill="black" stroke="black" points="175.5,-363.783 172,-353.783 168.5,-363.783 175.5,-363.783"/>
</g>
<!-- symbol&#45;&gt;xml -->
<g id="edge6" class="edge"><title>symbol&#45;&gt;xml</title>
<path fill="none" stroke="black" d="M250.15,-371.922C236.638,-363.636 220.287,-353.61 206.041,-344.874"/>
<polygon fill="black" stroke="black" points="207.841,-341.872 197.487,-339.629 204.182,-347.84 207.841,-341.872"/>
</g>
<!-- df0 -->
<g id="node6" class="node"><title>df0</title>
<polygon fill="none" stroke="blue" points="147.25,-246 68.75,-246 68.75,-208 147.25,-208 147.25,-246"/>
<text text-anchor="middle" x="108" y="-230.8" font-family="Times,serif" font-size="14.00">data.frame </text>
<text text-anchor="middle" x="108" y="-215.8" font-family="Times,serif" font-size="14.00"> raw</text>
</g>
<!-- xml&#45;&gt;df0 -->
<g id="edge7" class="edge"><title>xml&#45;&gt;df0</title>
<path fill="none" stroke="black" d="M155.185,-297.303C146.253,-284.184 135.266,-268.047 126.142,-254.647"/>
<polygon fill="black" stroke="black" points="128.977,-252.591 120.456,-246.295 123.191,-256.531 128.977,-252.591"/>
<text text-anchor="middle" x="170.5" y="-265.3" font-family="Times,serif" font-size="14.00"> web scrape</text>
</g>
<!-- orgTable0 -->
<g id="node9" class="node"><title>orgTable0</title>
<polygon fill="none" stroke="black" points="294,-246 226,-246 226,-208 294,-208 294,-246"/>
<text text-anchor="middle" x="260" y="-230.8" font-family="Times,serif" font-size="14.00">org table </text>
<text text-anchor="middle" x="260" y="-215.8" font-family="Times,serif" font-size="14.00"> raw </text>
</g>
<!-- xml&#45;&gt;orgTable0 -->
<g id="edge8" class="edge"><title>xml&#45;&gt;orgTable0</title>
<path fill="none" stroke="black" d="M192.41,-300.198C205.348,-286.378 222.149,-268.432 235.763,-253.889"/>
<polygon fill="black" stroke="black" points="238.675,-255.9 242.954,-246.208 233.565,-251.116 238.675,-255.9"/>
<text text-anchor="middle" x="264" y="-272.8" font-family="Times,serif" font-size="14.00"> paste </text>
<text text-anchor="middle" x="264" y="-257.8" font-family="Times,serif" font-size="14.00">&amp; convert</text>
</g>
<!-- df0&#45;&gt;orgTable0 -->
<g id="edge9" class="edge"><title>df0&#45;&gt;orgTable0</title>
<path fill="none" stroke="black" d="M147.539,-227C168.403,-227 194.071,-227 215.615,-227"/>
<polygon fill="black" stroke="black" points="215.82,-230.5 225.82,-227 215.82,-223.5 215.82,-230.5"/>
<text text-anchor="middle" x="186.5" y="-233.8" font-family="Times,serif" font-size="14.00"> R:print</text>
</g>
<!-- df1 -->
<g id="node7" class="node"><title>df1</title>
<polygon fill="none" stroke="blue" points="305,-162 215,-162 215,-124 305,-124 305,-162"/>
<text text-anchor="middle" x="260" y="-146.8" font-family="Times,serif" font-size="14.00">data.frame </text>
<text text-anchor="middle" x="260" y="-131.8" font-family="Times,serif" font-size="14.00"> unduplicated</text>
</g>
<!-- df2 -->
<g id="node8" class="node"><title>df2</title>
<polygon fill="none" stroke="blue" points="275.25,-92 196.75,-92 196.75,-54 275.25,-54 275.25,-92"/>
<text text-anchor="middle" x="236" y="-76.8" font-family="Times,serif" font-size="14.00">data.frame </text>
<text text-anchor="middle" x="236" y="-61.8" font-family="Times,serif" font-size="14.00"> latex</text>
</g>
<!-- glsfile -->
<g id="node12" class="node"><title>glsfile</title>
<polygon fill="none" stroke="black" points="282.25,-36 189.75,-36 189.75,-0 282.25,-0 282.25,-36"/>
<text text-anchor="middle" x="236" y="-14.3" font-family="Times,serif" font-size="14.00">Glossaries.tex</text>
</g>
<!-- df2&#45;&gt;glsfile -->
<g id="edge14" class="edge"><title>df2&#45;&gt;glsfile</title>
<path fill="none" stroke="black" d="M236,-53.7604C236,-51.335 236,-48.807 236,-46.2696"/>
<polygon fill="black" stroke="black" points="239.5,-46.0247 236,-36.0247 232.5,-46.0248 239.5,-46.0247"/>
</g>
<!-- orgTable0&#45;&gt;df1 -->
<g id="edge10" class="edge"><title>orgTable0&#45;&gt;df1</title>
<path fill="none" stroke="black" d="M260,-207.802C260,-197.398 260,-184.122 260,-172.377"/>
<polygon fill="black" stroke="black" points="263.5,-172.148 260,-162.148 256.5,-172.148 263.5,-172.148"/>
<text text-anchor="start" x="260" y="-188.8" font-family="Times,serif" font-size="14.00"> R:!duplicate(df) </text>
<text text-anchor="middle" x="307.5" y="-173.8" font-family="Times,serif" font-size="14.00"> babel:var</text>
</g>
<!-- orgTable1 -->
<g id="node10" class="node"><title>orgTable1</title>
<polygon fill="none" stroke="black" points="136,-162 46,-162 46,-124 136,-124 136,-162"/>
<text text-anchor="middle" x="91" y="-146.8" font-family="Times,serif" font-size="14.00">org table </text>
<text text-anchor="middle" x="91" y="-131.8" font-family="Times,serif" font-size="14.00"> unduplicated</text>
</g>
<!-- orgTable1&#45;&gt;df1 -->
<g id="edge11" class="edge"><title>orgTable1&#45;&gt;df1</title>
<path fill="none" stroke="black" d="M146.559,-143C168.712,-143 193.885,-143 214.879,-143"/>
<polygon fill="black" stroke="black" points="146.289,-139.5 136.289,-143 146.289,-146.5 146.289,-139.5"/>
<text text-anchor="middle" x="175.5" y="-149.8" font-family="Times,serif" font-size="14.00"> R:print</text>
</g>
<!-- orgTable2 -->
<g id="node11" class="node"><title>orgTable2</title>
<polygon fill="none" stroke="black" points="125,-92 57,-92 57,-54 125,-54 125,-92"/>
<text text-anchor="middle" x="91" y="-76.8" font-family="Times,serif" font-size="14.00">org table </text>
<text text-anchor="middle" x="91" y="-61.8" font-family="Times,serif" font-size="14.00"> latex</text>
</g>
<!-- orgTable1&#45;&gt;orgTable2 -->
<g id="edge12" class="edge"><title>orgTable1&#45;&gt;orgTable2</title>
<path fill="none" stroke="black" d="M91,-123.777C91,-117.222 91,-109.662 91,-102.444"/>
<polygon fill="black" stroke="black" points="94.5001,-102.273 91,-92.2731 87.5001,-102.273 94.5001,-102.273"/>
<text text-anchor="middle" x="126" y="-104.3" font-family="Times,serif" font-size="14.00"> Self Editing</text>
</g>
<!-- orgTable2&#45;&gt;df2 -->
<g id="edge13" class="edge"><title>orgTable2&#45;&gt;df2</title>
<path fill="none" stroke="black" d="M125.363,-73C143.549,-73 166.209,-73 186.278,-73"/>
<polygon fill="black" stroke="black" points="186.499,-76.5001 196.499,-73 186.499,-69.5001 186.499,-76.5001"/>
<text text-anchor="middle" x="160.75" y="-79.8" font-family="Times,serif" font-size="14.00">:var</text>
</g>
</g>
</svg>
