<?xml version="1.0" encoding="UTF-8" standalone="no"?>
<!DOCTYPE svg PUBLIC "-//W3C//DTD SVG 1.1//EN"
 "http://www.w3.org/Graphics/SVG/1.1/DTD/svg11.dtd">
<!-- Generated by graphviz version 2.36.0 (20140111.2315)
 -->
<!-- Title: %3 Pages: 1 -->
<svg width="363pt" height="528pt"
 viewBox="0.00 0.00 363.00 528.00" xmlns="http://www.w3.org/2000/svg" xmlns:xlink="http://www.w3.org/1999/xlink">
<g id="graph0" class="graph" transform="scale(1 1) rotate(0) translate(4 524)">
<title>%3</title>
<polygon fill="white" stroke="none" points="-4,4 -4,-524 359,-524 359,4 -4,4"/>
<!-- gls -->
<g id="node1" class="node"><title>gls</title>
<polygon fill="none" stroke="black" points="208.25,-520 135.75,-520 135.75,-484 208.25,-484 208.25,-520"/>
<text text-anchor="middle" x="172" y="-498.3" font-family="Times,serif" font-size="14.00">Glossaries</text>
</g>
<!-- nomencl -->
<g id="node2" class="node"><title>nomencl</title>
<polygon fill="none" stroke="black" points="98.25,-466 -0.25,-466 -0.25,-430 98.25,-430 98.25,-466"/>
<text text-anchor="middle" x="49" y="-444.3" font-family="Times,serif" font-size="14.00">Nomenclatrues</text>
</g>
<!-- gls&#45;&gt;nomencl -->
<g id="edge1" class="edge"><title>gls&#45;&gt;nomencl</title>
<path fill="none" stroke="black" d="M135.429,-485.539C123.917,-480.672 111.003,-475.212 98.7366,-470.027"/>
<polygon fill="black" stroke="black" points="100.091,-466.799 89.5171,-466.129 97.3649,-473.247 100.091,-466.799"/>
</g>
<!-- acro -->
<g id="node3" class="node"><title>acro</title>
<polygon fill="none" stroke="black" points="209,-466 135,-466 135,-430 209,-430 209,-466"/>
<text text-anchor="middle" x="172" y="-444.3" font-family="Times,serif" font-size="14.00">Acronyms</text>
</g>
<!-- gls&#45;&gt;acro -->
<g id="edge2" class="edge"><title>gls&#45;&gt;acro</title>
<path fill="none" stroke="black" d="M172,-483.973C172,-481.574 172,-479.059 172,-476.524"/>
<polygon fill="black" stroke="black" points="175.5,-476.243 172,-466.243 168.5,-476.243 175.5,-476.243"/>
</g>
<!-- symbol -->
<g id="node4" class="node"><title>symbol</title>
<polygon fill="none" stroke="black" points="310.25,-466 245.75,-466 245.75,-430 310.25,-430 310.25,-466"/>
<text text-anchor="middle" x="278" y="-444.3" font-family="Times,serif" font-size="14.00">Symbols</text>
</g>
<!-- gls&#45;&gt;symbol -->
<g id="edge3" class="edge"><title>gls&#45;&gt;symbol</title>
<path fill="none" stroke="black" d="M206.708,-483.973C216.226,-479.304 226.64,-474.196 236.497,-469.36"/>
<polygon fill="black" stroke="black" points="238.292,-472.378 245.729,-464.831 235.209,-466.093 238.292,-472.378"/>
</g>
<!-- xml -->
<g id="node5" class="node"><title>xml</title>
<ellipse fill="none" stroke="black" cx="172" cy="-381" rx="30.3206" ry="30.5947"/>
<text text-anchor="middle" x="172" y="-377.3" font-family="Times,serif" font-size="14.00">XML</text>
</g>
<!-- nomencl&#45;&gt;xml -->
<g id="edge4" class="edge"><title>nomencl&#45;&gt;xml</title>
<path fill="none" stroke="black" d="M81.3168,-429.922C98.1324,-421.036 118.737,-410.147 136.055,-400.996"/>
<polygon fill="black" stroke="black" points="138.086,-403.881 145.292,-396.114 134.815,-397.692 138.086,-403.881"/>
</g>
<!-- acro&#45;&gt;xml -->
<g id="edge5" class="edge"><title>acro&#45;&gt;xml</title>
<path fill="none" stroke="black" d="M172,-429.922C172,-427.4 172,-424.716 172,-421.956"/>
<polygon fill="black" stroke="black" points="175.5,-421.783 172,-411.783 168.5,-421.783 175.5,-421.783"/>
</g>
<!-- symbol&#45;&gt;xml -->
<g id="edge6" class="edge"><title>symbol&#45;&gt;xml</title>
<path fill="none" stroke="black" d="M250.15,-429.922C236.638,-421.636 220.287,-411.61 206.041,-402.874"/>
<polygon fill="black" stroke="black" points="207.841,-399.872 197.487,-397.629 204.182,-405.84 207.841,-399.872"/>
</g>
<!-- df0 -->
<g id="node6" class="node"><title>df0</title>
<polygon fill="none" stroke="blue" points="147.25,-304 68.75,-304 68.75,-266 147.25,-266 147.25,-304"/>
<text text-anchor="middle" x="108" y="-288.8" font-family="Times,serif" font-size="14.00">data.frame </text>
<text text-anchor="middle" x="108" y="-273.8" font-family="Times,serif" font-size="14.00"> raw</text>
</g>
<!-- xml&#45;&gt;df0 -->
<g id="edge7" class="edge"><title>xml&#45;&gt;df0</title>
<path fill="none" stroke="black" d="M155.185,-355.303C146.253,-342.184 135.266,-326.047 126.142,-312.647"/>
<polygon fill="black" stroke="black" points="128.977,-310.591 120.456,-304.295 123.191,-314.531 128.977,-310.591"/>
<text text-anchor="middle" x="170.5" y="-323.3" font-family="Times,serif" font-size="14.00"> web scrape</text>
</g>
<!-- orgTable0 -->
<g id="node9" class="node"><title>orgTable0</title>
<polygon fill="none" stroke="black" points="294,-304 226,-304 226,-266 294,-266 294,-304"/>
<text text-anchor="middle" x="260" y="-288.8" font-family="Times,serif" font-size="14.00">org table </text>
<text text-anchor="middle" x="260" y="-273.8" font-family="Times,serif" font-size="14.00"> raw </text>
</g>
<!-- xml&#45;&gt;orgTable0 -->
<g id="edge8" class="edge"><title>xml&#45;&gt;orgTable0</title>
<path fill="none" stroke="black" d="M192.41,-358.198C205.348,-344.378 222.149,-326.432 235.763,-311.889"/>
<polygon fill="black" stroke="black" points="238.675,-313.9 242.954,-304.208 233.565,-309.116 238.675,-313.9"/>
<text text-anchor="middle" x="264" y="-330.8" font-family="Times,serif" font-size="14.00"> paste </text>
<text text-anchor="middle" x="264" y="-315.8" font-family="Times,serif" font-size="14.00">&amp; convert</text>
</g>
<!-- df0&#45;&gt;orgTable0 -->
<g id="edge9" class="edge"><title>df0&#45;&gt;orgTable0</title>
<path fill="none" stroke="black" d="M147.539,-285C168.403,-285 194.071,-285 215.615,-285"/>
<polygon fill="black" stroke="black" points="215.82,-288.5 225.82,-285 215.82,-281.5 215.82,-288.5"/>
<text text-anchor="middle" x="186.5" y="-291.8" font-family="Times,serif" font-size="14.00"> R:print</text>
</g>
<!-- df1 -->
<g id="node7" class="node"><title>df1</title>
<polygon fill="none" stroke="blue" points="305,-220 215,-220 215,-182 305,-182 305,-220"/>
<text text-anchor="middle" x="260" y="-204.8" font-family="Times,serif" font-size="14.00">data.frame </text>
<text text-anchor="middle" x="260" y="-189.8" font-family="Times,serif" font-size="14.00"> unduplicated</text>
</g>
<!-- df2 -->
<g id="node8" class="node"><title>df2</title>
<polygon fill="none" stroke="blue" points="275.25,-120 196.75,-120 196.75,-82 275.25,-82 275.25,-120"/>
<text text-anchor="middle" x="236" y="-104.8" font-family="Times,serif" font-size="14.00">data.frame </text>
<text text-anchor="middle" x="236" y="-89.8" font-family="Times,serif" font-size="14.00"> latex</text>
</g>
<!-- glsfile -->
<g id="node12" class="node"><title>glsfile</title>
<polygon fill="none" stroke="black" points="282.25,-36 189.75,-36 189.75,-0 282.25,-0 282.25,-36"/>
<text text-anchor="middle" x="236" y="-14.3" font-family="Times,serif" font-size="14.00">Glossaries.tex</text>
</g>
<!-- df2&#45;&gt;glsfile -->
<g id="edge14" class="edge"><title>df2&#45;&gt;glsfile</title>
<path fill="none" stroke="black" d="M236,-81.6198C236,-71.1847 236,-57.9234 236,-46.2936"/>
<polygon fill="black" stroke="black" points="239.5,-46.1997 236,-36.1997 232.5,-46.1997 239.5,-46.1997"/>
<text text-anchor="middle" x="267" y="-62.8" font-family="Times,serif" font-size="14.00"> paste</text>
<text text-anchor="middle" x="267" y="-47.8" font-family="Times,serif" font-size="14.00"> write.table</text>
</g>
<!-- orgTable0&#45;&gt;df1 -->
<g id="edge10" class="edge"><title>orgTable0&#45;&gt;df1</title>
<path fill="none" stroke="black" d="M260,-265.802C260,-255.398 260,-242.122 260,-230.377"/>
<polygon fill="black" stroke="black" points="263.5,-230.148 260,-220.148 256.5,-230.148 263.5,-230.148"/>
<text text-anchor="start" x="260" y="-246.8" font-family="Times,serif" font-size="14.00"> R:!duplicate(df) </text>
<text text-anchor="middle" x="307.5" y="-231.8" font-family="Times,serif" font-size="14.00"> babel:var</text>
</g>
<!-- orgTable1 -->
<g id="node10" class="node"><title>orgTable1</title>
<polygon fill="none" stroke="black" points="136,-220 46,-220 46,-182 136,-182 136,-220"/>
<text text-anchor="middle" x="91" y="-204.8" font-family="Times,serif" font-size="14.00">org table </text>
<text text-anchor="middle" x="91" y="-189.8" font-family="Times,serif" font-size="14.00"> unduplicated</text>
</g>
<!-- orgTable1&#45;&gt;df1 -->
<g id="edge11" class="edge"><title>orgTable1&#45;&gt;df1</title>
<path fill="none" stroke="black" d="M146.559,-201C168.712,-201 193.885,-201 214.879,-201"/>
<polygon fill="black" stroke="black" points="146.289,-197.5 136.289,-201 146.289,-204.5 146.289,-197.5"/>
<text text-anchor="middle" x="175.5" y="-207.8" font-family="Times,serif" font-size="14.00"> R:print</text>
</g>
<!-- orgTable2 -->
<g id="node11" class="node"><title>orgTable2</title>
<polygon fill="none" stroke="black" points="125,-120 57,-120 57,-82 125,-82 125,-120"/>
<text text-anchor="middle" x="91" y="-104.8" font-family="Times,serif" font-size="14.00">org table </text>
<text text-anchor="middle" x="91" y="-89.8" font-family="Times,serif" font-size="14.00"> latex</text>
</g>
<!-- orgTable1&#45;&gt;orgTable2 -->
<g id="edge12" class="edge"><title>orgTable1&#45;&gt;orgTable2</title>
<path fill="none" stroke="black" d="M91,-181.567C91,-167.103 91,-146.724 91,-130.211"/>
<polygon fill="black" stroke="black" points="94.5001,-130.019 91,-120.019 87.5001,-130.019 94.5001,-130.019"/>
<text text-anchor="middle" x="130.5" y="-162.3" font-family="Times,serif" font-size="14.00"> Editing </text>
<text text-anchor="middle" x="130.5" y="-147.3" font-family="Times,serif" font-size="14.00"> format Latex </text>
<text text-anchor="middle" x="130.5" y="-132.3" font-family="Times,serif" font-size="14.00"> remove error </text>
</g>
<!-- orgTable2&#45;&gt;df2 -->
<g id="edge13" class="edge"><title>orgTable2&#45;&gt;df2</title>
<path fill="none" stroke="black" d="M125.363,-101C143.549,-101 166.209,-101 186.278,-101"/>
<polygon fill="black" stroke="black" points="186.499,-104.5 196.499,-101 186.499,-97.5001 186.499,-104.5"/>
<text text-anchor="middle" x="160.75" y="-107.8" font-family="Times,serif" font-size="14.00">:var</text>
</g>
</g>
</svg>
