<?xml version="1.0" encoding="UTF-8" standalone="no"?>
<!DOCTYPE svg PUBLIC "-//W3C//DTD SVG 1.1//EN"
 "http://www.w3.org/Graphics/SVG/1.1/DTD/svg11.dtd">
<!-- Generated by graphviz version 2.36.0 (20140111.2315)
 -->
<!-- Title: %3 Pages: 1 -->
<svg width="373pt" height="197pt"
 viewBox="0.00 0.00 373.00 196.66" xmlns="http://www.w3.org/2000/svg" xmlns:xlink="http://www.w3.org/1999/xlink">
<g id="graph0" class="graph" transform="scale(1 1) rotate(0) translate(4 192.656)">
<title>%3</title>
<polygon fill="white" stroke="none" points="-4,4 -4,-192.656 369,-192.656 369,4 -4,4"/>
<!-- gls -->
<g id="node1" class="node"><title>gls</title>
<polygon fill="none" stroke="black" points="162.25,-188.656 89.75,-188.656 89.75,-152.656 162.25,-152.656 162.25,-188.656"/>
<text text-anchor="middle" x="126" y="-166.956" font-family="Times,serif" font-size="14.00">Glossaries</text>
</g>
<!-- xml -->
<g id="node2" class="node"><title>xml</title>
<polygon fill="none" stroke="black" points="153,-120.656 99,-120.656 99,-84.6559 153,-84.6559 153,-120.656"/>
<text text-anchor="middle" x="126" y="-98.9559" font-family="Times,serif" font-size="14.00">XML</text>
</g>
<!-- gls&#45;&gt;xml -->
<g id="edge1" class="edge"><title>gls&#45;&gt;xml</title>
<path fill="none" stroke="black" d="M126,-152.315C126,-145.849 126,-138.338 126,-131.181"/>
<polygon fill="black" stroke="black" points="129.5,-131.11 126,-121.11 122.5,-131.11 129.5,-131.11"/>
<text text-anchor="middle" x="158.5" y="-132.956" font-family="Times,serif" font-size="14.00"> web scrape</text>
</g>
<!-- df0 -->
<g id="node3" class="node"><title>df0</title>
<polygon fill="none" stroke="black" points="74.25,-37.6559 -0.25,-37.6559 -0.25,-1.65594 74.25,-1.65594 74.25,-37.6559"/>
<text text-anchor="middle" x="37" y="-15.9559" font-family="Times,serif" font-size="14.00">data.frame</text>
</g>
<!-- xml&#45;&gt;df0 -->
<g id="edge2" class="edge"><title>xml&#45;&gt;df0</title>
<path fill="none" stroke="black" d="M107.125,-84.4779C94.3817,-72.8798 77.3848,-57.4107 63.3163,-44.6068"/>
<polygon fill="black" stroke="black" points="65.5989,-41.9516 55.8474,-37.8092 60.8873,-47.1286 65.5989,-41.9516"/>
<text text-anchor="middle" x="120.5" y="-57.9559" font-family="Times,serif" font-size="14.00"> web scrape</text>
</g>
<!-- orgTable -->
<g id="node5" class="node"><title>orgTable</title>
<polygon fill="none" stroke="black" points="269,-38.6559 165,-38.6559 165,-0.655936 269,-0.655936 269,-38.6559"/>
<text text-anchor="middle" x="217" y="-23.4559" font-family="Times,serif" font-size="14.00">org&#45;mode table </text>
<text text-anchor="middle" x="217" y="-8.45594" font-family="Times,serif" font-size="14.00"> sort: </text>
</g>
<!-- xml&#45;&gt;orgTable -->
<g id="edge3" class="edge"><title>xml&#45;&gt;orgTable</title>
<path fill="none" stroke="black" d="M145.299,-84.4779C157.977,-73.1932 174.771,-58.244 188.92,-45.6506"/>
<polygon fill="black" stroke="black" points="191.322,-48.198 196.464,-38.9349 186.668,-42.9693 191.322,-48.198"/>
<text text-anchor="middle" x="218" y="-65.4559" font-family="Times,serif" font-size="14.00"> paste </text>
<text text-anchor="middle" x="218" y="-50.4559" font-family="Times,serif" font-size="14.00">&amp; convert</text>
</g>
<!-- df0&#45;&gt;orgTable -->
<g id="edge4" class="edge"><title>df0&#45;&gt;orgTable</title>
<path fill="none" stroke="black" d="M74.3703,-6.79769C82.0936,-4.66053 90.2409,-2.77683 98,-1.65594 116.496,1.01599 136.593,-0.376047 154.914,-3.31856"/>
<polygon fill="black" stroke="black" points="154.43,-6.78731 164.889,-5.09684 155.659,0.104034 154.43,-6.78731"/>
<text text-anchor="middle" x="119.5" y="-5.45594" font-family="Times,serif" font-size="14.00"> R:print</text>
</g>
<!-- df1 -->
<g id="node4" class="node"><title>df1</title>
<polygon fill="none" stroke="black" points="273.25,-188.656 198.75,-188.656 198.75,-152.656 273.25,-152.656 273.25,-188.656"/>
<text text-anchor="middle" x="236" y="-166.956" font-family="Times,serif" font-size="14.00">data.frame</text>
</g>
<!-- orgTable&#45;&gt;df0 -->
<g id="edge5" class="edge"><title>orgTable&#45;&gt;df0</title>
<path fill="none" stroke="black" d="M164.736,-19.6559C139.397,-19.6559 109.184,-19.6559 84.5039,-19.6559"/>
<polygon fill="black" stroke="black" points="84.2962,-16.156 74.2961,-19.6559 84.2961,-23.156 84.2962,-16.156"/>
<text text-anchor="middle" x="119.5" y="-26.4559" font-family="Times,serif" font-size="14.00"> babel:var</text>
</g>
<!-- edit -->
<g id="node6" class="node"><title>edit</title>
<polygon fill="none" stroke="black" points="364.5,-188.656 309.5,-188.656 309.5,-152.656 364.5,-152.656 364.5,-188.656"/>
<text text-anchor="middle" x="337" y="-166.956" font-family="Times,serif" font-size="14.00">Editing</text>
</g>
</g>
</svg>
