<?xml version="1.0" encoding="UTF-8" standalone="no"?>
<!DOCTYPE svg PUBLIC "-//W3C//DTD SVG 1.1//EN"
 "http://www.w3.org/Graphics/SVG/1.1/DTD/svg11.dtd">
<!-- Generated by graphviz version 2.36.0 (20140111.2315)
 -->
<!-- Title: %3 Pages: 1 -->
<svg width="266pt" height="180pt"
 viewBox="0.00 0.00 266.00 180.00" xmlns="http://www.w3.org/2000/svg" xmlns:xlink="http://www.w3.org/1999/xlink">
<g id="graph0" class="graph" transform="scale(1 1) rotate(0) translate(4 176)">
<title>%3</title>
<polygon fill="white" stroke="none" points="-4,4 -4,-176 262,-176 262,4 -4,4"/>
<!-- xml -->
<g id="node1" class="node"><title>xml</title>
<polygon fill="none" stroke="black" points="147,-172 93,-172 93,-136 147,-136 147,-172"/>
<text text-anchor="middle" x="120" y="-150.3" font-family="Times,serif" font-size="14.00">XML</text>
</g>
<!-- df0 -->
<g id="node2" class="node"><title>df0</title>
<polygon fill="none" stroke="black" points="74.25,-104 -0.25,-104 -0.25,-68 74.25,-68 74.25,-104"/>
<text text-anchor="middle" x="37" y="-82.3" font-family="Times,serif" font-size="14.00">data.frame</text>
</g>
<!-- xml&#45;&gt;df0 -->
<g id="edge1" class="edge"><title>xml&#45;&gt;df0</title>
<path fill="none" stroke="black" d="M98.1927,-135.659C88.5664,-128.005 77.0998,-118.887 66.7088,-110.624"/>
<polygon fill="black" stroke="black" points="68.6671,-107.709 58.6616,-104.225 64.3103,-113.188 68.6671,-107.709"/>
<text text-anchor="middle" x="110.5" y="-116.3" font-family="Times,serif" font-size="14.00"> web scrape</text>
</g>
<!-- orgTable -->
<g id="node4" class="node"><title>orgTable</title>
<polygon fill="none" stroke="black" points="253,-104 153,-104 153,-68 253,-68 253,-104"/>
<text text-anchor="middle" x="203" y="-82.3" font-family="Times,serif" font-size="14.00">org&#45;mode table</text>
</g>
<!-- xml&#45;&gt;orgTable -->
<g id="edge2" class="edge"><title>xml&#45;&gt;orgTable</title>
<path fill="none" stroke="black" d="M141.807,-135.659C151.434,-128.005 162.9,-118.887 173.291,-110.624"/>
<polygon fill="black" stroke="black" points="175.69,-113.188 181.338,-104.225 171.333,-107.709 175.69,-113.188"/>
<text text-anchor="middle" x="188" y="-116.3" font-family="Times,serif" font-size="14.00"> paste</text>
</g>
<!-- df0&#45;&gt;orgTable -->
<g id="edge3" class="edge"><title>df0&#45;&gt;orgTable</title>
<path fill="none" stroke="black" d="M74.2536,-86C94.4878,-86 119.997,-86 142.961,-86"/>
<polygon fill="black" stroke="black" points="142.963,-89.5001 152.963,-86 142.963,-82.5001 142.963,-89.5001"/>
<text text-anchor="middle" x="113.5" y="-92.8" font-family="Times,serif" font-size="14.00"> R:print</text>
</g>
<!-- df1 -->
<g id="node3" class="node"><title>df1</title>
<polygon fill="none" stroke="black" points="240.25,-36 165.75,-36 165.75,-0 240.25,-0 240.25,-36"/>
<text text-anchor="middle" x="203" y="-14.3" font-family="Times,serif" font-size="14.00">data.frame</text>
</g>
<!-- orgTable&#45;&gt;df1 -->
<g id="edge4" class="edge"><title>orgTable&#45;&gt;df1</title>
<path fill="none" stroke="black" d="M203,-67.6593C203,-61.1928 203,-53.6819 203,-46.5246"/>
<polygon fill="black" stroke="black" points="206.5,-46.454 203,-36.4541 199.5,-46.4541 206.5,-46.454"/>
<text text-anchor="middle" x="230.5" y="-48.3" font-family="Times,serif" font-size="14.00"> babel:var</text>
</g>
<!-- edit -->
<g id="node5" class="node"><title>edit</title>
<polygon fill="none" stroke="black" points="238.5,-172 183.5,-172 183.5,-136 238.5,-136 238.5,-172"/>
<text text-anchor="middle" x="211" y="-150.3" font-family="Times,serif" font-size="14.00">Editing</text>
</g>
</g>
</svg>
