<?xml version="1.0" encoding="UTF-8" standalone="no"?>
<!DOCTYPE svg PUBLIC "-//W3C//DTD SVG 1.1//EN"
 "http://www.w3.org/Graphics/SVG/1.1/DTD/svg11.dtd">
<!-- Generated by graphviz version 2.36.0 (20140111.2315)
 -->
<!-- Title: %3 Pages: 1 -->
<svg width="373pt" height="334pt"
 viewBox="0.00 0.00 373.00 334.00" xmlns="http://www.w3.org/2000/svg" xmlns:xlink="http://www.w3.org/1999/xlink">
<g id="graph0" class="graph" transform="scale(1 1) rotate(0) translate(4 330)">
<title>%3</title>
<polygon fill="white" stroke="none" points="-4,4 -4,-330 369,-330 369,4 -4,4"/>
<!-- gls -->
<g id="node1" class="node"><title>gls</title>
<polygon fill="none" stroke="black" points="162.25,-326 89.75,-326 89.75,-290 162.25,-290 162.25,-326"/>
<text text-anchor="middle" x="126" y="-304.3" font-family="Times,serif" font-size="14.00">Glossaries</text>
</g>
<!-- xml -->
<g id="node2" class="node"><title>xml</title>
<polygon fill="none" stroke="black" points="153,-258 99,-258 99,-222 153,-222 153,-258"/>
<text text-anchor="middle" x="126" y="-236.3" font-family="Times,serif" font-size="14.00">XML</text>
</g>
<!-- gls&#45;&gt;xml -->
<g id="edge1" class="edge"><title>gls&#45;&gt;xml</title>
<path fill="none" stroke="black" d="M126,-289.659C126,-283.193 126,-275.682 126,-268.525"/>
<polygon fill="black" stroke="black" points="129.5,-268.454 126,-258.454 122.5,-268.454 129.5,-268.454"/>
<text text-anchor="middle" x="158.5" y="-270.3" font-family="Times,serif" font-size="14.00"> web scrape</text>
</g>
<!-- df0 -->
<g id="node3" class="node"><title>df0</title>
<polygon fill="none" stroke="black" points="74.25,-175 -0.25,-175 -0.25,-139 74.25,-139 74.25,-175"/>
<text text-anchor="middle" x="37" y="-153.3" font-family="Times,serif" font-size="14.00">data.frame</text>
</g>
<!-- xml&#45;&gt;df0 -->
<g id="edge2" class="edge"><title>xml&#45;&gt;df0</title>
<path fill="none" stroke="black" d="M107.125,-221.822C94.3817,-210.224 77.3848,-194.755 63.3163,-181.951"/>
<polygon fill="black" stroke="black" points="65.5989,-179.296 55.8474,-175.153 60.8873,-184.473 65.5989,-179.296"/>
<text text-anchor="middle" x="120.5" y="-195.3" font-family="Times,serif" font-size="14.00"> web scrape</text>
</g>
<!-- orgTable -->
<g id="node6" class="node"><title>orgTable</title>
<polygon fill="none" stroke="black" points="269,-176 165,-176 165,-138 269,-138 269,-176"/>
<text text-anchor="middle" x="217" y="-160.8" font-family="Times,serif" font-size="14.00">org&#45;mode table </text>
<text text-anchor="middle" x="217" y="-145.8" font-family="Times,serif" font-size="14.00"> sort: C&#45;c ^ </text>
</g>
<!-- xml&#45;&gt;orgTable -->
<g id="edge3" class="edge"><title>xml&#45;&gt;orgTable</title>
<path fill="none" stroke="black" d="M145.299,-221.822C157.977,-210.537 174.771,-195.588 188.92,-182.995"/>
<polygon fill="black" stroke="black" points="191.322,-185.542 196.464,-176.279 186.668,-180.313 191.322,-185.542"/>
<text text-anchor="middle" x="218" y="-202.8" font-family="Times,serif" font-size="14.00"> paste </text>
<text text-anchor="middle" x="218" y="-187.8" font-family="Times,serif" font-size="14.00">&amp; convert</text>
</g>
<!-- df0&#45;&gt;orgTable -->
<g id="edge4" class="edge"><title>df0&#45;&gt;orgTable</title>
<path fill="none" stroke="black" d="M74.3703,-144.142C82.0936,-142.005 90.2409,-140.121 98,-139 116.496,-136.328 136.593,-137.72 154.914,-140.663"/>
<polygon fill="black" stroke="black" points="154.43,-144.131 164.889,-142.441 155.659,-137.24 154.43,-144.131"/>
<text text-anchor="middle" x="119.5" y="-142.8" font-family="Times,serif" font-size="14.00"> R:print</text>
</g>
<!-- df1 -->
<g id="node4" class="node"><title>df1</title>
<polygon fill="none" stroke="black" points="254.25,-106 179.75,-106 179.75,-70 254.25,-70 254.25,-106"/>
<text text-anchor="middle" x="217" y="-84.3" font-family="Times,serif" font-size="14.00">data.frame</text>
</g>
<!-- org2 -->
<g id="node7" class="node"><title>org2</title>
<polygon fill="none" stroke="black" points="269,-38 165,-38 165,-0 269,-0 269,-38"/>
<text text-anchor="middle" x="217" y="-22.8" font-family="Times,serif" font-size="14.00">org&#45;mode table </text>
<text text-anchor="middle" x="217" y="-7.8" font-family="Times,serif" font-size="14.00"> sort: C&#45;c ^ </text>
</g>
<!-- df1&#45;&gt;org2 -->
<g id="edge7" class="edge"><title>df1&#45;&gt;org2</title>
<path fill="none" stroke="black" d="M217,-69.7458C217,-63.2853 217,-55.7612 217,-48.55"/>
<polygon fill="black" stroke="black" points="220.5,-48.3689 217,-38.369 213.5,-48.369 220.5,-48.3689"/>
<text text-anchor="middle" x="237" y="-50.3" font-family="Times,serif" font-size="14.00">Editing</text>
</g>
<!-- df2 -->
<g id="node5" class="node"><title>df2</title>
<polygon fill="none" stroke="black" points="273.25,-326 198.75,-326 198.75,-290 273.25,-290 273.25,-326"/>
<text text-anchor="middle" x="236" y="-304.3" font-family="Times,serif" font-size="14.00">data.frame</text>
</g>
<!-- orgTable&#45;&gt;df0 -->
<g id="edge5" class="edge"><title>orgTable&#45;&gt;df0</title>
<path fill="none" stroke="black" d="M164.736,-157C139.397,-157 109.184,-157 84.5039,-157"/>
<polygon fill="black" stroke="black" points="84.2962,-153.5 74.2961,-157 84.2961,-160.5 84.2962,-153.5"/>
<text text-anchor="middle" x="119.5" y="-163.8" font-family="Times,serif" font-size="14.00"> babel:var</text>
</g>
<!-- orgTable&#45;&gt;df1 -->
<g id="edge6" class="edge"><title>orgTable&#45;&gt;df1</title>
<path fill="none" stroke="black" d="M217,-137.692C217,-131.132 217,-123.586 217,-116.423"/>
<polygon fill="black" stroke="black" points="220.5,-116.363 217,-106.363 213.5,-116.363 220.5,-116.363"/>
<text text-anchor="middle" x="262.5" y="-118.3" font-family="Times,serif" font-size="14.00"> R:!duplicate(df)</text>
</g>
<!-- edit -->
<g id="node8" class="node"><title>edit</title>
<polygon fill="none" stroke="black" points="364.5,-326 309.5,-326 309.5,-290 364.5,-290 364.5,-326"/>
<text text-anchor="middle" x="337" y="-304.3" font-family="Times,serif" font-size="14.00">Editing</text>
</g>
</g>
</svg>
