<?xml version="1.0" encoding="UTF-8" standalone="no"?>
<!DOCTYPE svg PUBLIC "-//W3C//DTD SVG 1.1//EN"
 "http://www.w3.org/Graphics/SVG/1.1/DTD/svg11.dtd">
<!-- Generated by graphviz version 2.36.0 (20140111.2315)
 -->
<!-- Title: %3 Pages: 1 -->
<svg width="364pt" height="114pt"
 viewBox="0.00 0.00 364.00 113.63" xmlns="http://www.w3.org/2000/svg" xmlns:xlink="http://www.w3.org/1999/xlink">
<g id="graph0" class="graph" transform="scale(1 1) rotate(0) translate(4 109.631)">
<title>%3</title>
<polygon fill="white" stroke="none" points="-4,4 -4,-109.631 360,-109.631 360,4 -4,4"/>
<!-- xml -->
<g id="node1" class="node"><title>xml</title>
<polygon fill="none" stroke="black" points="153,-105.631 99,-105.631 99,-69.6309 153,-69.6309 153,-105.631"/>
<text text-anchor="middle" x="126" y="-83.9309" font-family="Times,serif" font-size="14.00">XML</text>
</g>
<!-- df0 -->
<g id="node2" class="node"><title>df0</title>
<polygon fill="none" stroke="black" points="74.25,-37.6309 -0.25,-37.6309 -0.25,-1.63089 74.25,-1.63089 74.25,-37.6309"/>
<text text-anchor="middle" x="37" y="-15.9309" font-family="Times,serif" font-size="14.00">data.frame</text>
</g>
<!-- xml&#45;&gt;df0 -->
<g id="edge1" class="edge"><title>xml&#45;&gt;df0</title>
<path fill="none" stroke="black" d="M102.616,-69.2902C92.1919,-61.5597 79.7549,-52.3368 68.5258,-44.0095"/>
<polygon fill="black" stroke="black" points="70.3447,-41.0011 60.2275,-37.8558 66.1751,-46.6238 70.3447,-41.0011"/>
<text text-anchor="middle" x="119.5" y="-49.9309" font-family="Times,serif" font-size="14.00"> web scrape</text>
</g>
<!-- orgTable -->
<g id="node4" class="node"><title>orgTable</title>
<polygon fill="none" stroke="black" points="265,-37.6309 165,-37.6309 165,-1.63089 265,-1.63089 265,-37.6309"/>
<text text-anchor="middle" x="215" y="-15.9309" font-family="Times,serif" font-size="14.00">org&#45;mode table</text>
</g>
<!-- xml&#45;&gt;orgTable -->
<g id="edge2" class="edge"><title>xml&#45;&gt;orgTable</title>
<path fill="none" stroke="black" d="M149.384,-69.2902C159.808,-61.5597 172.245,-52.3368 183.474,-44.0095"/>
<polygon fill="black" stroke="black" points="185.825,-46.6238 191.772,-37.8558 181.655,-41.0011 185.825,-46.6238"/>
<text text-anchor="middle" x="198" y="-49.9309" font-family="Times,serif" font-size="14.00"> paste</text>
</g>
<!-- df0&#45;&gt;orgTable -->
<g id="edge3" class="edge"><title>df0&#45;&gt;orgTable</title>
<path fill="none" stroke="black" d="M74.3703,-6.77264C82.0936,-4.63548 90.2409,-2.75178 98,-1.63089 116.535,1.04673 136.699,-0.46258 154.984,-3.51736"/>
<polygon fill="black" stroke="black" points="154.457,-6.97916 164.927,-5.35668 155.731,-0.0959442 154.457,-6.97916"/>
<text text-anchor="middle" x="119.5" y="-5.43089" font-family="Times,serif" font-size="14.00"> R:print</text>
</g>
<!-- df1 -->
<g id="node3" class="node"><title>df1</title>
<polygon fill="none" stroke="black" points="264.25,-105.631 189.75,-105.631 189.75,-69.6309 264.25,-69.6309 264.25,-105.631"/>
<text text-anchor="middle" x="227" y="-83.9309" font-family="Times,serif" font-size="14.00">data.frame</text>
</g>
<!-- orgTable&#45;&gt;df0 -->
<g id="edge4" class="edge"><title>orgTable&#45;&gt;df0</title>
<path fill="none" stroke="black" d="M164.901,-19.6309C139.73,-19.6309 109.39,-19.6309 84.5785,-19.6309"/>
<polygon fill="black" stroke="black" points="84.3147,-16.131 74.3146,-19.6309 84.3146,-23.131 84.3147,-16.131"/>
<text text-anchor="middle" x="119.5" y="-26.4309" font-family="Times,serif" font-size="14.00"> babel:var</text>
</g>
<!-- edit -->
<g id="node5" class="node"><title>edit</title>
<polygon fill="none" stroke="black" points="355.5,-105.631 300.5,-105.631 300.5,-69.6309 355.5,-69.6309 355.5,-105.631"/>
<text text-anchor="middle" x="328" y="-83.9309" font-family="Times,serif" font-size="14.00">Editing</text>
</g>
</g>
</svg>
