<?xml version="1.0" encoding="UTF-8" standalone="no"?>
<!DOCTYPE svg PUBLIC "-//W3C//DTD SVG 1.1//EN"
 "http://www.w3.org/Graphics/SVG/1.1/DTD/svg11.dtd">
<!-- Generated by graphviz version 2.36.0 (20140111.2315)
 -->
<!-- Title: %3 Pages: 1 -->
<svg width="379pt" height="180pt"
 viewBox="0.00 0.00 379.00 180.00" xmlns="http://www.w3.org/2000/svg" xmlns:xlink="http://www.w3.org/1999/xlink">
<g id="graph0" class="graph" transform="scale(1 1) rotate(0) translate(4 176)">
<title>%3</title>
<polygon fill="white" stroke="none" points="-4,4 -4,-176 375,-176 375,4 -4,4"/>
<!-- xml -->
<g id="node1" class="node"><title>xml</title>
<polygon fill="none" stroke="black" points="79,-172 25,-172 25,-136 79,-136 79,-172"/>
<text text-anchor="middle" x="52" y="-150.3" font-family="Times,serif" font-size="14.00">XML</text>
</g>
<!-- orgTable -->
<g id="node3" class="node"><title>orgTable</title>
<polygon fill="none" stroke="black" points="104,-36 0,-36 0,-0 104,-0 104,-36"/>
<text text-anchor="middle" x="52" y="-14.3" font-family="Times,serif" font-size="14.00">org&#45;mode Table</text>
</g>
<!-- xml&#45;&gt;orgTable -->
<g id="edge2" class="edge"><title>xml&#45;&gt;orgTable</title>
<path fill="none" stroke="black" d="M49.8214,-135.724C47.1578,-113.379 43,-78.5 43,-78.5 43,-78.5 45.4553,-61.9952 47.801,-46.2269"/>
<polygon fill="black" stroke="black" points="51.2901,-46.5582 49.2997,-36.152 44.3663,-45.5281 51.2901,-46.5582"/>
<text text-anchor="middle" x="29" y="-82.3" font-family="Times,serif" font-size="14.00">paste</text>
</g>
<!-- df -->
<g id="node4" class="node"><title>df</title>
<polygon fill="none" stroke="black" points="133,-104 79,-104 79,-68 133,-68 133,-104"/>
<text text-anchor="middle" x="106" y="-82.3" font-family="Times,serif" font-size="14.00">df</text>
</g>
<!-- xml&#45;&gt;df -->
<g id="edge1" class="edge"><title>xml&#45;&gt;df</title>
<path fill="none" stroke="black" d="M66.1879,-135.659C71.9708,-128.591 78.7746,-120.276 85.1057,-112.538"/>
<polygon fill="black" stroke="black" points="88.0959,-114.41 91.7194,-104.454 82.6781,-109.977 88.0959,-114.41"/>
<text text-anchor="middle" x="116.5" y="-116.3" font-family="Times,serif" font-size="14.00">web scrape</text>
</g>
<!-- df1 -->
<g id="node2" class="node"><title>df1</title>
<polygon fill="none" stroke="black" points="190.25,-172 115.75,-172 115.75,-136 190.25,-136 190.25,-172"/>
<text text-anchor="middle" x="153" y="-150.3" font-family="Times,serif" font-size="14.00">data.frame</text>
</g>
<!-- df&#45;&gt;orgTable -->
<g id="edge3" class="edge"><title>df&#45;&gt;orgTable</title>
<path fill="none" stroke="black" d="M91.8121,-67.6593C86.0292,-60.5912 79.2254,-52.2755 72.8943,-44.5375"/>
<polygon fill="black" stroke="black" points="75.3219,-41.9773 66.2806,-36.4541 69.9041,-46.41 75.3219,-41.9773"/>
<text text-anchor="middle" x="91" y="-48.3" font-family="Times,serif" font-size="14.00">R</text>
</g>
<!-- A -->
<g id="node5" class="node"><title>A</title>
<polygon fill="none" stroke="black" points="281,-172 227,-172 227,-136 281,-136 281,-172"/>
<text text-anchor="middle" x="254" y="-150.3" font-family="Times,serif" font-size="14.00">A</text>
</g>
<!-- B -->
<g id="node6" class="node"><title>B</title>
<polygon fill="none" stroke="black" points="371,-172 317,-172 317,-136 371,-136 371,-172"/>
<text text-anchor="middle" x="344" y="-150.3" font-family="Times,serif" font-size="14.00">B</text>
</g>
</g>
</svg>
