<?xml version="1.0" encoding="UTF-8" standalone="no"?>
<!DOCTYPE svg PUBLIC "-//W3C//DTD SVG 1.1//EN"
 "http://www.w3.org/Graphics/SVG/1.1/DTD/svg11.dtd">
<!-- Generated by graphviz version 2.36.0 (20140111.2315)
 -->
<!-- Title: %3 Pages: 1 -->
<svg width="436pt" height="112pt"
 viewBox="0.00 0.00 436.00 112.00" xmlns="http://www.w3.org/2000/svg" xmlns:xlink="http://www.w3.org/1999/xlink">
<g id="graph0" class="graph" transform="scale(1 1) rotate(0) translate(4 108)">
<title>%3</title>
<polygon fill="white" stroke="none" points="-4,4 -4,-108 432,-108 432,4 -4,4"/>
<!-- xml -->
<g id="node1" class="node"><title>xml</title>
<polygon fill="none" stroke="black" points="136,-104 82,-104 82,-68 136,-68 136,-104"/>
<text text-anchor="middle" x="109" y="-82.3" font-family="Times,serif" font-size="14.00">XML</text>
</g>
<!-- orgTable -->
<g id="node3" class="node"><title>orgTable</title>
<polygon fill="none" stroke="black" points="104,-36 0,-36 0,-0 104,-0 104,-36"/>
<text text-anchor="middle" x="52" y="-14.3" font-family="Times,serif" font-size="14.00">org&#45;mode Table</text>
</g>
<!-- xml&#45;&gt;orgTable -->
<g id="edge2" class="edge"><title>xml&#45;&gt;orgTable</title>
<path fill="none" stroke="black" d="M94.0239,-67.6593C87.7898,-60.4409 80.4319,-51.9211 73.6293,-44.0444"/>
<polygon fill="black" stroke="black" points="76.2591,-41.7346 67.074,-36.4541 70.9613,-46.31 76.2591,-41.7346"/>
<text text-anchor="middle" x="102" y="-48.3" font-family="Times,serif" font-size="14.00">paste</text>
</g>
<!-- df -->
<g id="node4" class="node"><title>df</title>
<polygon fill="none" stroke="black" points="194,-36 140,-36 140,-0 194,-0 194,-36"/>
<text text-anchor="middle" x="167" y="-14.3" font-family="Times,serif" font-size="14.00">df</text>
</g>
<!-- xml&#45;&gt;df -->
<g id="edge1" class="edge"><title>xml&#45;&gt;df</title>
<path fill="none" stroke="black" d="M124.239,-67.6593C130.582,-60.4409 138.069,-51.9211 144.991,-44.0444"/>
<polygon fill="black" stroke="black" points="147.689,-46.2761 151.662,-36.4541 142.431,-41.6553 147.689,-46.2761"/>
<text text-anchor="middle" x="175.5" y="-48.3" font-family="Times,serif" font-size="14.00">web scrape</text>
</g>
<!-- df1 -->
<g id="node2" class="node"><title>df1</title>
<polygon fill="none" stroke="black" points="247.25,-104 172.75,-104 172.75,-68 247.25,-68 247.25,-104"/>
<text text-anchor="middle" x="210" y="-82.3" font-family="Times,serif" font-size="14.00">data.frame</text>
</g>
<!-- A -->
<g id="node5" class="node"><title>A</title>
<polygon fill="none" stroke="black" points="338,-104 284,-104 284,-68 338,-68 338,-104"/>
<text text-anchor="middle" x="311" y="-82.3" font-family="Times,serif" font-size="14.00">A</text>
</g>
<!-- B -->
<g id="node6" class="node"><title>B</title>
<polygon fill="none" stroke="black" points="428,-104 374,-104 374,-68 428,-68 428,-104"/>
<text text-anchor="middle" x="401" y="-82.3" font-family="Times,serif" font-size="14.00">B</text>
</g>
</g>
</svg>
