<?xml version="1.0" encoding="UTF-8" standalone="no"?>
<!DOCTYPE svg PUBLIC "-//W3C//DTD SVG 1.1//EN"
 "http://www.w3.org/Graphics/SVG/1.1/DTD/svg11.dtd">
<!-- Generated by graphviz version 2.36.0 (20140111.2315)
 -->
<!-- Title: %3 Pages: 1 -->
<svg width="472pt" height="206pt"
 viewBox="0.00 0.00 472.00 206.00" xmlns="http://www.w3.org/2000/svg" xmlns:xlink="http://www.w3.org/1999/xlink">
<g id="graph0" class="graph" transform="scale(1 1) rotate(0) translate(4 202)">
<title>%3</title>
<polygon fill="white" stroke="none" points="-4,4 -4,-202 468,-202 468,4 -4,4"/>
<!-- xml -->
<g id="node1" class="node"><title>xml</title>
<polygon fill="none" stroke="black" points="172,-198 118,-198 118,-162 172,-162 172,-198"/>
<text text-anchor="middle" x="145" y="-176.3" font-family="Times,serif" font-size="14.00">XML</text>
</g>
<!-- orgTable -->
<g id="node3" class="node"><title>orgTable</title>
<polygon fill="none" stroke="black" points="104,-144 0,-144 0,-108 104,-108 104,-144"/>
<text text-anchor="middle" x="52" y="-122.3" font-family="Times,serif" font-size="14.00">org&#45;mode Table</text>
</g>
<!-- xml&#45;&gt;orgTable -->
<g id="edge2" class="edge"><title>xml&#45;&gt;orgTable</title>
<path fill="none" stroke="black" d="M117.6,-163.68C109.408,-159.099 100.259,-153.984 91.4551,-149.061"/>
<polygon fill="black" stroke="black" points="92.8961,-145.857 82.4597,-144.031 89.4799,-151.967 92.8961,-145.857"/>
</g>
<!-- df -->
<g id="node4" class="node"><title>df</title>
<polygon fill="none" stroke="black" points="161,-90 107,-90 107,-54 161,-54 161,-90"/>
<text text-anchor="middle" x="134" y="-68.3" font-family="Times,serif" font-size="14.00">df</text>
</g>
<!-- xml&#45;&gt;df -->
<g id="edge1" class="edge"><title>xml&#45;&gt;df</title>
<path fill="none" stroke="black" d="M157.074,-161.889C165.778,-148.832 176,-133.5 176,-133.5 176,-133.5 163.501,-115.197 152.139,-98.5613"/>
<polygon fill="black" stroke="black" points="154.904,-96.4035 146.374,-90.1194 149.124,-100.351 154.904,-96.4035"/>
<text text-anchor="middle" x="203.5" y="-122.3" font-family="Times,serif" font-size="14.00">web scrap</text>
</g>
<!-- df1 -->
<g id="node2" class="node"><title>df1</title>
<polygon fill="none" stroke="black" points="283.25,-198 208.75,-198 208.75,-162 283.25,-162 283.25,-198"/>
<text text-anchor="middle" x="246" y="-176.3" font-family="Times,serif" font-size="14.00">data.frame</text>
</g>
<!-- orgTable&#45;&gt;df -->
<g id="edge3" class="edge"><title>orgTable&#45;&gt;df</title>
<path fill="none" stroke="black" d="M78.8499,-107.973C85.0796,-104.023 91.8061,-99.7571 98.3478,-95.6087"/>
<polygon fill="black" stroke="black" points="100.519,-98.3762 107.09,-90.065 96.7703,-92.4647 100.519,-98.3762"/>
</g>
<!-- tex -->
<g id="node5" class="node"><title>tex</title>
<polygon fill="none" stroke="black" points="161,-36 107,-36 107,-0 161,-0 161,-36"/>
<text text-anchor="middle" x="134" y="-14.3" font-family="Times,serif" font-size="14.00">tex</text>
</g>
<!-- df&#45;&gt;tex -->
<g id="edge4" class="edge"><title>df&#45;&gt;tex</title>
<path fill="none" stroke="black" d="M134,-53.9733C134,-51.574 134,-49.0586 134,-46.5239"/>
<polygon fill="black" stroke="black" points="137.5,-46.243 134,-36.243 130.5,-46.2431 137.5,-46.243"/>
</g>
<!-- A -->
<g id="node6" class="node"><title>A</title>
<polygon fill="none" stroke="black" points="374,-198 320,-198 320,-162 374,-162 374,-198"/>
<text text-anchor="middle" x="347" y="-176.3" font-family="Times,serif" font-size="14.00">A</text>
</g>
<!-- B -->
<g id="node7" class="node"><title>B</title>
<polygon fill="none" stroke="black" points="464,-198 410,-198 410,-162 464,-162 464,-198"/>
<text text-anchor="middle" x="437" y="-176.3" font-family="Times,serif" font-size="14.00">B</text>
</g>
</g>
</svg>
