<?xml version="1.0" encoding="UTF-8" standalone="no"?>
<!DOCTYPE svg PUBLIC "-//W3C//DTD SVG 1.1//EN"
 "http://www.w3.org/Graphics/SVG/1.1/DTD/svg11.dtd">
<!-- Generated by graphviz version 2.36.0 (20140111.2315)
 -->
<!-- Title: %3 Pages: 1 -->
<svg width="365pt" height="334pt"
 viewBox="0.00 0.00 365.00 334.00" xmlns="http://www.w3.org/2000/svg" xmlns:xlink="http://www.w3.org/1999/xlink">
<g id="graph0" class="graph" transform="scale(1 1) rotate(0) translate(4 330)">
<title>%3</title>
<polygon fill="white" stroke="none" points="-4,4 -4,-330 361,-330 361,4 -4,4"/>
<!-- gls -->
<g id="node1" class="node"><title>gls</title>
<polygon fill="none" stroke="black" points="154.25,-326 81.75,-326 81.75,-290 154.25,-290 154.25,-326"/>
<text text-anchor="middle" x="118" y="-304.3" font-family="Times,serif" font-size="14.00">Glossaries</text>
</g>
<!-- xml -->
<g id="node2" class="node"><title>xml</title>
<polygon fill="none" stroke="black" points="145,-258 91,-258 91,-222 145,-222 145,-258"/>
<text text-anchor="middle" x="118" y="-236.3" font-family="Times,serif" font-size="14.00">XML</text>
</g>
<!-- gls&#45;&gt;xml -->
<g id="edge1" class="edge"><title>gls&#45;&gt;xml</title>
<path fill="none" stroke="black" d="M118,-289.659C118,-283.193 118,-275.682 118,-268.525"/>
<polygon fill="black" stroke="black" points="121.5,-268.454 118,-258.454 114.5,-268.454 121.5,-268.454"/>
<text text-anchor="middle" x="150.5" y="-270.3" font-family="Times,serif" font-size="14.00"> web scrape</text>
</g>
<!-- df0 -->
<g id="node3" class="node"><title>df0</title>
<polygon fill="none" stroke="black" points="74.25,-175 -0.25,-175 -0.25,-139 74.25,-139 74.25,-175"/>
<text text-anchor="middle" x="37" y="-153.3" font-family="Times,serif" font-size="14.00">data.frame</text>
</g>
<!-- xml&#45;&gt;df0 -->
<g id="edge2" class="edge"><title>xml&#45;&gt;df0</title>
<path fill="none" stroke="black" d="M100.822,-221.822C89.3312,-210.331 74.0409,-195.041 61.3072,-182.307"/>
<polygon fill="black" stroke="black" points="63.6992,-179.749 54.1533,-175.153 58.7495,-184.699 63.6992,-179.749"/>
<text text-anchor="middle" x="107.5" y="-195.3" font-family="Times,serif" font-size="14.00"> web scrape</text>
</g>
<!-- orgTable0 -->
<g id="node6" class="node"><title>orgTable0</title>
<polygon fill="none" stroke="black" points="233,-176 165,-176 165,-138 233,-138 233,-176"/>
<text text-anchor="middle" x="199" y="-160.8" font-family="Times,serif" font-size="14.00">org table </text>
<text text-anchor="middle" x="199" y="-145.8" font-family="Times,serif" font-size="14.00"> raw </text>
</g>
<!-- xml&#45;&gt;orgTable0 -->
<g id="edge3" class="edge"><title>xml&#45;&gt;orgTable0</title>
<path fill="none" stroke="black" d="M135.178,-221.822C146.254,-210.746 160.86,-196.14 173.303,-183.697"/>
<polygon fill="black" stroke="black" points="176.125,-185.825 180.721,-176.279 171.175,-180.875 176.125,-185.825"/>
<text text-anchor="middle" x="202" y="-202.8" font-family="Times,serif" font-size="14.00"> paste </text>
<text text-anchor="middle" x="202" y="-187.8" font-family="Times,serif" font-size="14.00">&amp; convert</text>
</g>
<!-- df0&#45;&gt;orgTable0 -->
<g id="edge4" class="edge"><title>df0&#45;&gt;orgTable0</title>
<path fill="none" stroke="black" d="M74.3703,-144.142C82.0936,-142.005 90.2409,-140.121 98,-139 116.915,-136.268 122.105,-136.135 141,-139 145.52,-139.685 150.172,-140.655 154.783,-141.792"/>
<polygon fill="black" stroke="black" points="154.174,-145.254 164.742,-144.507 156.015,-138.5 154.174,-145.254"/>
<text text-anchor="middle" x="119.5" y="-142.8" font-family="Times,serif" font-size="14.00"> R:print</text>
</g>
<!-- df1 -->
<g id="node4" class="node"><title>df1</title>
<polygon fill="none" stroke="black" points="236.25,-106 161.75,-106 161.75,-70 236.25,-70 236.25,-106"/>
<text text-anchor="middle" x="199" y="-84.3" font-family="Times,serif" font-size="14.00">data.frame</text>
</g>
<!-- orgTable1 -->
<g id="node7" class="node"><title>orgTable1</title>
<polygon fill="none" stroke="black" points="244,-38 154,-38 154,-0 244,-0 244,-38"/>
<text text-anchor="middle" x="199" y="-22.8" font-family="Times,serif" font-size="14.00">org table </text>
<text text-anchor="middle" x="199" y="-7.8" font-family="Times,serif" font-size="14.00"> unduplicated</text>
</g>
<!-- df1&#45;&gt;orgTable1 -->
<g id="edge7" class="edge"><title>df1&#45;&gt;orgTable1</title>
<path fill="none" stroke="black" d="M199,-69.7458C199,-63.2853 199,-55.7612 199,-48.55"/>
<polygon fill="black" stroke="black" points="202.5,-48.3689 199,-38.369 195.5,-48.369 202.5,-48.3689"/>
<text text-anchor="middle" x="221" y="-50.3" font-family="Times,serif" font-size="14.00"> Editing</text>
</g>
<!-- df2 -->
<g id="node5" class="node"><title>df2</title>
<polygon fill="none" stroke="black" points="265.25,-326 190.75,-326 190.75,-290 265.25,-290 265.25,-326"/>
<text text-anchor="middle" x="228" y="-304.3" font-family="Times,serif" font-size="14.00">data.frame</text>
</g>
<!-- orgTable0&#45;&gt;df0 -->
<g id="edge5" class="edge"><title>orgTable0&#45;&gt;df0</title>
<path fill="none" stroke="black" d="M164.941,-157C141.701,-157 110.589,-157 84.8645,-157"/>
<polygon fill="black" stroke="black" points="84.5733,-153.5 74.5732,-157 84.5732,-160.5 84.5733,-153.5"/>
<text text-anchor="middle" x="119.5" y="-163.8" font-family="Times,serif" font-size="14.00"> babel:var</text>
</g>
<!-- orgTable0&#45;&gt;df1 -->
<g id="edge6" class="edge"><title>orgTable0&#45;&gt;df1</title>
<path fill="none" stroke="black" d="M199,-137.692C199,-131.132 199,-123.586 199,-116.423"/>
<polygon fill="black" stroke="black" points="202.5,-116.363 199,-106.363 195.5,-116.363 202.5,-116.363"/>
<text text-anchor="middle" x="244.5" y="-118.3" font-family="Times,serif" font-size="14.00"> R:!duplicate(df)</text>
</g>
<!-- edit -->
<g id="node8" class="node"><title>edit</title>
<polygon fill="none" stroke="black" points="356.5,-326 301.5,-326 301.5,-290 356.5,-290 356.5,-326"/>
<text text-anchor="middle" x="329" y="-304.3" font-family="Times,serif" font-size="14.00">Editing</text>
</g>
</g>
</svg>
