<?xml version="1.0" encoding="UTF-8" standalone="no"?>
<!DOCTYPE svg PUBLIC "-//W3C//DTD SVG 1.1//EN"
 "http://www.w3.org/Graphics/SVG/1.1/DTD/svg11.dtd">
<!-- Generated by graphviz version 2.36.0 (20140111.2315)
 -->
<!-- Title: %3 Pages: 1 -->
<svg width="317pt" height="406pt"
 viewBox="0.00 0.00 317.00 406.00" xmlns="http://www.w3.org/2000/svg" xmlns:xlink="http://www.w3.org/1999/xlink">
<g id="graph0" class="graph" transform="scale(1 1) rotate(0) translate(4 402)">
<title>%3</title>
<polygon fill="white" stroke="none" points="-4,4 -4,-402 313,-402 313,4 -4,4"/>
<!-- gls -->
<g id="node1" class="node"><title>gls</title>
<polygon fill="none" stroke="black" points="173.25,-398 100.75,-398 100.75,-362 173.25,-362 173.25,-398"/>
<text text-anchor="middle" x="137" y="-376.3" font-family="Times,serif" font-size="14.00">Glossaries</text>
</g>
<!-- xml -->
<g id="node2" class="node"><title>xml</title>
<polygon fill="none" stroke="black" points="164,-330 110,-330 110,-294 164,-294 164,-330"/>
<text text-anchor="middle" x="137" y="-308.3" font-family="Times,serif" font-size="14.00">XML</text>
</g>
<!-- gls&#45;&gt;xml -->
<g id="edge1" class="edge"><title>gls&#45;&gt;xml</title>
<path fill="none" stroke="black" d="M137,-361.659C137,-355.193 137,-347.682 137,-340.525"/>
<polygon fill="black" stroke="black" points="140.5,-340.454 137,-330.454 133.5,-340.454 140.5,-340.454"/>
<text text-anchor="middle" x="169.5" y="-342.3" font-family="Times,serif" font-size="14.00"> web scrape</text>
</g>
<!-- df0 -->
<g id="node3" class="node"><title>df0</title>
<polygon fill="none" stroke="blue" points="101.25,-248 22.75,-248 22.75,-210 101.25,-210 101.25,-248"/>
<text text-anchor="middle" x="62" y="-232.8" font-family="Times,serif" font-size="14.00">data.frame </text>
<text text-anchor="middle" x="62" y="-217.8" font-family="Times,serif" font-size="14.00"> raw</text>
</g>
<!-- xml&#45;&gt;df0 -->
<g id="edge2" class="edge"><title>xml&#45;&gt;df0</title>
<path fill="none" stroke="black" d="M121.094,-293.822C110.839,-282.746 97.3153,-268.14 85.7933,-255.697"/>
<polygon fill="black" stroke="black" points="88.2873,-253.239 78.925,-248.279 83.1509,-257.995 88.2873,-253.239"/>
<text text-anchor="middle" x="124.5" y="-267.3" font-family="Times,serif" font-size="14.00"> web scrape</text>
</g>
<!-- orgTable0 -->
<g id="node6" class="node"><title>orgTable0</title>
<polygon fill="none" stroke="black" points="248,-248 180,-248 180,-210 248,-210 248,-248"/>
<text text-anchor="middle" x="214" y="-232.8" font-family="Times,serif" font-size="14.00">org table </text>
<text text-anchor="middle" x="214" y="-217.8" font-family="Times,serif" font-size="14.00"> raw </text>
</g>
<!-- xml&#45;&gt;orgTable0 -->
<g id="edge3" class="edge"><title>xml&#45;&gt;orgTable0</title>
<path fill="none" stroke="black" d="M153.33,-293.822C163.858,-282.746 177.743,-268.14 189.572,-255.697"/>
<polygon fill="black" stroke="black" points="192.271,-257.938 196.624,-248.279 187.197,-253.115 192.271,-257.938"/>
<text text-anchor="middle" x="218" y="-274.8" font-family="Times,serif" font-size="14.00"> paste </text>
<text text-anchor="middle" x="218" y="-259.8" font-family="Times,serif" font-size="14.00">&amp; convert</text>
</g>
<!-- df0&#45;&gt;orgTable0 -->
<g id="edge4" class="edge"><title>df0&#45;&gt;orgTable0</title>
<path fill="none" stroke="black" d="M101.539,-229C122.403,-229 148.071,-229 169.615,-229"/>
<polygon fill="black" stroke="black" points="169.82,-232.5 179.82,-229 169.82,-225.5 169.82,-232.5"/>
<text text-anchor="middle" x="140.5" y="-235.8" font-family="Times,serif" font-size="14.00"> R:print</text>
</g>
<!-- df1 -->
<g id="node4" class="node"><title>df1</title>
<polygon fill="none" stroke="blue" points="259,-164 169,-164 169,-126 259,-126 259,-164"/>
<text text-anchor="middle" x="214" y="-148.8" font-family="Times,serif" font-size="14.00">data.frame </text>
<text text-anchor="middle" x="214" y="-133.8" font-family="Times,serif" font-size="14.00"> unduplicated</text>
</g>
<!-- df2 -->
<g id="node5" class="node"><title>df2</title>
<polygon fill="none" stroke="blue" points="84.25,-38 5.75,-38 5.75,-0 84.25,-0 84.25,-38"/>
<text text-anchor="middle" x="45" y="-22.8" font-family="Times,serif" font-size="14.00">data.frame </text>
<text text-anchor="middle" x="45" y="-7.8" font-family="Times,serif" font-size="14.00"> latex</text>
</g>
<!-- orgTable0&#45;&gt;df1 -->
<g id="edge5" class="edge"><title>orgTable0&#45;&gt;df1</title>
<path fill="none" stroke="black" d="M214,-209.802C214,-199.398 214,-186.122 214,-174.377"/>
<polygon fill="black" stroke="black" points="217.5,-174.148 214,-164.148 210.5,-174.148 217.5,-174.148"/>
<text text-anchor="start" x="214" y="-190.8" font-family="Times,serif" font-size="14.00"> R:!duplicate(df) </text>
<text text-anchor="middle" x="261.5" y="-175.8" font-family="Times,serif" font-size="14.00"> babel:var</text>
</g>
<!-- orgTable1 -->
<g id="node7" class="node"><title>orgTable1</title>
<polygon fill="none" stroke="black" points="90,-164 0,-164 0,-126 90,-126 90,-164"/>
<text text-anchor="middle" x="45" y="-148.8" font-family="Times,serif" font-size="14.00">org table </text>
<text text-anchor="middle" x="45" y="-133.8" font-family="Times,serif" font-size="14.00"> unduplicated</text>
</g>
<!-- orgTable1&#45;&gt;df1 -->
<g id="edge6" class="edge"><title>orgTable1&#45;&gt;df1</title>
<path fill="none" stroke="black" d="M100.559,-145C122.712,-145 147.885,-145 168.879,-145"/>
<polygon fill="black" stroke="black" points="100.289,-141.5 90.2889,-145 100.289,-148.5 100.289,-141.5"/>
<text text-anchor="middle" x="129.5" y="-151.8" font-family="Times,serif" font-size="14.00"> R:print</text>
</g>
<!-- orgTable2 -->
<g id="node8" class="node"><title>orgTable2</title>
<polygon fill="none" stroke="black" points="79,-94 11,-94 11,-56 79,-56 79,-94"/>
<text text-anchor="middle" x="45" y="-78.8" font-family="Times,serif" font-size="14.00">org table </text>
<text text-anchor="middle" x="45" y="-63.8" font-family="Times,serif" font-size="14.00"> latex</text>
</g>
<!-- orgTable1&#45;&gt;orgTable2 -->
<g id="edge7" class="edge"><title>orgTable1&#45;&gt;orgTable2</title>
<path fill="none" stroke="black" d="M45,-125.777C45,-119.222 45,-111.662 45,-104.444"/>
<polygon fill="black" stroke="black" points="48.5001,-104.273 45,-94.2731 41.5001,-104.273 48.5001,-104.273"/>
<text text-anchor="middle" x="80" y="-106.3" font-family="Times,serif" font-size="14.00"> Self Editing</text>
</g>
<!-- orgTable2&#45;&gt;df2 -->
<g id="edge8" class="edge"><title>orgTable2&#45;&gt;df2</title>
<path fill="none" stroke="black" d="M45,-55.7181C45,-53.3429 45,-50.867 45,-48.3754"/>
<polygon fill="black" stroke="black" points="48.5001,-48.2631 45,-38.2631 41.5001,-48.2631 48.5001,-48.2631"/>
</g>
<!-- edit -->
<g id="node9" class="node"><title>edit</title>
<polygon fill="none" stroke="black" points="265.5,-398 210.5,-398 210.5,-362 265.5,-362 265.5,-398"/>
<text text-anchor="middle" x="238" y="-376.3" font-family="Times,serif" font-size="14.00">Editing</text>
</g>
</g>
</svg>
