<?xml version="1.0" encoding="UTF-8" standalone="no"?>
<!DOCTYPE svg PUBLIC "-//W3C//DTD SVG 1.1//EN"
 "http://www.w3.org/Graphics/SVG/1.1/DTD/svg11.dtd">
<!-- Generated by graphviz version 2.36.0 (20140111.2315)
 -->
<!-- Title: %3 Pages: 1 -->
<svg width="257pt" height="166pt"
 viewBox="0.00 0.00 257.00 166.00" xmlns="http://www.w3.org/2000/svg" xmlns:xlink="http://www.w3.org/1999/xlink">
<g id="graph0" class="graph" transform="scale(1 1) rotate(0) translate(4 162)">
<title>%3</title>
<polygon fill="white" stroke="none" points="-4,4 -4,-162 253,-162 253,4 -4,4"/>
<!-- xml -->
<g id="node1" class="node"><title>xml</title>
<polygon fill="none" stroke="black" points="145,-158 91,-158 91,-122 145,-122 145,-158"/>
<text text-anchor="middle" x="118" y="-136.3" font-family="Times,serif" font-size="14.00">XML</text>
</g>
<!-- df0 -->
<g id="node2" class="node"><title>df0</title>
<polygon fill="none" stroke="black" points="74.25,-90 -0.25,-90 -0.25,-54 74.25,-54 74.25,-90"/>
<text text-anchor="middle" x="37" y="-68.3" font-family="Times,serif" font-size="14.00">data.frame</text>
</g>
<!-- xml&#45;&gt;df0 -->
<g id="edge1" class="edge"><title>xml&#45;&gt;df0</title>
<path fill="none" stroke="black" d="M96.7182,-121.659C87.3239,-114.005 76.1336,-104.887 65.9929,-96.6238"/>
<polygon fill="black" stroke="black" points="68.1029,-93.8283 58.1397,-90.2249 63.6812,-99.255 68.1029,-93.8283"/>
<text text-anchor="middle" x="108.5" y="-102.3" font-family="Times,serif" font-size="14.00">web scrape</text>
</g>
<!-- orgTable -->
<g id="node4" class="node"><title>orgTable</title>
<polygon fill="none" stroke="black" points="249,-90 149,-90 149,-54 249,-54 249,-90"/>
<text text-anchor="middle" x="199" y="-68.3" font-family="Times,serif" font-size="14.00">org&#45;mode table</text>
</g>
<!-- xml&#45;&gt;orgTable -->
<g id="edge2" class="edge"><title>xml&#45;&gt;orgTable</title>
<path fill="none" stroke="black" d="M139.282,-121.659C148.676,-114.005 159.866,-104.887 170.007,-96.6238"/>
<polygon fill="black" stroke="black" points="172.319,-99.255 177.86,-90.2249 167.897,-93.8283 172.319,-99.255"/>
<text text-anchor="middle" x="183" y="-102.3" font-family="Times,serif" font-size="14.00">paste</text>
</g>
<!-- df0&#45;&gt;orgTable -->
<g id="edge3" class="edge"><title>df0&#45;&gt;orgTable</title>
<path fill="none" stroke="black" d="M74.5732,-72C93.6162,-72 117.206,-72 138.708,-72"/>
<polygon fill="black" stroke="black" points="138.741,-75.5001 148.741,-72 138.741,-68.5001 138.741,-75.5001"/>
<text text-anchor="middle" x="111.5" y="-78.8" font-family="Times,serif" font-size="14.00">R:print</text>
</g>
<!-- df1 -->
<g id="node3" class="node"><title>df1</title>
<polygon fill="none" stroke="black" points="236.25,-36 161.75,-36 161.75,-0 236.25,-0 236.25,-36"/>
<text text-anchor="middle" x="199" y="-14.3" font-family="Times,serif" font-size="14.00">data.frame</text>
</g>
<!-- orgTable&#45;&gt;df1 -->
<g id="edge4" class="edge"><title>orgTable&#45;&gt;df1</title>
<path fill="none" stroke="black" d="M199,-53.9733C199,-51.574 199,-49.0586 199,-46.5239"/>
<polygon fill="black" stroke="black" points="202.5,-46.243 199,-36.243 195.5,-46.2431 202.5,-46.243"/>
</g>
<!-- edit -->
<g id="node5" class="node"><title>edit</title>
<polygon fill="none" stroke="black" points="236.5,-158 181.5,-158 181.5,-122 236.5,-122 236.5,-158"/>
<text text-anchor="middle" x="209" y="-136.3" font-family="Times,serif" font-size="14.00">Editing</text>
</g>
</g>
</svg>
