<?xml version="1.0" encoding="UTF-8" standalone="no"?>
<!DOCTYPE svg PUBLIC "-//W3C//DTD SVG 1.1//EN"
 "http://www.w3.org/Graphics/SVG/1.1/DTD/svg11.dtd">
<!-- Generated by graphviz version 2.36.0 (20140111.2315)
 -->
<!-- Title: %3 Pages: 1 -->
<svg width="363pt" height="530pt"
 viewBox="0.00 0.00 363.00 530.00" xmlns="http://www.w3.org/2000/svg" xmlns:xlink="http://www.w3.org/1999/xlink">
<g id="graph0" class="graph" transform="scale(1 1) rotate(0) translate(4 526)">
<title>%3</title>
<polygon fill="white" stroke="none" points="-4,4 -4,-526 359,-526 359,4 -4,4"/>
<!-- gls -->
<g id="node1" class="node"><title>gls</title>
<polygon fill="none" stroke="black" points="208.25,-522 135.75,-522 135.75,-486 208.25,-486 208.25,-522"/>
<text text-anchor="middle" x="172" y="-500.3" font-family="Times,serif" font-size="14.00">Glossaries</text>
</g>
<!-- nomencl -->
<g id="node2" class="node"><title>nomencl</title>
<polygon fill="none" stroke="black" points="98.25,-468 -0.25,-468 -0.25,-432 98.25,-432 98.25,-468"/>
<text text-anchor="middle" x="49" y="-446.3" font-family="Times,serif" font-size="14.00">Nomenclatrues</text>
</g>
<!-- gls&#45;&gt;nomencl -->
<g id="edge1" class="edge"><title>gls&#45;&gt;nomencl</title>
<path fill="none" stroke="black" d="M135.429,-487.539C123.917,-482.672 111.003,-477.212 98.7366,-472.027"/>
<polygon fill="black" stroke="black" points="100.091,-468.799 89.5171,-468.129 97.3649,-475.247 100.091,-468.799"/>
</g>
<!-- acro -->
<g id="node3" class="node"><title>acro</title>
<polygon fill="none" stroke="black" points="209,-468 135,-468 135,-432 209,-432 209,-468"/>
<text text-anchor="middle" x="172" y="-446.3" font-family="Times,serif" font-size="14.00">Acronyms</text>
</g>
<!-- gls&#45;&gt;acro -->
<g id="edge2" class="edge"><title>gls&#45;&gt;acro</title>
<path fill="none" stroke="black" d="M172,-485.973C172,-483.574 172,-481.059 172,-478.524"/>
<polygon fill="black" stroke="black" points="175.5,-478.243 172,-468.243 168.5,-478.243 175.5,-478.243"/>
</g>
<!-- symbol -->
<g id="node4" class="node"><title>symbol</title>
<polygon fill="none" stroke="black" points="310.25,-468 245.75,-468 245.75,-432 310.25,-432 310.25,-468"/>
<text text-anchor="middle" x="278" y="-446.3" font-family="Times,serif" font-size="14.00">Symbols</text>
</g>
<!-- gls&#45;&gt;symbol -->
<g id="edge3" class="edge"><title>gls&#45;&gt;symbol</title>
<path fill="none" stroke="black" d="M206.708,-485.973C216.226,-481.304 226.64,-476.196 236.497,-471.36"/>
<polygon fill="black" stroke="black" points="238.292,-474.378 245.729,-466.831 235.209,-468.093 238.292,-474.378"/>
</g>
<!-- xml -->
<g id="node5" class="node"><title>xml</title>
<ellipse fill="none" stroke="black" cx="172" cy="-383" rx="30.3206" ry="30.5947"/>
<text text-anchor="middle" x="172" y="-379.3" font-family="Times,serif" font-size="14.00">XML</text>
</g>
<!-- nomencl&#45;&gt;xml -->
<g id="edge4" class="edge"><title>nomencl&#45;&gt;xml</title>
<path fill="none" stroke="black" d="M81.3168,-431.922C98.1324,-423.036 118.737,-412.147 136.055,-402.996"/>
<polygon fill="black" stroke="black" points="138.086,-405.881 145.292,-398.114 134.815,-399.692 138.086,-405.881"/>
</g>
<!-- acro&#45;&gt;xml -->
<g id="edge5" class="edge"><title>acro&#45;&gt;xml</title>
<path fill="none" stroke="black" d="M172,-431.922C172,-429.4 172,-426.716 172,-423.956"/>
<polygon fill="black" stroke="black" points="175.5,-423.783 172,-413.783 168.5,-423.783 175.5,-423.783"/>
</g>
<!-- symbol&#45;&gt;xml -->
<g id="edge6" class="edge"><title>symbol&#45;&gt;xml</title>
<path fill="none" stroke="black" d="M250.15,-431.922C236.638,-423.636 220.287,-413.61 206.041,-404.874"/>
<polygon fill="black" stroke="black" points="207.841,-401.872 197.487,-399.629 204.182,-407.84 207.841,-401.872"/>
</g>
<!-- df0 -->
<g id="node6" class="node"><title>df0</title>
<polygon fill="none" stroke="blue" points="147.25,-306 68.75,-306 68.75,-268 147.25,-268 147.25,-306"/>
<text text-anchor="middle" x="108" y="-290.8" font-family="Times,serif" font-size="14.00">data.frame </text>
<text text-anchor="middle" x="108" y="-275.8" font-family="Times,serif" font-size="14.00"> (raw)</text>
</g>
<!-- xml&#45;&gt;df0 -->
<g id="edge7" class="edge"><title>xml&#45;&gt;df0</title>
<path fill="none" stroke="black" d="M155.185,-357.303C146.253,-344.184 135.266,-328.047 126.142,-314.647"/>
<polygon fill="black" stroke="black" points="128.977,-312.591 120.456,-306.295 123.191,-316.531 128.977,-312.591"/>
<text text-anchor="middle" x="170.5" y="-325.3" font-family="Times,serif" font-size="14.00"> web scrape</text>
</g>
<!-- orgTable0 -->
<g id="node9" class="node"><title>orgTable0</title>
<polygon fill="none" stroke="black" points="294,-306 226,-306 226,-268 294,-268 294,-306"/>
<text text-anchor="middle" x="260" y="-290.8" font-family="Times,serif" font-size="14.00">org table </text>
<text text-anchor="middle" x="260" y="-275.8" font-family="Times,serif" font-size="14.00"> (raw) </text>
</g>
<!-- xml&#45;&gt;orgTable0 -->
<g id="edge8" class="edge"><title>xml&#45;&gt;orgTable0</title>
<path fill="none" stroke="black" d="M192.41,-360.198C205.348,-346.378 222.149,-328.432 235.763,-313.889"/>
<polygon fill="black" stroke="black" points="238.675,-315.9 242.954,-306.208 233.565,-311.116 238.675,-315.9"/>
<text text-anchor="middle" x="264" y="-332.8" font-family="Times,serif" font-size="14.00"> paste </text>
<text text-anchor="middle" x="264" y="-317.8" font-family="Times,serif" font-size="14.00">&amp; convert</text>
</g>
<!-- df0&#45;&gt;orgTable0 -->
<g id="edge9" class="edge"><title>df0&#45;&gt;orgTable0</title>
<path fill="none" stroke="black" d="M147.539,-287C168.403,-287 194.071,-287 215.615,-287"/>
<polygon fill="black" stroke="black" points="215.82,-290.5 225.82,-287 215.82,-283.5 215.82,-290.5"/>
<text text-anchor="middle" x="186.5" y="-293.8" font-family="Times,serif" font-size="14.00"> R:print</text>
</g>
<!-- df1 -->
<g id="node7" class="node"><title>df1</title>
<polygon fill="none" stroke="blue" points="309.25,-222 210.75,-222 210.75,-184 309.25,-184 309.25,-222"/>
<text text-anchor="middle" x="260" y="-206.8" font-family="Times,serif" font-size="14.00">data.frame </text>
<text text-anchor="middle" x="260" y="-191.8" font-family="Times,serif" font-size="14.00"> (unduplicated)</text>
</g>
<!-- df2 -->
<g id="node8" class="node"><title>df2</title>
<polygon fill="none" stroke="blue" points="266.25,-122 187.75,-122 187.75,-84 266.25,-84 266.25,-122"/>
<text text-anchor="middle" x="227" y="-106.8" font-family="Times,serif" font-size="14.00">data.frame </text>
<text text-anchor="middle" x="227" y="-91.8" font-family="Times,serif" font-size="14.00"> (latex)</text>
</g>
<!-- glsfile -->
<g id="node12" class="node"><title>glsfile</title>
<polygon fill="none" stroke="red" points="275.25,-38 178.75,-38 178.75,-0 275.25,-0 275.25,-38"/>
<text text-anchor="middle" x="227" y="-22.8" font-family="Times,serif" font-size="14.00">Glossaries.tex </text>
<text text-anchor="middle" x="227" y="-7.8" font-family="Times,serif" font-size="14.00"> keep Update</text>
</g>
<!-- df2&#45;&gt;glsfile -->
<g id="edge14" class="edge"><title>df2&#45;&gt;glsfile</title>
<path fill="none" stroke="black" d="M227,-83.8015C227,-73.3976 227,-60.1215 227,-48.3768"/>
<polygon fill="black" stroke="black" points="230.5,-48.1476 227,-38.1476 223.5,-48.1476 230.5,-48.1476"/>
<text text-anchor="middle" x="258" y="-64.8" font-family="Times,serif" font-size="14.00"> paste</text>
<text text-anchor="middle" x="258" y="-49.8" font-family="Times,serif" font-size="14.00"> write.table</text>
</g>
<!-- orgTable0&#45;&gt;df1 -->
<g id="edge10" class="edge"><title>orgTable0&#45;&gt;df1</title>
<path fill="none" stroke="black" d="M260,-267.802C260,-257.398 260,-244.122 260,-232.377"/>
<polygon fill="black" stroke="black" points="263.5,-232.148 260,-222.148 256.5,-232.148 263.5,-232.148"/>
<text text-anchor="start" x="260" y="-248.8" font-family="Times,serif" font-size="14.00"> R:!duplicate(df) </text>
<text text-anchor="middle" x="307.5" y="-233.8" font-family="Times,serif" font-size="14.00"> babel:var</text>
</g>
<!-- orgTable1 -->
<g id="node10" class="node"><title>orgTable1</title>
<polygon fill="none" stroke="black" points="131.25,-222 32.75,-222 32.75,-184 131.25,-184 131.25,-222"/>
<text text-anchor="middle" x="82" y="-206.8" font-family="Times,serif" font-size="14.00">org table </text>
<text text-anchor="middle" x="82" y="-191.8" font-family="Times,serif" font-size="14.00"> (unduplicated)</text>
</g>
<!-- orgTable1&#45;&gt;df1 -->
<g id="edge11" class="edge"><title>orgTable1&#45;&gt;df1</title>
<path fill="none" stroke="black" d="M141.664,-203C164.086,-203 189.305,-203 210.683,-203"/>
<polygon fill="black" stroke="black" points="141.583,-199.5 131.583,-203 141.583,-206.5 141.583,-199.5"/>
<text text-anchor="middle" x="170.75" y="-209.8" font-family="Times,serif" font-size="14.00"> R:print</text>
</g>
<!-- orgTable2 -->
<g id="node11" class="node"><title>orgTable2</title>
<polygon fill="none" stroke="black" points="116,-122 48,-122 48,-84 116,-84 116,-122"/>
<text text-anchor="middle" x="82" y="-106.8" font-family="Times,serif" font-size="14.00">org table </text>
<text text-anchor="middle" x="82" y="-91.8" font-family="Times,serif" font-size="14.00"> (latex)</text>
</g>
<!-- orgTable1&#45;&gt;orgTable2 -->
<g id="edge12" class="edge"><title>orgTable1&#45;&gt;orgTable2</title>
<path fill="none" stroke="black" d="M82,-183.567C82,-169.103 82,-148.724 82,-132.211"/>
<polygon fill="black" stroke="black" points="85.5001,-132.019 82,-122.019 78.5001,-132.019 85.5001,-132.019"/>
<text text-anchor="middle" x="121.5" y="-164.3" font-family="Times,serif" font-size="14.00"> unique Label </text>
<text text-anchor="middle" x="121.5" y="-149.3" font-family="Times,serif" font-size="14.00"> format Latex </text>
<text text-anchor="middle" x="121.5" y="-134.3" font-family="Times,serif" font-size="14.00"> remove Error</text>
</g>
<!-- orgTable2&#45;&gt;df2 -->
<g id="edge13" class="edge"><title>orgTable2&#45;&gt;df2</title>
<path fill="none" stroke="black" d="M116.363,-103C134.549,-103 157.209,-103 177.278,-103"/>
<polygon fill="black" stroke="black" points="177.499,-106.5 187.499,-103 177.499,-99.5001 177.499,-106.5"/>
<text text-anchor="middle" x="151.75" y="-109.8" font-family="Times,serif" font-size="14.00">:var </text>
</g>
</g>
</svg>
