<?xml version="1.0" encoding="UTF-8" standalone="no"?>
<!DOCTYPE svg PUBLIC "-//W3C//DTD SVG 1.1//EN"
 "http://www.w3.org/Graphics/SVG/1.1/DTD/svg11.dtd">
<!-- Generated by graphviz version 2.36.0 (20140111.2315)
 -->
<!-- Title: %3 Pages: 1 -->
<svg width="317pt" height="350pt"
 viewBox="0.00 0.00 317.00 350.00" xmlns="http://www.w3.org/2000/svg" xmlns:xlink="http://www.w3.org/1999/xlink">
<g id="graph0" class="graph" transform="scale(1 1) rotate(0) translate(4 346)">
<title>%3</title>
<polygon fill="white" stroke="none" points="-4,4 -4,-346 313,-346 313,4 -4,4"/>
<!-- gls -->
<g id="node1" class="node"><title>gls</title>
<polygon fill="none" stroke="black" points="173.25,-342 100.75,-342 100.75,-306 173.25,-306 173.25,-342"/>
<text text-anchor="middle" x="137" y="-320.3" font-family="Times,serif" font-size="14.00">Glossaries</text>
</g>
<!-- xml -->
<g id="node2" class="node"><title>xml</title>
<polygon fill="none" stroke="black" points="164,-274 110,-274 110,-238 164,-238 164,-274"/>
<text text-anchor="middle" x="137" y="-252.3" font-family="Times,serif" font-size="14.00">XML</text>
</g>
<!-- gls&#45;&gt;xml -->
<g id="edge1" class="edge"><title>gls&#45;&gt;xml</title>
<path fill="none" stroke="black" d="M137,-305.659C137,-299.193 137,-291.682 137,-284.525"/>
<polygon fill="black" stroke="black" points="140.5,-284.454 137,-274.454 133.5,-284.454 140.5,-284.454"/>
<text text-anchor="middle" x="169.5" y="-286.3" font-family="Times,serif" font-size="14.00"> web scrape</text>
</g>
<!-- df0 -->
<g id="node3" class="node"><title>df0</title>
<polygon fill="none" stroke="blue" points="101.25,-192 22.75,-192 22.75,-154 101.25,-154 101.25,-192"/>
<text text-anchor="middle" x="62" y="-176.8" font-family="Times,serif" font-size="14.00">data.frame </text>
<text text-anchor="middle" x="62" y="-161.8" font-family="Times,serif" font-size="14.00"> raw</text>
</g>
<!-- xml&#45;&gt;df0 -->
<g id="edge2" class="edge"><title>xml&#45;&gt;df0</title>
<path fill="none" stroke="black" d="M121.094,-237.822C110.839,-226.746 97.3153,-212.14 85.7933,-199.697"/>
<polygon fill="black" stroke="black" points="88.2873,-197.239 78.925,-192.279 83.1509,-201.995 88.2873,-197.239"/>
<text text-anchor="middle" x="124.5" y="-211.3" font-family="Times,serif" font-size="14.00"> web scrape</text>
</g>
<!-- orgTable0 -->
<g id="node6" class="node"><title>orgTable0</title>
<polygon fill="none" stroke="black" points="248,-192 180,-192 180,-154 248,-154 248,-192"/>
<text text-anchor="middle" x="214" y="-176.8" font-family="Times,serif" font-size="14.00">org table </text>
<text text-anchor="middle" x="214" y="-161.8" font-family="Times,serif" font-size="14.00"> raw </text>
</g>
<!-- xml&#45;&gt;orgTable0 -->
<g id="edge3" class="edge"><title>xml&#45;&gt;orgTable0</title>
<path fill="none" stroke="black" d="M153.33,-237.822C163.858,-226.746 177.743,-212.14 189.572,-199.697"/>
<polygon fill="black" stroke="black" points="192.271,-201.938 196.624,-192.279 187.197,-197.115 192.271,-201.938"/>
<text text-anchor="middle" x="218" y="-218.8" font-family="Times,serif" font-size="14.00"> paste </text>
<text text-anchor="middle" x="218" y="-203.8" font-family="Times,serif" font-size="14.00">&amp; convert</text>
</g>
<!-- df0&#45;&gt;orgTable0 -->
<g id="edge4" class="edge"><title>df0&#45;&gt;orgTable0</title>
<path fill="none" stroke="black" d="M101.539,-173C122.403,-173 148.071,-173 169.615,-173"/>
<polygon fill="black" stroke="black" points="169.82,-176.5 179.82,-173 169.82,-169.5 169.82,-176.5"/>
<text text-anchor="middle" x="140.5" y="-179.8" font-family="Times,serif" font-size="14.00"> R:print</text>
</g>
<!-- df1 -->
<g id="node4" class="node"><title>df1</title>
<polygon fill="none" stroke="blue" points="259,-108 169,-108 169,-70 259,-70 259,-108"/>
<text text-anchor="middle" x="214" y="-92.8" font-family="Times,serif" font-size="14.00">data.frame </text>
<text text-anchor="middle" x="214" y="-77.8" font-family="Times,serif" font-size="14.00"> unduplicated</text>
</g>
<!-- df2 -->
<g id="node5" class="node"><title>df2</title>
<polygon fill="none" stroke="blue" points="229.25,-38 150.75,-38 150.75,-0 229.25,-0 229.25,-38"/>
<text text-anchor="middle" x="190" y="-22.8" font-family="Times,serif" font-size="14.00">data.frame </text>
<text text-anchor="middle" x="190" y="-7.8" font-family="Times,serif" font-size="14.00"> latex</text>
</g>
<!-- orgTable0&#45;&gt;df1 -->
<g id="edge5" class="edge"><title>orgTable0&#45;&gt;df1</title>
<path fill="none" stroke="black" d="M214,-153.802C214,-143.398 214,-130.122 214,-118.377"/>
<polygon fill="black" stroke="black" points="217.5,-118.148 214,-108.148 210.5,-118.148 217.5,-118.148"/>
<text text-anchor="start" x="214" y="-134.8" font-family="Times,serif" font-size="14.00"> R:!duplicate(df) </text>
<text text-anchor="middle" x="261.5" y="-119.8" font-family="Times,serif" font-size="14.00"> babel:var</text>
</g>
<!-- orgTable1 -->
<g id="node7" class="node"><title>orgTable1</title>
<polygon fill="none" stroke="black" points="90,-108 0,-108 0,-70 90,-70 90,-108"/>
<text text-anchor="middle" x="45" y="-92.8" font-family="Times,serif" font-size="14.00">org table </text>
<text text-anchor="middle" x="45" y="-77.8" font-family="Times,serif" font-size="14.00"> unduplicated</text>
</g>
<!-- orgTable1&#45;&gt;df1 -->
<g id="edge6" class="edge"><title>orgTable1&#45;&gt;df1</title>
<path fill="none" stroke="black" d="M100.559,-89C122.712,-89 147.885,-89 168.879,-89"/>
<polygon fill="black" stroke="black" points="100.289,-85.5001 90.2889,-89 100.289,-92.5001 100.289,-85.5001"/>
<text text-anchor="middle" x="129.5" y="-95.8" font-family="Times,serif" font-size="14.00"> R:print</text>
</g>
<!-- orgTable2 -->
<g id="node8" class="node"><title>orgTable2</title>
<polygon fill="none" stroke="black" points="79,-38 11,-38 11,-0 79,-0 79,-38"/>
<text text-anchor="middle" x="45" y="-22.8" font-family="Times,serif" font-size="14.00">org table </text>
<text text-anchor="middle" x="45" y="-7.8" font-family="Times,serif" font-size="14.00"> latex</text>
</g>
<!-- orgTable1&#45;&gt;orgTable2 -->
<g id="edge7" class="edge"><title>orgTable1&#45;&gt;orgTable2</title>
<path fill="none" stroke="black" d="M45,-69.7772C45,-63.2221 45,-55.6616 45,-48.4444"/>
<polygon fill="black" stroke="black" points="48.5001,-48.273 45,-38.2731 41.5001,-48.2731 48.5001,-48.273"/>
<text text-anchor="middle" x="80" y="-50.3" font-family="Times,serif" font-size="14.00"> Self Editing</text>
</g>
<!-- orgTable2&#45;&gt;df2 -->
<g id="edge8" class="edge"><title>orgTable2&#45;&gt;df2</title>
<path fill="none" stroke="black" d="M79.363,-19C97.5485,-19 120.209,-19 140.278,-19"/>
<polygon fill="black" stroke="black" points="140.499,-22.5001 150.499,-19 140.499,-15.5001 140.499,-22.5001"/>
<text text-anchor="middle" x="114.75" y="-25.8" font-family="Times,serif" font-size="14.00">:var</text>
</g>
</g>
</svg>
