<?xml version="1.0" encoding="UTF-8" standalone="no"?>
<!DOCTYPE svg PUBLIC "-//W3C//DTD SVG 1.1//EN"
 "http://www.w3.org/Graphics/SVG/1.1/DTD/svg11.dtd">
<!-- Generated by graphviz version 2.36.0 (20140111.2315)
 -->
<!-- Title: %3 Pages: 1 -->
<svg width="254pt" height="112pt"
 viewBox="0.00 0.00 254.00 112.00" xmlns="http://www.w3.org/2000/svg" xmlns:xlink="http://www.w3.org/1999/xlink">
<g id="graph0" class="graph" transform="scale(1 1) rotate(0) translate(4 108)">
<title>%3</title>
<polygon fill="white" stroke="none" points="-4,4 -4,-108 250,-108 250,4 -4,4"/>
<!-- xml -->
<g id="node1" class="node"><title>xml</title>
<polygon fill="none" stroke="black" points="135,-104 81,-104 81,-68 135,-68 135,-104"/>
<text text-anchor="middle" x="108" y="-82.3" font-family="Times,serif" font-size="14.00">XML</text>
</g>
<!-- orgTable -->
<g id="node3" class="node"><title>orgTable</title>
<polygon fill="none" stroke="black" points="230,-36 126,-36 126,-0 230,-0 230,-36"/>
<text text-anchor="middle" x="178" y="-14.3" font-family="Times,serif" font-size="14.00">org&#45;mode Table</text>
</g>
<!-- xml&#45;&gt;orgTable -->
<g id="edge2" class="edge"><title>xml&#45;&gt;orgTable</title>
<path fill="none" stroke="black" d="M126.392,-67.6593C134.207,-60.2905 143.461,-51.5656 151.959,-43.553"/>
<polygon fill="black" stroke="black" points="154.613,-45.8608 159.488,-36.4541 149.811,-40.7676 154.613,-45.8608"/>
<text text-anchor="middle" x="165" y="-48.3" font-family="Times,serif" font-size="14.00">paste</text>
</g>
<!-- df -->
<g id="node4" class="node"><title>df</title>
<polygon fill="none" stroke="black" points="54,-36 0,-36 0,-0 54,-0 54,-36"/>
<text text-anchor="middle" x="27" y="-14.3" font-family="Times,serif" font-size="14.00">df</text>
</g>
<!-- xml&#45;&gt;df -->
<g id="edge1" class="edge"><title>xml&#45;&gt;df</title>
<path fill="none" stroke="black" d="M86.7182,-67.6593C77.3239,-60.0046 66.1336,-50.8866 55.9929,-42.6238"/>
<polygon fill="black" stroke="black" points="58.1029,-39.8283 48.1397,-36.2249 53.6812,-45.255 58.1029,-39.8283"/>
<text text-anchor="middle" x="94.5" y="-48.3" font-family="Times,serif" font-size="14.00">web scrape</text>
</g>
<!-- df1 -->
<g id="node2" class="node"><title>df1</title>
<polygon fill="none" stroke="black" points="246.25,-104 171.75,-104 171.75,-68 246.25,-68 246.25,-104"/>
<text text-anchor="middle" x="209" y="-82.3" font-family="Times,serif" font-size="14.00">data.frame</text>
</g>
<!-- df&#45;&gt;orgTable -->
<g id="edge3" class="edge"><title>df&#45;&gt;orgTable</title>
<path fill="none" stroke="black" d="M54.345,-18C71.5133,-18 94.3832,-18 115.783,-18"/>
<polygon fill="black" stroke="black" points="115.811,-21.5001 125.811,-18 115.811,-14.5001 115.811,-21.5001"/>
<text text-anchor="middle" x="90" y="-24.8" font-family="Times,serif" font-size="14.00">R</text>
</g>
</g>
</svg>
