<?xml version="1.0" encoding="UTF-8" standalone="no"?>
<!DOCTYPE svg PUBLIC "-//W3C//DTD SVG 1.1//EN"
 "http://www.w3.org/Graphics/SVG/1.1/DTD/svg11.dtd">
<!-- Generated by graphviz version 2.36.0 (20140111.2315)
 -->
<!-- Title: %3 Pages: 1 -->
<svg width="363pt" height="498pt"
 viewBox="0.00 0.00 363.00 498.00" xmlns="http://www.w3.org/2000/svg" xmlns:xlink="http://www.w3.org/1999/xlink">
<g id="graph0" class="graph" transform="scale(1 1) rotate(0) translate(4 494)">
<title>%3</title>
<polygon fill="white" stroke="none" points="-4,4 -4,-494 359,-494 359,4 -4,4"/>
<!-- gls -->
<g id="node1" class="node"><title>gls</title>
<polygon fill="none" stroke="black" points="208.25,-490 135.75,-490 135.75,-454 208.25,-454 208.25,-490"/>
<text text-anchor="middle" x="172" y="-468.3" font-family="Times,serif" font-size="14.00">Glossaries</text>
</g>
<!-- nomencl -->
<g id="node2" class="node"><title>nomencl</title>
<polygon fill="none" stroke="black" points="98.25,-436 -0.25,-436 -0.25,-400 98.25,-400 98.25,-436"/>
<text text-anchor="middle" x="49" y="-414.3" font-family="Times,serif" font-size="14.00">Nomenclatrues</text>
</g>
<!-- gls&#45;&gt;nomencl -->
<g id="edge1" class="edge"><title>gls&#45;&gt;nomencl</title>
<path fill="none" stroke="black" d="M135.429,-455.539C123.917,-450.672 111.003,-445.212 98.7366,-440.027"/>
<polygon fill="black" stroke="black" points="100.091,-436.799 89.5171,-436.129 97.3649,-443.247 100.091,-436.799"/>
</g>
<!-- acro -->
<g id="node3" class="node"><title>acro</title>
<polygon fill="none" stroke="black" points="209,-436 135,-436 135,-400 209,-400 209,-436"/>
<text text-anchor="middle" x="172" y="-414.3" font-family="Times,serif" font-size="14.00">Acronyms</text>
</g>
<!-- gls&#45;&gt;acro -->
<g id="edge2" class="edge"><title>gls&#45;&gt;acro</title>
<path fill="none" stroke="black" d="M172,-453.973C172,-451.574 172,-449.059 172,-446.524"/>
<polygon fill="black" stroke="black" points="175.5,-446.243 172,-436.243 168.5,-446.243 175.5,-446.243"/>
</g>
<!-- symbol -->
<g id="node4" class="node"><title>symbol</title>
<polygon fill="none" stroke="black" points="310.25,-436 245.75,-436 245.75,-400 310.25,-400 310.25,-436"/>
<text text-anchor="middle" x="278" y="-414.3" font-family="Times,serif" font-size="14.00">Symbols</text>
</g>
<!-- gls&#45;&gt;symbol -->
<g id="edge3" class="edge"><title>gls&#45;&gt;symbol</title>
<path fill="none" stroke="black" d="M206.708,-453.973C216.226,-449.304 226.64,-444.196 236.497,-439.36"/>
<polygon fill="black" stroke="black" points="238.292,-442.378 245.729,-434.831 235.209,-436.093 238.292,-442.378"/>
</g>
<!-- xml -->
<g id="node5" class="node"><title>xml</title>
<ellipse fill="none" stroke="black" cx="172" cy="-351" rx="30.3206" ry="30.5947"/>
<text text-anchor="middle" x="172" y="-347.3" font-family="Times,serif" font-size="14.00">XML</text>
</g>
<!-- nomencl&#45;&gt;xml -->
<g id="edge4" class="edge"><title>nomencl&#45;&gt;xml</title>
<path fill="none" stroke="black" d="M81.3168,-399.922C98.1324,-391.036 118.737,-380.147 136.055,-370.996"/>
<polygon fill="black" stroke="black" points="138.086,-373.881 145.292,-366.114 134.815,-367.692 138.086,-373.881"/>
</g>
<!-- acro&#45;&gt;xml -->
<g id="edge5" class="edge"><title>acro&#45;&gt;xml</title>
<path fill="none" stroke="black" d="M172,-399.922C172,-397.4 172,-394.716 172,-391.956"/>
<polygon fill="black" stroke="black" points="175.5,-391.783 172,-381.783 168.5,-391.783 175.5,-391.783"/>
</g>
<!-- symbol&#45;&gt;xml -->
<g id="edge6" class="edge"><title>symbol&#45;&gt;xml</title>
<path fill="none" stroke="black" d="M250.15,-399.922C236.638,-391.636 220.287,-381.61 206.041,-372.874"/>
<polygon fill="black" stroke="black" points="207.841,-369.872 197.487,-367.629 204.182,-375.84 207.841,-369.872"/>
</g>
<!-- df0 -->
<g id="node6" class="node"><title>df0</title>
<polygon fill="none" stroke="blue" points="147.25,-274 68.75,-274 68.75,-236 147.25,-236 147.25,-274"/>
<text text-anchor="middle" x="108" y="-258.8" font-family="Times,serif" font-size="14.00">data.frame </text>
<text text-anchor="middle" x="108" y="-243.8" font-family="Times,serif" font-size="14.00"> raw</text>
</g>
<!-- xml&#45;&gt;df0 -->
<g id="edge7" class="edge"><title>xml&#45;&gt;df0</title>
<path fill="none" stroke="black" d="M155.185,-325.303C146.253,-312.184 135.266,-296.047 126.142,-282.647"/>
<polygon fill="black" stroke="black" points="128.977,-280.591 120.456,-274.295 123.191,-284.531 128.977,-280.591"/>
<text text-anchor="middle" x="170.5" y="-293.3" font-family="Times,serif" font-size="14.00"> web scrape</text>
</g>
<!-- orgTable0 -->
<g id="node9" class="node"><title>orgTable0</title>
<polygon fill="none" stroke="black" points="294,-274 226,-274 226,-236 294,-236 294,-274"/>
<text text-anchor="middle" x="260" y="-258.8" font-family="Times,serif" font-size="14.00">org table </text>
<text text-anchor="middle" x="260" y="-243.8" font-family="Times,serif" font-size="14.00"> raw </text>
</g>
<!-- xml&#45;&gt;orgTable0 -->
<g id="edge8" class="edge"><title>xml&#45;&gt;orgTable0</title>
<path fill="none" stroke="black" d="M192.41,-328.198C205.348,-314.378 222.149,-296.432 235.763,-281.889"/>
<polygon fill="black" stroke="black" points="238.675,-283.9 242.954,-274.208 233.565,-279.116 238.675,-283.9"/>
<text text-anchor="middle" x="264" y="-300.8" font-family="Times,serif" font-size="14.00"> paste </text>
<text text-anchor="middle" x="264" y="-285.8" font-family="Times,serif" font-size="14.00">&amp; convert</text>
</g>
<!-- df0&#45;&gt;orgTable0 -->
<g id="edge9" class="edge"><title>df0&#45;&gt;orgTable0</title>
<path fill="none" stroke="black" d="M147.539,-255C168.403,-255 194.071,-255 215.615,-255"/>
<polygon fill="black" stroke="black" points="215.82,-258.5 225.82,-255 215.82,-251.5 215.82,-258.5"/>
<text text-anchor="middle" x="186.5" y="-261.8" font-family="Times,serif" font-size="14.00"> R:print</text>
</g>
<!-- df1 -->
<g id="node7" class="node"><title>df1</title>
<polygon fill="none" stroke="blue" points="305,-190 215,-190 215,-152 305,-152 305,-190"/>
<text text-anchor="middle" x="260" y="-174.8" font-family="Times,serif" font-size="14.00">data.frame </text>
<text text-anchor="middle" x="260" y="-159.8" font-family="Times,serif" font-size="14.00"> unduplicated</text>
</g>
<!-- df2 -->
<g id="node8" class="node"><title>df2</title>
<polygon fill="none" stroke="blue" points="275.25,-120 196.75,-120 196.75,-82 275.25,-82 275.25,-120"/>
<text text-anchor="middle" x="236" y="-104.8" font-family="Times,serif" font-size="14.00">data.frame </text>
<text text-anchor="middle" x="236" y="-89.8" font-family="Times,serif" font-size="14.00"> latex</text>
</g>
<!-- glsfile -->
<g id="node12" class="node"><title>glsfile</title>
<polygon fill="none" stroke="black" points="282.25,-36 189.75,-36 189.75,-0 282.25,-0 282.25,-36"/>
<text text-anchor="middle" x="236" y="-14.3" font-family="Times,serif" font-size="14.00">Glossaries.tex</text>
</g>
<!-- df2&#45;&gt;glsfile -->
<g id="edge14" class="edge"><title>df2&#45;&gt;glsfile</title>
<path fill="none" stroke="black" d="M236,-81.6198C236,-71.1847 236,-57.9234 236,-46.2936"/>
<polygon fill="black" stroke="black" points="239.5,-46.1997 236,-36.1997 232.5,-46.1997 239.5,-46.1997"/>
<text text-anchor="middle" x="267" y="-62.8" font-family="Times,serif" font-size="14.00"> paste</text>
<text text-anchor="middle" x="267" y="-47.8" font-family="Times,serif" font-size="14.00"> write.table</text>
</g>
<!-- orgTable0&#45;&gt;df1 -->
<g id="edge10" class="edge"><title>orgTable0&#45;&gt;df1</title>
<path fill="none" stroke="black" d="M260,-235.802C260,-225.398 260,-212.122 260,-200.377"/>
<polygon fill="black" stroke="black" points="263.5,-200.148 260,-190.148 256.5,-200.148 263.5,-200.148"/>
<text text-anchor="start" x="260" y="-216.8" font-family="Times,serif" font-size="14.00"> R:!duplicate(df) </text>
<text text-anchor="middle" x="307.5" y="-201.8" font-family="Times,serif" font-size="14.00"> babel:var</text>
</g>
<!-- orgTable1 -->
<g id="node10" class="node"><title>orgTable1</title>
<polygon fill="none" stroke="black" points="136,-190 46,-190 46,-152 136,-152 136,-190"/>
<text text-anchor="middle" x="91" y="-174.8" font-family="Times,serif" font-size="14.00">org table </text>
<text text-anchor="middle" x="91" y="-159.8" font-family="Times,serif" font-size="14.00"> unduplicated</text>
</g>
<!-- orgTable1&#45;&gt;df1 -->
<g id="edge11" class="edge"><title>orgTable1&#45;&gt;df1</title>
<path fill="none" stroke="black" d="M146.559,-171C168.712,-171 193.885,-171 214.879,-171"/>
<polygon fill="black" stroke="black" points="146.289,-167.5 136.289,-171 146.289,-174.5 146.289,-167.5"/>
<text text-anchor="middle" x="175.5" y="-177.8" font-family="Times,serif" font-size="14.00"> R:print</text>
</g>
<!-- orgTable2 -->
<g id="node11" class="node"><title>orgTable2</title>
<polygon fill="none" stroke="black" points="125,-120 57,-120 57,-82 125,-82 125,-120"/>
<text text-anchor="middle" x="91" y="-104.8" font-family="Times,serif" font-size="14.00">org table </text>
<text text-anchor="middle" x="91" y="-89.8" font-family="Times,serif" font-size="14.00"> latex</text>
</g>
<!-- orgTable1&#45;&gt;orgTable2 -->
<g id="edge12" class="edge"><title>orgTable1&#45;&gt;orgTable2</title>
<path fill="none" stroke="black" d="M91,-151.777C91,-145.222 91,-137.662 91,-130.444"/>
<polygon fill="black" stroke="black" points="94.5001,-130.273 91,-120.273 87.5001,-130.273 94.5001,-130.273"/>
<text text-anchor="middle" x="126" y="-132.3" font-family="Times,serif" font-size="14.00"> Self Editing</text>
</g>
<!-- orgTable2&#45;&gt;df2 -->
<g id="edge13" class="edge"><title>orgTable2&#45;&gt;df2</title>
<path fill="none" stroke="black" d="M125.363,-101C143.549,-101 166.209,-101 186.278,-101"/>
<polygon fill="black" stroke="black" points="186.499,-104.5 196.499,-101 186.499,-97.5001 186.499,-104.5"/>
<text text-anchor="middle" x="160.75" y="-107.8" font-family="Times,serif" font-size="14.00">:var</text>
</g>
</g>
</svg>
