<?xml version="1.0" encoding="UTF-8" standalone="no"?>
<!DOCTYPE svg PUBLIC "-//W3C//DTD SVG 1.1//EN"
 "http://www.w3.org/Graphics/SVG/1.1/DTD/svg11.dtd">
<!-- Generated by graphviz version 2.36.0 (20140111.2315)
 -->
<!-- Title: %3 Pages: 1 -->
<svg width="364pt" height="388pt"
 viewBox="0.00 0.00 364.00 388.00" xmlns="http://www.w3.org/2000/svg" xmlns:xlink="http://www.w3.org/1999/xlink">
<g id="graph0" class="graph" transform="scale(1 1) rotate(0) translate(4 384)">
<title>%3</title>
<polygon fill="white" stroke="none" points="-4,4 -4,-384 360,-384 360,4 -4,4"/>
<!-- gls -->
<g id="node1" class="node"><title>gls</title>
<polygon fill="none" stroke="black" points="153.25,-380 80.75,-380 80.75,-344 153.25,-344 153.25,-380"/>
<text text-anchor="middle" x="117" y="-358.3" font-family="Times,serif" font-size="14.00">Glossaries</text>
</g>
<!-- xml -->
<g id="node2" class="node"><title>xml</title>
<polygon fill="none" stroke="black" points="144,-312 90,-312 90,-276 144,-276 144,-312"/>
<text text-anchor="middle" x="117" y="-290.3" font-family="Times,serif" font-size="14.00">XML</text>
</g>
<!-- gls&#45;&gt;xml -->
<g id="edge1" class="edge"><title>gls&#45;&gt;xml</title>
<path fill="none" stroke="black" d="M117,-343.659C117,-337.193 117,-329.682 117,-322.525"/>
<polygon fill="black" stroke="black" points="120.5,-322.454 117,-312.454 113.5,-322.454 120.5,-322.454"/>
<text text-anchor="middle" x="149.5" y="-324.3" font-family="Times,serif" font-size="14.00"> web scrape</text>
</g>
<!-- df0 -->
<g id="node3" class="node"><title>df0</title>
<polygon fill="none" stroke="black" points="94.25,-244 19.75,-244 19.75,-208 94.25,-208 94.25,-244"/>
<text text-anchor="middle" x="57" y="-222.3" font-family="Times,serif" font-size="14.00">data.frame</text>
</g>
<!-- xml&#45;&gt;df0 -->
<g id="edge2" class="edge"><title>xml&#45;&gt;df0</title>
<path fill="none" stroke="black" d="M101.236,-275.659C94.6735,-268.441 86.9283,-259.921 79.7676,-252.044"/>
<polygon fill="black" stroke="black" points="82.1839,-249.499 72.8673,-244.454 77.0043,-254.208 82.1839,-249.499"/>
<text text-anchor="middle" x="106.5" y="-256.3" font-family="Times,serif" font-size="14.00"> web scrape</text>
</g>
<!-- orgTable0 -->
<g id="node6" class="node"><title>orgTable0</title>
<polygon fill="none" stroke="black" points="122,-176 54,-176 54,-138 122,-138 122,-176"/>
<text text-anchor="middle" x="88" y="-160.8" font-family="Times,serif" font-size="14.00">org table </text>
<text text-anchor="middle" x="88" y="-145.8" font-family="Times,serif" font-size="14.00"> raw </text>
</g>
<!-- xml&#45;&gt;orgTable0 -->
<g id="edge3" class="edge"><title>xml&#45;&gt;orgTable0</title>
<path fill="none" stroke="black" d="M134.207,-275.76C148.67,-260.429 167,-241 167,-241 167,-241 135.984,-208.021 112.82,-183.391"/>
<polygon fill="black" stroke="black" points="115.327,-180.948 105.926,-176.061 110.228,-185.743 115.327,-180.948"/>
<text text-anchor="middle" x="195" y="-229.8" font-family="Times,serif" font-size="14.00"> paste </text>
<text text-anchor="middle" x="195" y="-214.8" font-family="Times,serif" font-size="14.00">&amp; convert</text>
</g>
<!-- df0&#45;&gt;orgTable0 -->
<g id="edge4" class="edge"><title>df0&#45;&gt;orgTable0</title>
<path fill="none" stroke="black" d="M64.9833,-207.746C68.1115,-200.985 71.7787,-193.059 75.2549,-185.546"/>
<polygon fill="black" stroke="black" points="78.4782,-186.914 79.5009,-176.369 72.1252,-183.975 78.4782,-186.914"/>
<text text-anchor="middle" x="21.5" y="-188.3" font-family="Times,serif" font-size="14.00"> R:print</text>
</g>
<!-- df1 -->
<g id="node4" class="node"><title>df1</title>
<polygon fill="none" stroke="black" points="125.25,-106 50.75,-106 50.75,-70 125.25,-70 125.25,-106"/>
<text text-anchor="middle" x="88" y="-84.3" font-family="Times,serif" font-size="14.00">data.frame</text>
</g>
<!-- orgTable1 -->
<g id="node7" class="node"><title>orgTable1</title>
<polygon fill="none" stroke="black" points="133,-38 43,-38 43,-0 133,-0 133,-38"/>
<text text-anchor="middle" x="88" y="-22.8" font-family="Times,serif" font-size="14.00">org table </text>
<text text-anchor="middle" x="88" y="-7.8" font-family="Times,serif" font-size="14.00"> unduplicated</text>
</g>
<!-- df1&#45;&gt;orgTable1 -->
<g id="edge7" class="edge"><title>df1&#45;&gt;orgTable1</title>
<path fill="none" stroke="black" d="M88,-69.7458C88,-63.2853 88,-55.7612 88,-48.55"/>
<polygon fill="black" stroke="black" points="91.5001,-48.3689 88,-38.369 84.5001,-48.369 91.5001,-48.3689"/>
<text text-anchor="middle" x="110" y="-50.3" font-family="Times,serif" font-size="14.00"> Editing</text>
</g>
<!-- df2 -->
<g id="node5" class="node"><title>df2</title>
<polygon fill="none" stroke="black" points="264.25,-380 189.75,-380 189.75,-344 264.25,-344 264.25,-380"/>
<text text-anchor="middle" x="227" y="-358.3" font-family="Times,serif" font-size="14.00">data.frame</text>
</g>
<!-- orgTable0&#45;&gt;df0 -->
<g id="edge5" class="edge"><title>orgTable0&#45;&gt;df0</title>
<path fill="none" stroke="black" d="M79.5009,-176.369C76.3869,-183.099 72.7957,-190.861 69.4095,-198.179"/>
<polygon fill="black" stroke="black" points="66.006,-197.2 64.9833,-207.746 72.359,-200.14 66.006,-197.2"/>
<text text-anchor="middle" x="103.5" y="-188.3" font-family="Times,serif" font-size="14.00"> babel:var</text>
</g>
<!-- orgTable0&#45;&gt;df1 -->
<g id="edge6" class="edge"><title>orgTable0&#45;&gt;df1</title>
<path fill="none" stroke="black" d="M88,-137.692C88,-131.132 88,-123.586 88,-116.423"/>
<polygon fill="black" stroke="black" points="91.5001,-116.363 88,-106.363 84.5001,-116.363 91.5001,-116.363"/>
<text text-anchor="middle" x="133.5" y="-118.3" font-family="Times,serif" font-size="14.00"> R:!duplicate(df)</text>
</g>
<!-- edit -->
<g id="node8" class="node"><title>edit</title>
<polygon fill="none" stroke="black" points="355.5,-380 300.5,-380 300.5,-344 355.5,-344 355.5,-380"/>
<text text-anchor="middle" x="328" y="-358.3" font-family="Times,serif" font-size="14.00">Editing</text>
</g>
<!-- orgTable -->
<g id="node9" class="node"><title>orgTable</title>
<polygon fill="none" stroke="black" points="324.25,-244 259.75,-244 259.75,-208 324.25,-208 324.25,-244"/>
<text text-anchor="middle" x="292" y="-222.3" font-family="Times,serif" font-size="14.00">orgTable</text>
</g>
</g>
</svg>
