<?xml version="1.0" encoding="UTF-8" standalone="no"?>
<!DOCTYPE svg PUBLIC "-//W3C//DTD SVG 1.1//EN"
 "http://www.w3.org/Graphics/SVG/1.1/DTD/svg11.dtd">
<!-- Generated by graphviz version 2.36.0 (20140111.2315)
 -->
<!-- Title: %3 Pages: 1 -->
<svg width="470pt" height="282pt"
 viewBox="0.00 0.00 470.00 282.00" xmlns="http://www.w3.org/2000/svg" xmlns:xlink="http://www.w3.org/1999/xlink">
<g id="graph0" class="graph" transform="scale(1 1) rotate(0) translate(4 278)">
<title>%3</title>
<polygon fill="white" stroke="none" points="-4,4 -4,-278 466,-278 466,4 -4,4"/>
<!-- gls -->
<g id="node1" class="node"><title>gls</title>
<polygon fill="none" stroke="black" points="150.25,-273 77.75,-273 77.75,-237 150.25,-237 150.25,-273"/>
<text text-anchor="middle" x="114" y="-251.3" font-family="Times,serif" font-size="14.00">Glossaries</text>
</g>
<!-- xml -->
<g id="node2" class="node"><title>xml</title>
<polygon fill="none" stroke="black" points="141,-204 87,-204 87,-168 141,-168 141,-204"/>
<text text-anchor="middle" x="114" y="-182.3" font-family="Times,serif" font-size="14.00">XML</text>
</g>
<!-- gls&#45;&gt;xml -->
<g id="edge1" class="edge"><title>gls&#45;&gt;xml</title>
<path fill="none" stroke="black" d="M114,-236.746C114,-229.999 114,-222.093 114,-214.594"/>
<polygon fill="black" stroke="black" points="117.5,-214.429 114,-204.429 110.5,-214.429 117.5,-214.429"/>
<text text-anchor="middle" x="146.5" y="-216.3" font-family="Times,serif" font-size="14.00"> web scrape</text>
</g>
<!-- df0 -->
<g id="node3" class="node"><title>df0</title>
<polygon fill="none" stroke="black" points="78.25,-122 -0.25,-122 -0.25,-84 78.25,-84 78.25,-122"/>
<text text-anchor="middle" x="39" y="-106.8" font-family="Times,serif" font-size="14.00">data.frame </text>
<text text-anchor="middle" x="39" y="-91.8" font-family="Times,serif" font-size="14.00"> raw</text>
</g>
<!-- xml&#45;&gt;df0 -->
<g id="edge2" class="edge"><title>xml&#45;&gt;df0</title>
<path fill="none" stroke="black" d="M98.0944,-167.822C87.8391,-156.746 74.3153,-142.14 62.7933,-129.697"/>
<polygon fill="black" stroke="black" points="65.2873,-127.239 55.925,-122.279 60.1509,-131.995 65.2873,-127.239"/>
<text text-anchor="middle" x="101.5" y="-141.3" font-family="Times,serif" font-size="14.00"> web scrape</text>
</g>
<!-- orgTable0 -->
<g id="node6" class="node"><title>orgTable0</title>
<polygon fill="none" stroke="black" points="225,-122 157,-122 157,-84 225,-84 225,-122"/>
<text text-anchor="middle" x="191" y="-106.8" font-family="Times,serif" font-size="14.00">org table </text>
<text text-anchor="middle" x="191" y="-91.8" font-family="Times,serif" font-size="14.00"> raw </text>
</g>
<!-- xml&#45;&gt;orgTable0 -->
<g id="edge3" class="edge"><title>xml&#45;&gt;orgTable0</title>
<path fill="none" stroke="black" d="M130.33,-167.822C140.858,-156.746 154.743,-142.14 166.572,-129.697"/>
<polygon fill="black" stroke="black" points="169.271,-131.938 173.624,-122.279 164.197,-127.115 169.271,-131.938"/>
<text text-anchor="middle" x="195" y="-148.8" font-family="Times,serif" font-size="14.00"> paste </text>
<text text-anchor="middle" x="195" y="-133.8" font-family="Times,serif" font-size="14.00">&amp; convert</text>
</g>
<!-- df0&#45;&gt;orgTable0 -->
<g id="edge4" class="edge"><title>df0&#45;&gt;orgTable0</title>
<path fill="none" stroke="black" d="M78.5394,-103C99.4031,-103 125.071,-103 146.615,-103"/>
<polygon fill="black" stroke="black" points="146.82,-106.5 156.82,-103 146.82,-99.5001 146.82,-106.5"/>
<text text-anchor="middle" x="117.5" y="-109.8" font-family="Times,serif" font-size="14.00"> R:print</text>
</g>
<!-- df1 -->
<g id="node4" class="node"><title>df1</title>
<polygon fill="none" stroke="black" points="236,-38 146,-38 146,-0 236,-0 236,-38"/>
<text text-anchor="middle" x="191" y="-22.8" font-family="Times,serif" font-size="14.00">data.frame </text>
<text text-anchor="middle" x="191" y="-7.8" font-family="Times,serif" font-size="14.00"> unduplicated</text>
</g>
<!-- orgTable1 -->
<g id="node7" class="node"><title>orgTable1</title>
<polygon fill="none" stroke="black" points="405,-38 315,-38 315,-0 405,-0 405,-38"/>
<text text-anchor="middle" x="360" y="-22.8" font-family="Times,serif" font-size="14.00">org table </text>
<text text-anchor="middle" x="360" y="-7.8" font-family="Times,serif" font-size="14.00"> unduplicated</text>
</g>
<!-- df1&#45;&gt;orgTable1 -->
<g id="edge6" class="edge"><title>df1&#45;&gt;orgTable1</title>
<path fill="none" stroke="black" d="M236.289,-19C257.306,-19 282.481,-19 304.619,-19"/>
<polygon fill="black" stroke="black" points="304.879,-22.5001 314.879,-19 304.879,-15.5001 304.879,-22.5001"/>
<text text-anchor="middle" x="275.5" y="-25.8" font-family="Times,serif" font-size="14.00"> R:print</text>
</g>
<!-- df2 -->
<g id="node5" class="node"><title>df2</title>
<polygon fill="none" stroke="black" points="265.25,-274 186.75,-274 186.75,-236 265.25,-236 265.25,-274"/>
<text text-anchor="middle" x="226" y="-258.8" font-family="Times,serif" font-size="14.00">data.frame </text>
<text text-anchor="middle" x="226" y="-243.8" font-family="Times,serif" font-size="14.00"> latex</text>
</g>
<!-- orgTable0&#45;&gt;df1 -->
<g id="edge5" class="edge"><title>orgTable0&#45;&gt;df1</title>
<path fill="none" stroke="black" d="M191,-83.8015C191,-73.3976 191,-60.1215 191,-48.3768"/>
<polygon fill="black" stroke="black" points="194.5,-48.1476 191,-38.1476 187.5,-48.1476 194.5,-48.1476"/>
<text text-anchor="start" x="191" y="-64.8" font-family="Times,serif" font-size="14.00"> R:!duplicate(df) </text>
<text text-anchor="middle" x="238.5" y="-49.8" font-family="Times,serif" font-size="14.00"> babel:var</text>
</g>
<!-- orgTable2 -->
<g id="node8" class="node"><title>orgTable2</title>
<polygon fill="none" stroke="black" points="370,-274 302,-274 302,-236 370,-236 370,-274"/>
<text text-anchor="middle" x="336" y="-258.8" font-family="Times,serif" font-size="14.00">org table </text>
<text text-anchor="middle" x="336" y="-243.8" font-family="Times,serif" font-size="14.00"> latex</text>
</g>
<!-- edit -->
<g id="node9" class="node"><title>edit</title>
<polygon fill="none" stroke="black" points="461.5,-273 406.5,-273 406.5,-237 461.5,-237 461.5,-273"/>
<text text-anchor="middle" x="434" y="-251.3" font-family="Times,serif" font-size="14.00">Editing</text>
</g>
</g>
</svg>
