<?xml version="1.0" encoding="UTF-8" standalone="no"?>
<!DOCTYPE svg PUBLIC "-//W3C//DTD SVG 1.1//EN"
 "http://www.w3.org/Graphics/SVG/1.1/DTD/svg11.dtd">
<!-- Generated by graphviz version 2.36.0 (20140111.2315)
 -->
<!-- Title: %3 Pages: 1 -->
<svg width="257pt" height="112pt"
 viewBox="0.00 0.00 257.00 112.00" xmlns="http://www.w3.org/2000/svg" xmlns:xlink="http://www.w3.org/1999/xlink">
<g id="graph0" class="graph" transform="scale(1 1) rotate(0) translate(4 108)">
<title>%3</title>
<polygon fill="white" stroke="none" points="-4,4 -4,-108 253,-108 253,4 -4,4"/>
<!-- xml -->
<g id="node1" class="node"><title>xml</title>
<polygon fill="none" stroke="black" points="145,-104 91,-104 91,-68 145,-68 145,-104"/>
<text text-anchor="middle" x="118" y="-82.3" font-family="Times,serif" font-size="14.00">XML</text>
</g>
<!-- df0 -->
<g id="node2" class="node"><title>df0</title>
<polygon fill="none" stroke="black" points="74.25,-36 -0.25,-36 -0.25,-0 74.25,-0 74.25,-36"/>
<text text-anchor="middle" x="37" y="-14.3" font-family="Times,serif" font-size="14.00">data.frame</text>
</g>
<!-- xml&#45;&gt;df0 -->
<g id="edge1" class="edge"><title>xml&#45;&gt;df0</title>
<path fill="none" stroke="black" d="M96.7182,-67.6593C87.3239,-60.0046 76.1336,-50.8866 65.9929,-42.6238"/>
<polygon fill="black" stroke="black" points="68.1029,-39.8283 58.1397,-36.2249 63.6812,-45.255 68.1029,-39.8283"/>
<text text-anchor="middle" x="108.5" y="-48.3" font-family="Times,serif" font-size="14.00">web scrape</text>
</g>
<!-- orgTable -->
<g id="node3" class="node"><title>orgTable</title>
<polygon fill="none" stroke="black" points="249,-36 149,-36 149,-0 249,-0 249,-36"/>
<text text-anchor="middle" x="199" y="-14.3" font-family="Times,serif" font-size="14.00">org&#45;mode table</text>
</g>
<!-- xml&#45;&gt;orgTable -->
<g id="edge2" class="edge"><title>xml&#45;&gt;orgTable</title>
<path fill="none" stroke="black" d="M139.282,-67.6593C148.676,-60.0046 159.866,-50.8866 170.007,-42.6238"/>
<polygon fill="black" stroke="black" points="172.319,-45.255 177.86,-36.2249 167.897,-39.8283 172.319,-45.255"/>
<text text-anchor="middle" x="183" y="-48.3" font-family="Times,serif" font-size="14.00">paste</text>
</g>
<!-- df0&#45;&gt;orgTable -->
<g id="edge3" class="edge"><title>df0&#45;&gt;orgTable</title>
<path fill="none" stroke="black" d="M74.5732,-18C93.6162,-18 117.206,-18 138.708,-18"/>
<polygon fill="black" stroke="black" points="138.741,-21.5001 148.741,-18 138.741,-14.5001 138.741,-21.5001"/>
<text text-anchor="middle" x="111.5" y="-24.8" font-family="Times,serif" font-size="14.00">R:print</text>
</g>
<!-- edit -->
<g id="node4" class="node"><title>edit</title>
<polygon fill="none" stroke="black" points="236.5,-104 181.5,-104 181.5,-68 236.5,-68 236.5,-104"/>
<text text-anchor="middle" x="209" y="-82.3" font-family="Times,serif" font-size="14.00">Editing</text>
</g>
</g>
</svg>
