<?xml version="1.0" encoding="UTF-8" standalone="no"?>
<!DOCTYPE svg PUBLIC "-//W3C//DTD SVG 1.1//EN"
 "http://www.w3.org/Graphics/SVG/1.1/DTD/svg11.dtd">
<!-- Generated by graphviz version 2.36.0 (20140111.2315)
 -->
<!-- Title: %3 Pages: 1 -->
<svg width="637pt" height="336pt"
 viewBox="0.00 0.00 637.00 336.00" xmlns="http://www.w3.org/2000/svg" xmlns:xlink="http://www.w3.org/1999/xlink">
<g id="graph0" class="graph" transform="scale(1 1) rotate(0) translate(4 332)">
<title>%3</title>
<polygon fill="white" stroke="none" points="-4,4 -4,-332 633,-332 633,4 -4,4"/>
<!-- gls -->
<g id="node1" class="node"><title>gls</title>
<polygon fill="none" stroke="black" points="208.25,-328 135.75,-328 135.75,-292 208.25,-292 208.25,-328"/>
<text text-anchor="middle" x="172" y="-306.3" font-family="Times,serif" font-size="14.00">Glossaries</text>
</g>
<!-- nomencl -->
<g id="node2" class="node"><title>nomencl</title>
<polygon fill="none" stroke="black" points="98.25,-245 -0.25,-245 -0.25,-209 98.25,-209 98.25,-245"/>
<text text-anchor="middle" x="49" y="-223.3" font-family="Times,serif" font-size="14.00">Nomenclatrues</text>
</g>
<!-- gls&#45;&gt;nomencl -->
<g id="edge1" class="edge"><title>gls&#45;&gt;nomencl</title>
<path fill="none" stroke="black" d="M145.915,-291.822C127.732,-279.848 103.284,-263.748 83.4926,-250.715"/>
<polygon fill="black" stroke="black" points="85.3242,-247.73 75.0475,-245.153 81.4743,-253.576 85.3242,-247.73"/>
</g>
<!-- acro -->
<g id="node3" class="node"><title>acro</title>
<polygon fill="none" stroke="black" points="209,-245 135,-245 135,-209 209,-209 209,-245"/>
<text text-anchor="middle" x="172" y="-223.3" font-family="Times,serif" font-size="14.00">Acronyms</text>
</g>
<!-- gls&#45;&gt;acro -->
<g id="edge2" class="edge"><title>gls&#45;&gt;acro</title>
<path fill="none" stroke="black" d="M172,-291.822C172,-281.19 172,-267.306 172,-255.204"/>
<polygon fill="black" stroke="black" points="175.5,-255.153 172,-245.153 168.5,-255.153 175.5,-255.153"/>
</g>
<!-- symbols -->
<g id="node13" class="node"><title>symbols</title>
<polygon fill="none" stroke="black" points="306.5,-245 245.5,-245 245.5,-209 306.5,-209 306.5,-245"/>
<text text-anchor="middle" x="276" y="-223.3" font-family="Times,serif" font-size="14.00">symbols</text>
</g>
<!-- gls&#45;&gt;symbols -->
<g id="edge3" class="edge"><title>gls&#45;&gt;symbols</title>
<path fill="none" stroke="black" d="M194.056,-291.822C209.085,-280.116 229.177,-264.468 245.704,-251.596"/>
<polygon fill="black" stroke="black" points="248.237,-254.059 253.976,-245.153 243.936,-248.537 248.237,-254.059"/>
</g>
<!-- symbol -->
<g id="node4" class="node"><title>symbol</title>
<polygon fill="none" stroke="black" points="357.25,-328 292.75,-328 292.75,-292 357.25,-292 357.25,-328"/>
<text text-anchor="middle" x="325" y="-306.3" font-family="Times,serif" font-size="14.00">Symbols</text>
</g>
<!-- xml -->
<g id="node5" class="node"><title>xml</title>
<polygon fill="none" stroke="black" points="484,-328 430,-328 430,-292 484,-292 484,-328"/>
<text text-anchor="middle" x="457" y="-306.3" font-family="Times,serif" font-size="14.00">XML</text>
</g>
<!-- df0 -->
<g id="node6" class="node"><title>df0</title>
<polygon fill="none" stroke="blue" points="421.25,-246 342.75,-246 342.75,-208 421.25,-208 421.25,-246"/>
<text text-anchor="middle" x="382" y="-230.8" font-family="Times,serif" font-size="14.00">data.frame </text>
<text text-anchor="middle" x="382" y="-215.8" font-family="Times,serif" font-size="14.00"> raw</text>
</g>
<!-- xml&#45;&gt;df0 -->
<g id="edge4" class="edge"><title>xml&#45;&gt;df0</title>
<path fill="none" stroke="black" d="M441.094,-291.822C430.839,-280.746 417.315,-266.14 405.793,-253.697"/>
<polygon fill="black" stroke="black" points="408.287,-251.239 398.925,-246.279 403.151,-255.995 408.287,-251.239"/>
<text text-anchor="middle" x="444.5" y="-265.3" font-family="Times,serif" font-size="14.00"> web scrape</text>
</g>
<!-- orgTable0 -->
<g id="node9" class="node"><title>orgTable0</title>
<polygon fill="none" stroke="black" points="568,-246 500,-246 500,-208 568,-208 568,-246"/>
<text text-anchor="middle" x="534" y="-230.8" font-family="Times,serif" font-size="14.00">org table </text>
<text text-anchor="middle" x="534" y="-215.8" font-family="Times,serif" font-size="14.00"> raw </text>
</g>
<!-- xml&#45;&gt;orgTable0 -->
<g id="edge5" class="edge"><title>xml&#45;&gt;orgTable0</title>
<path fill="none" stroke="black" d="M473.33,-291.822C483.858,-280.746 497.743,-266.14 509.572,-253.697"/>
<polygon fill="black" stroke="black" points="512.271,-255.938 516.624,-246.279 507.197,-251.115 512.271,-255.938"/>
<text text-anchor="middle" x="538" y="-272.8" font-family="Times,serif" font-size="14.00"> paste </text>
<text text-anchor="middle" x="538" y="-257.8" font-family="Times,serif" font-size="14.00">&amp; convert</text>
</g>
<!-- df0&#45;&gt;orgTable0 -->
<g id="edge6" class="edge"><title>df0&#45;&gt;orgTable0</title>
<path fill="none" stroke="black" d="M421.539,-227C442.403,-227 468.071,-227 489.615,-227"/>
<polygon fill="black" stroke="black" points="489.82,-230.5 499.82,-227 489.82,-223.5 489.82,-230.5"/>
<text text-anchor="middle" x="460.5" y="-233.8" font-family="Times,serif" font-size="14.00"> R:print</text>
</g>
<!-- df1 -->
<g id="node7" class="node"><title>df1</title>
<polygon fill="none" stroke="blue" points="579,-162 489,-162 489,-124 579,-124 579,-162"/>
<text text-anchor="middle" x="534" y="-146.8" font-family="Times,serif" font-size="14.00">data.frame </text>
<text text-anchor="middle" x="534" y="-131.8" font-family="Times,serif" font-size="14.00"> unduplicated</text>
</g>
<!-- df2 -->
<g id="node8" class="node"><title>df2</title>
<polygon fill="none" stroke="blue" points="549.25,-92 470.75,-92 470.75,-54 549.25,-54 549.25,-92"/>
<text text-anchor="middle" x="510" y="-76.8" font-family="Times,serif" font-size="14.00">data.frame </text>
<text text-anchor="middle" x="510" y="-61.8" font-family="Times,serif" font-size="14.00"> latex</text>
</g>
<!-- glsfile -->
<g id="node12" class="node"><title>glsfile</title>
<polygon fill="none" stroke="black" points="556.25,-36 463.75,-36 463.75,-0 556.25,-0 556.25,-36"/>
<text text-anchor="middle" x="510" y="-14.3" font-family="Times,serif" font-size="14.00">Glossaries.tex</text>
</g>
<!-- df2&#45;&gt;glsfile -->
<g id="edge11" class="edge"><title>df2&#45;&gt;glsfile</title>
<path fill="none" stroke="black" d="M510,-53.7604C510,-51.335 510,-48.807 510,-46.2696"/>
<polygon fill="black" stroke="black" points="513.5,-46.0247 510,-36.0247 506.5,-46.0248 513.5,-46.0247"/>
</g>
<!-- orgTable0&#45;&gt;df1 -->
<g id="edge7" class="edge"><title>orgTable0&#45;&gt;df1</title>
<path fill="none" stroke="black" d="M534,-207.802C534,-197.398 534,-184.122 534,-172.377"/>
<polygon fill="black" stroke="black" points="537.5,-172.148 534,-162.148 530.5,-172.148 537.5,-172.148"/>
<text text-anchor="start" x="534" y="-188.8" font-family="Times,serif" font-size="14.00"> R:!duplicate(df) </text>
<text text-anchor="middle" x="581.5" y="-173.8" font-family="Times,serif" font-size="14.00"> babel:var</text>
</g>
<!-- orgTable1 -->
<g id="node10" class="node"><title>orgTable1</title>
<polygon fill="none" stroke="black" points="410,-162 320,-162 320,-124 410,-124 410,-162"/>
<text text-anchor="middle" x="365" y="-146.8" font-family="Times,serif" font-size="14.00">org table </text>
<text text-anchor="middle" x="365" y="-131.8" font-family="Times,serif" font-size="14.00"> unduplicated</text>
</g>
<!-- orgTable1&#45;&gt;df1 -->
<g id="edge8" class="edge"><title>orgTable1&#45;&gt;df1</title>
<path fill="none" stroke="black" d="M420.559,-143C442.712,-143 467.885,-143 488.879,-143"/>
<polygon fill="black" stroke="black" points="420.289,-139.5 410.289,-143 420.289,-146.5 420.289,-139.5"/>
<text text-anchor="middle" x="449.5" y="-149.8" font-family="Times,serif" font-size="14.00"> R:print</text>
</g>
<!-- orgTable2 -->
<g id="node11" class="node"><title>orgTable2</title>
<polygon fill="none" stroke="black" points="399,-92 331,-92 331,-54 399,-54 399,-92"/>
<text text-anchor="middle" x="365" y="-76.8" font-family="Times,serif" font-size="14.00">org table </text>
<text text-anchor="middle" x="365" y="-61.8" font-family="Times,serif" font-size="14.00"> latex</text>
</g>
<!-- orgTable1&#45;&gt;orgTable2 -->
<g id="edge9" class="edge"><title>orgTable1&#45;&gt;orgTable2</title>
<path fill="none" stroke="black" d="M365,-123.777C365,-117.222 365,-109.662 365,-102.444"/>
<polygon fill="black" stroke="black" points="368.5,-102.273 365,-92.2731 361.5,-102.273 368.5,-102.273"/>
<text text-anchor="middle" x="400" y="-104.3" font-family="Times,serif" font-size="14.00"> Self Editing</text>
</g>
<!-- orgTable2&#45;&gt;df2 -->
<g id="edge10" class="edge"><title>orgTable2&#45;&gt;df2</title>
<path fill="none" stroke="black" d="M399.363,-73C417.549,-73 440.209,-73 460.278,-73"/>
<polygon fill="black" stroke="black" points="460.499,-76.5001 470.499,-73 460.499,-69.5001 460.499,-76.5001"/>
<text text-anchor="middle" x="434.75" y="-79.8" font-family="Times,serif" font-size="14.00">:var</text>
</g>
</g>
</svg>
