<?xml version="1.0" encoding="UTF-8" standalone="no"?>
<!DOCTYPE svg PUBLIC "-//W3C//DTD SVG 1.1//EN"
 "http://www.w3.org/Graphics/SVG/1.1/DTD/svg11.dtd">
<!-- Generated by graphviz version 2.36.0 (20140111.2315)
 -->
<!-- Title: %3 Pages: 1 -->
<svg width="282pt" height="112pt"
 viewBox="0.00 0.00 282.00 112.00" xmlns="http://www.w3.org/2000/svg" xmlns:xlink="http://www.w3.org/1999/xlink">
<g id="graph0" class="graph" transform="scale(1 1) rotate(0) translate(4 108)">
<title>%3</title>
<polygon fill="white" stroke="none" points="-4,4 -4,-108 278,-108 278,4 -4,4"/>
<!-- xml -->
<g id="node1" class="node"><title>xml</title>
<polygon fill="none" stroke="black" points="157,-104 103,-104 103,-68 157,-68 157,-104"/>
<text text-anchor="middle" x="130" y="-82.3" font-family="Times,serif" font-size="14.00">XML</text>
</g>
<!-- df0 -->
<g id="node2" class="node"><title>df0</title>
<polygon fill="none" stroke="black" points="74.25,-36 -0.25,-36 -0.25,-0 74.25,-0 74.25,-36"/>
<text text-anchor="middle" x="37" y="-14.3" font-family="Times,serif" font-size="14.00">data.frame</text>
</g>
<!-- xml&#45;&gt;df0 -->
<g id="edge1" class="edge"><title>xml&#45;&gt;df0</title>
<path fill="none" stroke="black" d="M105.565,-67.6593C94.5657,-59.853 81.4215,-50.5249 69.5979,-42.134"/>
<polygon fill="black" stroke="black" points="71.4522,-39.1581 61.2715,-36.2249 67.4009,-44.8667 71.4522,-39.1581"/>
<text text-anchor="middle" x="125.5" y="-48.3" font-family="Times,serif" font-size="14.00">web scrape</text>
</g>
<!-- orgTable -->
<g id="node3" class="node"><title>orgTable</title>
<polygon fill="none" stroke="black" points="274,-36 174,-36 174,-0 274,-0 274,-36"/>
<text text-anchor="middle" x="224" y="-14.3" font-family="Times,serif" font-size="14.00">org&#45;mode table</text>
</g>
<!-- xml&#45;&gt;orgTable -->
<g id="edge2" class="edge"><title>xml&#45;&gt;orgTable</title>
<path fill="none" stroke="black" d="M154.697,-67.6593C165.815,-59.853 179.101,-50.5249 191.052,-42.134"/>
<polygon fill="black" stroke="black" points="193.295,-44.8357 199.468,-36.2249 189.272,-39.1068 193.295,-44.8357"/>
<text text-anchor="middle" x="203" y="-48.3" font-family="Times,serif" font-size="14.00">paste</text>
</g>
<!-- df0&#45;&gt;orgTable -->
<g id="edge3" class="edge"><title>df0&#45;&gt;orgTable</title>
<path fill="none" stroke="black" d="M84.4989,-18C108.631,-18 138.207,-18 163.907,-18"/>
<polygon fill="black" stroke="black" points="84.3928,-14.5001 74.3928,-18 84.3928,-21.5001 84.3928,-14.5001"/>
<polygon fill="black" stroke="black" points="163.914,-21.5001 173.914,-18 163.914,-14.5001 163.914,-21.5001"/>
<text text-anchor="middle" x="124" y="-39.8" font-family="Times,serif" font-size="14.00">var </text>
<text text-anchor="middle" x="124" y="-24.8" font-family="Times,serif" font-size="14.00"> #+tblname</text>
</g>
<!-- edit -->
<g id="node4" class="node"><title>edit</title>
<polygon fill="none" stroke="black" points="248.5,-104 193.5,-104 193.5,-68 248.5,-68 248.5,-104"/>
<text text-anchor="middle" x="221" y="-82.3" font-family="Times,serif" font-size="14.00">Editing</text>
</g>
</g>
</svg>
