<?xml version="1.0" encoding="UTF-8" standalone="no"?>
<!DOCTYPE svg PUBLIC "-//W3C//DTD SVG 1.1//EN"
 "http://www.w3.org/Graphics/SVG/1.1/DTD/svg11.dtd">
<!-- Generated by graphviz version 2.36.0 (20140111.2315)
 -->
<!-- Title: %3 Pages: 1 -->
<svg width="254pt" height="112pt"
 viewBox="0.00 0.00 254.00 112.00" xmlns="http://www.w3.org/2000/svg" xmlns:xlink="http://www.w3.org/1999/xlink">
<g id="graph0" class="graph" transform="scale(1 1) rotate(0) translate(4 108)">
<title>%3</title>
<polygon fill="white" stroke="none" points="-4,4 -4,-108 250,-108 250,4 -4,4"/>
<!-- xml -->
<g id="node1" class="node"><title>xml</title>
<polygon fill="none" stroke="black" points="143,-104 89,-104 89,-68 143,-68 143,-104"/>
<text text-anchor="middle" x="116" y="-82.3" font-family="Times,serif" font-size="14.00">XML</text>
</g>
<!-- df0 -->
<g id="node2" class="node"><title>df0</title>
<polygon fill="none" stroke="black" points="74.25,-36 -0.25,-36 -0.25,-0 74.25,-0 74.25,-36"/>
<text text-anchor="middle" x="37" y="-14.3" font-family="Times,serif" font-size="14.00">data.frame</text>
</g>
<!-- xml&#45;&gt;df0 -->
<g id="edge1" class="edge"><title>xml&#45;&gt;df0</title>
<path fill="none" stroke="black" d="M95.2437,-67.6593C86.172,-60.0804 75.3833,-51.067 65.5711,-42.8695"/>
<polygon fill="black" stroke="black" points="67.536,-39.9503 57.6177,-36.2249 63.048,-45.3223 67.536,-39.9503"/>
<text text-anchor="middle" x="105.5" y="-48.3" font-family="Times,serif" font-size="14.00">web scrape</text>
</g>
<!-- orgTable -->
<g id="node3" class="node"><title>orgTable</title>
<polygon fill="none" stroke="black" points="246,-36 146,-36 146,-0 246,-0 246,-36"/>
<text text-anchor="middle" x="196" y="-14.3" font-family="Times,serif" font-size="14.00">org&#45;mode table</text>
</g>
<!-- xml&#45;&gt;orgTable -->
<g id="edge2" class="edge"><title>xml&#45;&gt;orgTable</title>
<path fill="none" stroke="black" d="M137.019,-67.6593C146.297,-60.0046 157.35,-50.8866 167.365,-42.6238"/>
<polygon fill="black" stroke="black" points="169.635,-45.2886 175.121,-36.2249 165.18,-39.889 169.635,-45.2886"/>
<text text-anchor="middle" x="180" y="-48.3" font-family="Times,serif" font-size="14.00">paste</text>
</g>
<!-- df0&#45;&gt;orgTable -->
<g id="edge3" class="edge"><title>df0&#45;&gt;orgTable</title>
<path fill="none" stroke="black" d="M74.2784,-18C92.4955,-18 114.879,-18 135.462,-18"/>
<polygon fill="black" stroke="black" points="135.712,-21.5001 145.712,-18 135.712,-14.5001 135.712,-21.5001"/>
<text text-anchor="middle" x="110" y="-24.8" font-family="Times,serif" font-size="14.00">read</text>
</g>
<!-- edit -->
<g id="node4" class="node"><title>edit</title>
<polygon fill="none" stroke="black" points="234.5,-104 179.5,-104 179.5,-68 234.5,-68 234.5,-104"/>
<text text-anchor="middle" x="207" y="-82.3" font-family="Times,serif" font-size="14.00">Editing</text>
</g>
</g>
</svg>
