<?xml version="1.0" encoding="UTF-8" standalone="no"?>
<!DOCTYPE svg PUBLIC "-//W3C//DTD SVG 1.1//EN"
 "http://www.w3.org/Graphics/SVG/1.1/DTD/svg11.dtd">
<!-- Generated by graphviz version 2.36.0 (20140111.2315)
 -->
<!-- Title: %3 Pages: 1 -->
<svg width="363pt" height="444pt"
 viewBox="0.00 0.00 363.00 444.00" xmlns="http://www.w3.org/2000/svg" xmlns:xlink="http://www.w3.org/1999/xlink">
<g id="graph0" class="graph" transform="scale(1 1) rotate(0) translate(4 440)">
<title>%3</title>
<polygon fill="white" stroke="none" points="-4,4 -4,-440 359,-440 359,4 -4,4"/>
<!-- gls -->
<g id="node1" class="node"><title>gls</title>
<polygon fill="none" stroke="black" points="208.25,-436 135.75,-436 135.75,-400 208.25,-400 208.25,-436"/>
<text text-anchor="middle" x="172" y="-414.3" font-family="Times,serif" font-size="14.00">Glossaries</text>
</g>
<!-- nomencl -->
<g id="node2" class="node"><title>nomencl</title>
<polygon fill="none" stroke="black" points="98.25,-382 -0.25,-382 -0.25,-346 98.25,-346 98.25,-382"/>
<text text-anchor="middle" x="49" y="-360.3" font-family="Times,serif" font-size="14.00">Nomenclatrues</text>
</g>
<!-- gls&#45;&gt;nomencl -->
<g id="edge1" class="edge"><title>gls&#45;&gt;nomencl</title>
<path fill="none" stroke="black" d="M135.429,-401.539C123.917,-396.672 111.003,-391.212 98.7366,-386.027"/>
<polygon fill="black" stroke="black" points="100.091,-382.799 89.5171,-382.129 97.3649,-389.247 100.091,-382.799"/>
</g>
<!-- acro -->
<g id="node3" class="node"><title>acro</title>
<polygon fill="none" stroke="black" points="209,-382 135,-382 135,-346 209,-346 209,-382"/>
<text text-anchor="middle" x="172" y="-360.3" font-family="Times,serif" font-size="14.00">Acronyms</text>
</g>
<!-- gls&#45;&gt;acro -->
<g id="edge2" class="edge"><title>gls&#45;&gt;acro</title>
<path fill="none" stroke="black" d="M172,-399.973C172,-397.574 172,-395.059 172,-392.524"/>
<polygon fill="black" stroke="black" points="175.5,-392.243 172,-382.243 168.5,-392.243 175.5,-392.243"/>
</g>
<!-- symbol -->
<g id="node4" class="node"><title>symbol</title>
<polygon fill="none" stroke="black" points="310.25,-382 245.75,-382 245.75,-346 310.25,-346 310.25,-382"/>
<text text-anchor="middle" x="278" y="-360.3" font-family="Times,serif" font-size="14.00">Symbols</text>
</g>
<!-- gls&#45;&gt;symbol -->
<g id="edge3" class="edge"><title>gls&#45;&gt;symbol</title>
<path fill="none" stroke="black" d="M206.708,-399.973C216.226,-395.304 226.64,-390.196 236.497,-385.36"/>
<polygon fill="black" stroke="black" points="238.292,-388.378 245.729,-380.831 235.209,-382.093 238.292,-388.378"/>
</g>
<!-- xml -->
<g id="node5" class="node"><title>xml</title>
<polygon fill="none" stroke="black" points="199,-328 145,-328 145,-292 199,-292 199,-328"/>
<text text-anchor="middle" x="172" y="-306.3" font-family="Times,serif" font-size="14.00">XML</text>
</g>
<!-- nomencl&#45;&gt;xml -->
<g id="edge4" class="edge"><title>nomencl&#45;&gt;xml</title>
<path fill="none" stroke="black" d="M89.2748,-345.973C104.075,-339.716 120.746,-332.669 135.223,-326.548"/>
<polygon fill="black" stroke="black" points="136.998,-329.598 144.845,-322.48 134.272,-323.15 136.998,-329.598"/>
</g>
<!-- acro&#45;&gt;xml -->
<g id="edge5" class="edge"><title>acro&#45;&gt;xml</title>
<path fill="none" stroke="black" d="M172,-345.973C172,-343.574 172,-341.059 172,-338.524"/>
<polygon fill="black" stroke="black" points="175.5,-338.243 172,-328.243 168.5,-338.243 175.5,-338.243"/>
</g>
<!-- symbol&#45;&gt;xml -->
<g id="edge6" class="edge"><title>symbol&#45;&gt;xml</title>
<path fill="none" stroke="black" d="M245.621,-347.116C233.782,-341.308 220.318,-334.703 208.17,-328.744"/>
<polygon fill="black" stroke="black" points="209.705,-325.598 199.186,-324.336 206.622,-331.883 209.705,-325.598"/>
</g>
<!-- df0 -->
<g id="node6" class="node"><title>df0</title>
<polygon fill="none" stroke="blue" points="147.25,-246 68.75,-246 68.75,-208 147.25,-208 147.25,-246"/>
<text text-anchor="middle" x="108" y="-230.8" font-family="Times,serif" font-size="14.00">data.frame </text>
<text text-anchor="middle" x="108" y="-215.8" font-family="Times,serif" font-size="14.00"> raw</text>
</g>
<!-- xml&#45;&gt;df0 -->
<g id="edge7" class="edge"><title>xml&#45;&gt;df0</title>
<path fill="none" stroke="black" d="M158.427,-291.822C149.841,-280.955 138.57,-266.69 128.862,-254.403"/>
<polygon fill="black" stroke="black" points="131.388,-251.955 122.443,-246.279 125.896,-256.295 131.388,-251.955"/>
<text text-anchor="middle" x="170.5" y="-265.3" font-family="Times,serif" font-size="14.00"> web scrape</text>
</g>
<!-- orgTable0 -->
<g id="node9" class="node"><title>orgTable0</title>
<polygon fill="none" stroke="black" points="294,-246 226,-246 226,-208 294,-208 294,-246"/>
<text text-anchor="middle" x="260" y="-230.8" font-family="Times,serif" font-size="14.00">org table </text>
<text text-anchor="middle" x="260" y="-215.8" font-family="Times,serif" font-size="14.00"> raw </text>
</g>
<!-- xml&#45;&gt;orgTable0 -->
<g id="edge8" class="edge"><title>xml&#45;&gt;orgTable0</title>
<path fill="none" stroke="black" d="M190.663,-291.822C202.809,-280.642 218.863,-265.865 232.465,-253.345"/>
<polygon fill="black" stroke="black" points="235.154,-255.627 240.141,-246.279 230.413,-250.476 235.154,-255.627"/>
<text text-anchor="middle" x="264" y="-272.8" font-family="Times,serif" font-size="14.00"> paste </text>
<text text-anchor="middle" x="264" y="-257.8" font-family="Times,serif" font-size="14.00">&amp; convert</text>
</g>
<!-- df0&#45;&gt;orgTable0 -->
<g id="edge9" class="edge"><title>df0&#45;&gt;orgTable0</title>
<path fill="none" stroke="black" d="M147.539,-227C168.403,-227 194.071,-227 215.615,-227"/>
<polygon fill="black" stroke="black" points="215.82,-230.5 225.82,-227 215.82,-223.5 215.82,-230.5"/>
<text text-anchor="middle" x="186.5" y="-233.8" font-family="Times,serif" font-size="14.00"> R:print</text>
</g>
<!-- df1 -->
<g id="node7" class="node"><title>df1</title>
<polygon fill="none" stroke="blue" points="305,-162 215,-162 215,-124 305,-124 305,-162"/>
<text text-anchor="middle" x="260" y="-146.8" font-family="Times,serif" font-size="14.00">data.frame </text>
<text text-anchor="middle" x="260" y="-131.8" font-family="Times,serif" font-size="14.00"> unduplicated</text>
</g>
<!-- df2 -->
<g id="node8" class="node"><title>df2</title>
<polygon fill="none" stroke="blue" points="275.25,-92 196.75,-92 196.75,-54 275.25,-54 275.25,-92"/>
<text text-anchor="middle" x="236" y="-76.8" font-family="Times,serif" font-size="14.00">data.frame </text>
<text text-anchor="middle" x="236" y="-61.8" font-family="Times,serif" font-size="14.00"> latex</text>
</g>
<!-- glsfile -->
<g id="node12" class="node"><title>glsfile</title>
<polygon fill="none" stroke="black" points="282.25,-36 189.75,-36 189.75,-0 282.25,-0 282.25,-36"/>
<text text-anchor="middle" x="236" y="-14.3" font-family="Times,serif" font-size="14.00">Glossaries.tex</text>
</g>
<!-- df2&#45;&gt;glsfile -->
<g id="edge14" class="edge"><title>df2&#45;&gt;glsfile</title>
<path fill="none" stroke="black" d="M236,-53.7604C236,-51.335 236,-48.807 236,-46.2696"/>
<polygon fill="black" stroke="black" points="239.5,-46.0247 236,-36.0247 232.5,-46.0248 239.5,-46.0247"/>
</g>
<!-- orgTable0&#45;&gt;df1 -->
<g id="edge10" class="edge"><title>orgTable0&#45;&gt;df1</title>
<path fill="none" stroke="black" d="M260,-207.802C260,-197.398 260,-184.122 260,-172.377"/>
<polygon fill="black" stroke="black" points="263.5,-172.148 260,-162.148 256.5,-172.148 263.5,-172.148"/>
<text text-anchor="start" x="260" y="-188.8" font-family="Times,serif" font-size="14.00"> R:!duplicate(df) </text>
<text text-anchor="middle" x="307.5" y="-173.8" font-family="Times,serif" font-size="14.00"> babel:var</text>
</g>
<!-- orgTable1 -->
<g id="node10" class="node"><title>orgTable1</title>
<polygon fill="none" stroke="black" points="136,-162 46,-162 46,-124 136,-124 136,-162"/>
<text text-anchor="middle" x="91" y="-146.8" font-family="Times,serif" font-size="14.00">org table </text>
<text text-anchor="middle" x="91" y="-131.8" font-family="Times,serif" font-size="14.00"> unduplicated</text>
</g>
<!-- orgTable1&#45;&gt;df1 -->
<g id="edge11" class="edge"><title>orgTable1&#45;&gt;df1</title>
<path fill="none" stroke="black" d="M146.559,-143C168.712,-143 193.885,-143 214.879,-143"/>
<polygon fill="black" stroke="black" points="146.289,-139.5 136.289,-143 146.289,-146.5 146.289,-139.5"/>
<text text-anchor="middle" x="175.5" y="-149.8" font-family="Times,serif" font-size="14.00"> R:print</text>
</g>
<!-- orgTable2 -->
<g id="node11" class="node"><title>orgTable2</title>
<polygon fill="none" stroke="black" points="125,-92 57,-92 57,-54 125,-54 125,-92"/>
<text text-anchor="middle" x="91" y="-76.8" font-family="Times,serif" font-size="14.00">org table </text>
<text text-anchor="middle" x="91" y="-61.8" font-family="Times,serif" font-size="14.00"> latex</text>
</g>
<!-- orgTable1&#45;&gt;orgTable2 -->
<g id="edge12" class="edge"><title>orgTable1&#45;&gt;orgTable2</title>
<path fill="none" stroke="black" d="M91,-123.777C91,-117.222 91,-109.662 91,-102.444"/>
<polygon fill="black" stroke="black" points="94.5001,-102.273 91,-92.2731 87.5001,-102.273 94.5001,-102.273"/>
<text text-anchor="middle" x="126" y="-104.3" font-family="Times,serif" font-size="14.00"> Self Editing</text>
</g>
<!-- orgTable2&#45;&gt;df2 -->
<g id="edge13" class="edge"><title>orgTable2&#45;&gt;df2</title>
<path fill="none" stroke="black" d="M125.363,-73C143.549,-73 166.209,-73 186.278,-73"/>
<polygon fill="black" stroke="black" points="186.499,-76.5001 196.499,-73 186.499,-69.5001 186.499,-76.5001"/>
<text text-anchor="middle" x="160.75" y="-79.8" font-family="Times,serif" font-size="14.00">:var</text>
</g>
</g>
</svg>
