<?xml version="1.0" encoding="UTF-8" standalone="no"?>
<!DOCTYPE svg PUBLIC "-//W3C//DTD SVG 1.1//EN"
 "http://www.w3.org/Graphics/SVG/1.1/DTD/svg11.dtd">
<!-- Generated by graphviz version 2.36.0 (20140111.2315)
 -->
<!-- Title: %3 Pages: 1 -->
<svg width="413pt" height="338pt"
 viewBox="0.00 0.00 413.00 338.00" xmlns="http://www.w3.org/2000/svg" xmlns:xlink="http://www.w3.org/1999/xlink">
<g id="graph0" class="graph" transform="scale(1 1) rotate(0) translate(4 334)">
<title>%3</title>
<polygon fill="white" stroke="none" points="-4,4 -4,-334 409,-334 409,4 -4,4"/>
<!-- gls -->
<g id="node1" class="node"><title>gls</title>
<polygon fill="none" stroke="black" points="150.25,-329 77.75,-329 77.75,-293 150.25,-293 150.25,-329"/>
<text text-anchor="middle" x="114" y="-307.3" font-family="Times,serif" font-size="14.00">Glossaries</text>
</g>
<!-- xml -->
<g id="node2" class="node"><title>xml</title>
<polygon fill="none" stroke="black" points="141,-260 87,-260 87,-224 141,-224 141,-260"/>
<text text-anchor="middle" x="114" y="-238.3" font-family="Times,serif" font-size="14.00">XML</text>
</g>
<!-- gls&#45;&gt;xml -->
<g id="edge1" class="edge"><title>gls&#45;&gt;xml</title>
<path fill="none" stroke="black" d="M114,-292.746C114,-285.999 114,-278.093 114,-270.594"/>
<polygon fill="black" stroke="black" points="117.5,-270.429 114,-260.429 110.5,-270.429 117.5,-270.429"/>
<text text-anchor="middle" x="146.5" y="-272.3" font-family="Times,serif" font-size="14.00"> web scrape</text>
</g>
<!-- df0 -->
<g id="node3" class="node"><title>df0</title>
<polygon fill="none" stroke="black" points="78.25,-178 -0.25,-178 -0.25,-140 78.25,-140 78.25,-178"/>
<text text-anchor="middle" x="39" y="-162.8" font-family="Times,serif" font-size="14.00">data.frame </text>
<text text-anchor="middle" x="39" y="-147.8" font-family="Times,serif" font-size="14.00"> raw</text>
</g>
<!-- xml&#45;&gt;df0 -->
<g id="edge2" class="edge"><title>xml&#45;&gt;df0</title>
<path fill="none" stroke="black" d="M98.0944,-223.822C87.8391,-212.746 74.3153,-198.14 62.7933,-185.697"/>
<polygon fill="black" stroke="black" points="65.2873,-183.239 55.925,-178.279 60.1509,-187.995 65.2873,-183.239"/>
<text text-anchor="middle" x="101.5" y="-197.3" font-family="Times,serif" font-size="14.00"> web scrape</text>
</g>
<!-- orgTable0 -->
<g id="node6" class="node"><title>orgTable0</title>
<polygon fill="none" stroke="black" points="225,-178 157,-178 157,-140 225,-140 225,-178"/>
<text text-anchor="middle" x="191" y="-162.8" font-family="Times,serif" font-size="14.00">org table </text>
<text text-anchor="middle" x="191" y="-147.8" font-family="Times,serif" font-size="14.00"> raw </text>
</g>
<!-- xml&#45;&gt;orgTable0 -->
<g id="edge3" class="edge"><title>xml&#45;&gt;orgTable0</title>
<path fill="none" stroke="black" d="M130.33,-223.822C140.858,-212.746 154.743,-198.14 166.572,-185.697"/>
<polygon fill="black" stroke="black" points="169.271,-187.938 173.624,-178.279 164.197,-183.115 169.271,-187.938"/>
<text text-anchor="middle" x="195" y="-204.8" font-family="Times,serif" font-size="14.00"> paste </text>
<text text-anchor="middle" x="195" y="-189.8" font-family="Times,serif" font-size="14.00">&amp; convert</text>
</g>
<!-- df0&#45;&gt;orgTable0 -->
<g id="edge4" class="edge"><title>df0&#45;&gt;orgTable0</title>
<path fill="none" stroke="black" d="M78.5394,-159C99.4031,-159 125.071,-159 146.615,-159"/>
<polygon fill="black" stroke="black" points="146.82,-162.5 156.82,-159 146.82,-155.5 146.82,-162.5"/>
<text text-anchor="middle" x="117.5" y="-165.8" font-family="Times,serif" font-size="14.00"> R:print</text>
</g>
<!-- df1 -->
<g id="node4" class="node"><title>df1</title>
<polygon fill="none" stroke="black" points="236,-94 146,-94 146,-56 236,-56 236,-94"/>
<text text-anchor="middle" x="191" y="-78.8" font-family="Times,serif" font-size="14.00">data.frame </text>
<text text-anchor="middle" x="191" y="-63.8" font-family="Times,serif" font-size="14.00"> unduplicated</text>
</g>
<!-- orgTable1 -->
<g id="node7" class="node"><title>orgTable1</title>
<polygon fill="none" stroke="black" points="405,-94 315,-94 315,-56 405,-56 405,-94"/>
<text text-anchor="middle" x="360" y="-78.8" font-family="Times,serif" font-size="14.00">org table </text>
<text text-anchor="middle" x="360" y="-63.8" font-family="Times,serif" font-size="14.00"> unduplicated</text>
</g>
<!-- df1&#45;&gt;orgTable1 -->
<g id="edge6" class="edge"><title>df1&#45;&gt;orgTable1</title>
<path fill="none" stroke="black" d="M236.289,-75C257.306,-75 282.481,-75 304.619,-75"/>
<polygon fill="black" stroke="black" points="304.879,-78.5001 314.879,-75 304.879,-71.5001 304.879,-78.5001"/>
<text text-anchor="middle" x="275.5" y="-81.8" font-family="Times,serif" font-size="14.00"> R:print</text>
</g>
<!-- df2 -->
<g id="node5" class="node"><title>df2</title>
<polygon fill="none" stroke="black" points="265.25,-330 186.75,-330 186.75,-292 265.25,-292 265.25,-330"/>
<text text-anchor="middle" x="226" y="-314.8" font-family="Times,serif" font-size="14.00">data.frame </text>
<text text-anchor="middle" x="226" y="-299.8" font-family="Times,serif" font-size="14.00"> latex</text>
</g>
<!-- orgTable0&#45;&gt;df1 -->
<g id="edge5" class="edge"><title>orgTable0&#45;&gt;df1</title>
<path fill="none" stroke="black" d="M191,-139.802C191,-129.398 191,-116.122 191,-104.377"/>
<polygon fill="black" stroke="black" points="194.5,-104.148 191,-94.1476 187.5,-104.148 194.5,-104.148"/>
<text text-anchor="start" x="191" y="-120.8" font-family="Times,serif" font-size="14.00"> R:!duplicate(df) </text>
<text text-anchor="middle" x="238.5" y="-105.8" font-family="Times,serif" font-size="14.00"> babel:var</text>
</g>
<!-- orgTable2 -->
<g id="node8" class="node"><title>orgTable2</title>
<polygon fill="none" stroke="black" points="394,-38 326,-38 326,-0 394,-0 394,-38"/>
<text text-anchor="middle" x="360" y="-22.8" font-family="Times,serif" font-size="14.00">org table </text>
<text text-anchor="middle" x="360" y="-7.8" font-family="Times,serif" font-size="14.00"> latex</text>
</g>
<!-- orgTable1&#45;&gt;orgTable2 -->
<g id="edge7" class="edge"><title>orgTable1&#45;&gt;orgTable2</title>
<path fill="none" stroke="black" d="M360,-55.7181C360,-53.3429 360,-50.867 360,-48.3754"/>
<polygon fill="black" stroke="black" points="363.5,-48.2631 360,-38.2631 356.5,-48.2631 363.5,-48.2631"/>
</g>
<!-- edit -->
<g id="node9" class="node"><title>edit</title>
<polygon fill="none" stroke="black" points="356.5,-329 301.5,-329 301.5,-293 356.5,-293 356.5,-329"/>
<text text-anchor="middle" x="329" y="-307.3" font-family="Times,serif" font-size="14.00">Editing</text>
</g>
</g>
</svg>
