<?xml version="1.0" encoding="UTF-8" standalone="no"?>
<!DOCTYPE svg PUBLIC "-//W3C//DTD SVG 1.1//EN"
 "http://www.w3.org/Graphics/SVG/1.1/DTD/svg11.dtd">
<!-- Generated by graphviz version 2.36.0 (20140111.2315)
 -->
<!-- Title: %3 Pages: 1 -->
<svg width="595pt" height="332pt"
 viewBox="0.00 0.00 595.00 332.00" xmlns="http://www.w3.org/2000/svg" xmlns:xlink="http://www.w3.org/1999/xlink">
<g id="graph0" class="graph" transform="scale(1 1) rotate(0) translate(4 328)">
<title>%3</title>
<polygon fill="white" stroke="none" points="-4,4 -4,-328 591,-328 591,4 -4,4"/>
<!-- gls -->
<g id="node1" class="node"><title>gls</title>
<polygon fill="none" stroke="black" points="153.25,-323 80.75,-323 80.75,-287 153.25,-287 153.25,-323"/>
<text text-anchor="middle" x="117" y="-301.3" font-family="Times,serif" font-size="14.00">Glossaries</text>
</g>
<!-- xml -->
<g id="node2" class="node"><title>xml</title>
<polygon fill="none" stroke="black" points="144,-254 90,-254 90,-218 144,-218 144,-254"/>
<text text-anchor="middle" x="117" y="-232.3" font-family="Times,serif" font-size="14.00">XML</text>
</g>
<!-- gls&#45;&gt;xml -->
<g id="edge1" class="edge"><title>gls&#45;&gt;xml</title>
<path fill="none" stroke="black" d="M117,-286.746C117,-279.999 117,-272.093 117,-264.594"/>
<polygon fill="black" stroke="black" points="120.5,-264.429 117,-254.429 113.5,-264.429 120.5,-264.429"/>
<text text-anchor="middle" x="149.5" y="-266.3" font-family="Times,serif" font-size="14.00"> web scrape</text>
</g>
<!-- df0 -->
<g id="node3" class="node"><title>df0</title>
<polygon fill="none" stroke="black" points="74.25,-172 -0.25,-172 -0.25,-136 74.25,-136 74.25,-172"/>
<text text-anchor="middle" x="37" y="-150.3" font-family="Times,serif" font-size="14.00">data.frame</text>
</g>
<!-- xml&#45;&gt;df0 -->
<g id="edge2" class="edge"><title>xml&#45;&gt;df0</title>
<path fill="none" stroke="black" d="M99.6412,-217.641C88.4527,-206.453 73.7404,-191.74 61.3855,-179.386"/>
<polygon fill="black" stroke="black" points="63.5961,-176.646 54.0501,-172.05 58.6463,-181.596 63.5961,-176.646"/>
<text text-anchor="middle" x="106.5" y="-191.3" font-family="Times,serif" font-size="14.00"> web scrape</text>
</g>
<!-- orgTable -->
<g id="node9" class="node"><title>orgTable</title>
<polygon fill="none" stroke="black" points="230.25,-172 165.75,-172 165.75,-136 230.25,-136 230.25,-172"/>
<text text-anchor="middle" x="198" y="-150.3" font-family="Times,serif" font-size="14.00">orgTable</text>
</g>
<!-- xml&#45;&gt;orgTable -->
<g id="edge3" class="edge"><title>xml&#45;&gt;orgTable</title>
<path fill="none" stroke="black" d="M134.576,-217.641C145.904,-206.453 160.8,-191.74 173.31,-179.386"/>
<polygon fill="black" stroke="black" points="176.081,-181.567 180.737,-172.05 171.162,-176.587 176.081,-181.567"/>
<text text-anchor="middle" x="201" y="-198.8" font-family="Times,serif" font-size="14.00"> paste </text>
<text text-anchor="middle" x="201" y="-183.8" font-family="Times,serif" font-size="14.00">&amp; convert</text>
</g>
<!-- df0&#45;&gt;orgTable -->
<g id="edge4" class="edge"><title>df0&#45;&gt;orgTable</title>
<path fill="none" stroke="black" d="M74.5264,-141.142C82.2812,-139.004 90.461,-137.121 98.25,-136 117.166,-133.278 122.364,-133.077 141.25,-136 146.041,-136.742 150.982,-137.816 155.856,-139.076"/>
<polygon fill="black" stroke="black" points="155.124,-142.506 165.7,-141.876 157.039,-135.773 155.124,-142.506"/>
<text text-anchor="middle" x="119.75" y="-139.8" font-family="Times,serif" font-size="14.00"> R:print</text>
</g>
<!-- df1 -->
<g id="node4" class="node"><title>df1</title>
<polygon fill="none" stroke="black" points="235.25,-104 160.75,-104 160.75,-68 235.25,-68 235.25,-104"/>
<text text-anchor="middle" x="198" y="-82.3" font-family="Times,serif" font-size="14.00">data.frame</text>
</g>
<!-- org2 -->
<g id="node10" class="node"><title>org2</title>
<polygon fill="none" stroke="black" points="225,-36 171,-36 171,-0 225,-0 225,-36"/>
<text text-anchor="middle" x="198" y="-14.3" font-family="Times,serif" font-size="14.00">org2</text>
</g>
<!-- df1&#45;&gt;org2 -->
<g id="edge7" class="edge"><title>df1&#45;&gt;org2</title>
<path fill="none" stroke="black" d="M198,-67.6593C198,-61.1928 198,-53.6819 198,-46.5246"/>
<polygon fill="black" stroke="black" points="201.5,-46.454 198,-36.4541 194.5,-46.4541 201.5,-46.454"/>
<text text-anchor="middle" x="220" y="-48.3" font-family="Times,serif" font-size="14.00"> Editing</text>
</g>
<!-- df2 -->
<g id="node5" class="node"><title>df2</title>
<polygon fill="none" stroke="black" points="264.25,-323 189.75,-323 189.75,-287 264.25,-287 264.25,-323"/>
<text text-anchor="middle" x="227" y="-301.3" font-family="Times,serif" font-size="14.00">data.frame</text>
</g>
<!-- orgTable0 -->
<g id="node6" class="node"><title>orgTable0</title>
<polygon fill="none" stroke="black" points="369,-324 301,-324 301,-286 369,-286 369,-324"/>
<text text-anchor="middle" x="335" y="-308.8" font-family="Times,serif" font-size="14.00">org table </text>
<text text-anchor="middle" x="335" y="-293.8" font-family="Times,serif" font-size="14.00"> raw </text>
</g>
<!-- orgTable1 -->
<g id="node7" class="node"><title>orgTable1</title>
<polygon fill="none" stroke="black" points="495,-324 405,-324 405,-286 495,-286 495,-324"/>
<text text-anchor="middle" x="450" y="-308.8" font-family="Times,serif" font-size="14.00">org table </text>
<text text-anchor="middle" x="450" y="-293.8" font-family="Times,serif" font-size="14.00"> unduplicated</text>
</g>
<!-- edit -->
<g id="node8" class="node"><title>edit</title>
<polygon fill="none" stroke="black" points="586.5,-323 531.5,-323 531.5,-287 586.5,-287 586.5,-323"/>
<text text-anchor="middle" x="559" y="-301.3" font-family="Times,serif" font-size="14.00">Editing</text>
</g>
<!-- orgTable&#45;&gt;df0 -->
<g id="edge5" class="edge"><title>orgTable&#45;&gt;df0</title>
<path fill="none" stroke="black" d="M165.492,-154C142.212,-154 110.499,-154 84.4033,-154"/>
<polygon fill="black" stroke="black" points="84.3413,-150.5 74.3413,-154 84.3413,-157.5 84.3413,-150.5"/>
<text text-anchor="middle" x="119.75" y="-160.8" font-family="Times,serif" font-size="14.00"> babel:var</text>
</g>
<!-- orgTable&#45;&gt;df1 -->
<g id="edge6" class="edge"><title>orgTable&#45;&gt;df1</title>
<path fill="none" stroke="black" d="M198,-135.659C198,-129.193 198,-121.682 198,-114.525"/>
<polygon fill="black" stroke="black" points="201.5,-114.454 198,-104.454 194.5,-114.454 201.5,-114.454"/>
<text text-anchor="middle" x="243.5" y="-116.3" font-family="Times,serif" font-size="14.00"> R:!duplicate(df)</text>
</g>
</g>
</svg>
